M48
;DRILL file {KiCad 5.0.2-bee76a0~70~ubuntu16.04.1} date Tue 30 Jul 2019 02:23:56 PM CEST
;FORMAT={-:-/ absolute / inch / decimal}
FMAT,2
INCH,TZ
T1C0.0157
T2C0.0314
T3C0.0394
T4C0.0400
%
G90
G05
T1
X4.4956Y-2.2775
X4.525Y-2.125
X4.6154Y-1.7
X4.68Y-2.47
X4.775Y-2.075
X4.8665Y-1.9
X4.9415Y-1.8941
X5.0335Y-2.075
X5.0335Y-2.2069
T2
X4.6753Y-1.7845
X4.8248Y-1.7846
T3
X5.1Y-1.7
X5.1Y-1.8
X5.1Y-1.9
X5.1Y-2.
X5.1Y-2.1
X5.1Y-2.2
X5.1Y-2.3
X5.1Y-2.4
X5.1Y-2.5
X5.1Y-2.6
X4.4Y-1.7
X4.4Y-1.8
X4.4Y-1.9
X4.4Y-2.
X4.4Y-2.1
X4.4Y-2.2
X4.4Y-2.3
X4.4Y-2.4
X4.4Y-2.5
X4.4Y-2.6
T4
X4.75Y-2.55
X4.85Y-2.55
X4.95Y-2.55
T0
M30
