G04 #@! TF.GenerationSoftware,KiCad,Pcbnew,5.0.2-bee76a0~70~ubuntu16.04.1*
G04 #@! TF.CreationDate,2019-07-30T14:23:51+02:00*
G04 #@! TF.ProjectId,hw-BOB-ATSAMD11D,68772d42-4f42-42d4-9154-53414d443131,rev?*
G04 #@! TF.SameCoordinates,Original*
G04 #@! TF.FileFunction,Soldermask,Bot*
G04 #@! TF.FilePolarity,Negative*
%FSLAX46Y46*%
G04 Gerber Fmt 4.6, Leading zero omitted, Abs format (unit mm)*
G04 Created by KiCad (PCBNEW 5.0.2-bee76a0~70~ubuntu16.04.1) date Tue 30 Jul 2019 02:23:51 PM CEST*
%MOMM*%
%LPD*%
G01*
G04 APERTURE LIST*
%ADD10C,0.100000*%
G04 APERTURE END LIST*
D10*
G36*
X130441000Y-66941000D02*
X128639000Y-66941000D01*
X128639000Y-65139000D01*
X130441000Y-65139000D01*
X130441000Y-66941000D01*
X130441000Y-66941000D01*
G37*
G36*
X111870442Y-65145518D02*
X111936627Y-65152037D01*
X112049853Y-65186384D01*
X112106467Y-65203557D01*
X112245087Y-65277652D01*
X112262991Y-65287222D01*
X112264253Y-65288258D01*
X112400186Y-65399814D01*
X112474584Y-65490470D01*
X112512778Y-65537009D01*
X112512779Y-65537011D01*
X112596443Y-65693533D01*
X112596443Y-65693534D01*
X112647963Y-65863373D01*
X112665359Y-66040000D01*
X112647963Y-66216627D01*
X112613616Y-66329853D01*
X112596443Y-66386467D01*
X112522348Y-66525087D01*
X112512778Y-66542991D01*
X112483448Y-66578729D01*
X112400186Y-66680186D01*
X112298729Y-66763448D01*
X112262991Y-66792778D01*
X112262989Y-66792779D01*
X112106467Y-66876443D01*
X112049853Y-66893616D01*
X111936627Y-66927963D01*
X111870442Y-66934482D01*
X111804260Y-66941000D01*
X111715740Y-66941000D01*
X111649558Y-66934482D01*
X111583373Y-66927963D01*
X111470147Y-66893616D01*
X111413533Y-66876443D01*
X111257011Y-66792779D01*
X111257009Y-66792778D01*
X111221271Y-66763448D01*
X111119814Y-66680186D01*
X111036552Y-66578729D01*
X111007222Y-66542991D01*
X110997652Y-66525087D01*
X110923557Y-66386467D01*
X110906384Y-66329853D01*
X110872037Y-66216627D01*
X110854641Y-66040000D01*
X110872037Y-65863373D01*
X110923557Y-65693534D01*
X110923557Y-65693533D01*
X111007221Y-65537011D01*
X111007222Y-65537009D01*
X111045416Y-65490470D01*
X111119814Y-65399814D01*
X111255747Y-65288258D01*
X111257009Y-65287222D01*
X111274913Y-65277652D01*
X111413533Y-65203557D01*
X111470147Y-65186384D01*
X111583373Y-65152037D01*
X111649558Y-65145518D01*
X111715740Y-65139000D01*
X111804260Y-65139000D01*
X111870442Y-65145518D01*
X111870442Y-65145518D01*
G37*
G36*
X120887142Y-63988242D02*
X121035102Y-64049530D01*
X121102130Y-64094317D01*
X121168257Y-64138501D01*
X121281499Y-64251743D01*
X121282191Y-64252779D01*
X121370470Y-64384898D01*
X121431758Y-64532858D01*
X121463000Y-64689925D01*
X121463000Y-64850075D01*
X121431758Y-65007142D01*
X121384354Y-65121583D01*
X121370471Y-65155100D01*
X121282191Y-65287222D01*
X121281498Y-65288258D01*
X121168258Y-65401498D01*
X121035102Y-65490470D01*
X120887142Y-65551758D01*
X120730075Y-65583000D01*
X120569925Y-65583000D01*
X120412858Y-65551758D01*
X120264898Y-65490470D01*
X120131742Y-65401498D01*
X120018502Y-65288258D01*
X120017810Y-65287222D01*
X119929529Y-65155100D01*
X119915646Y-65121583D01*
X119868242Y-65007142D01*
X119837000Y-64850075D01*
X119837000Y-64689925D01*
X119868242Y-64532858D01*
X119929530Y-64384898D01*
X120017809Y-64252779D01*
X120018501Y-64251743D01*
X120131743Y-64138501D01*
X120197870Y-64094317D01*
X120264898Y-64049530D01*
X120412858Y-63988242D01*
X120569925Y-63957000D01*
X120730075Y-63957000D01*
X120887142Y-63988242D01*
X120887142Y-63988242D01*
G37*
G36*
X125967142Y-63988242D02*
X126115102Y-64049530D01*
X126182130Y-64094317D01*
X126248257Y-64138501D01*
X126361499Y-64251743D01*
X126362191Y-64252779D01*
X126450470Y-64384898D01*
X126511758Y-64532858D01*
X126543000Y-64689925D01*
X126543000Y-64850075D01*
X126511758Y-65007142D01*
X126464354Y-65121583D01*
X126450471Y-65155100D01*
X126362191Y-65287222D01*
X126361498Y-65288258D01*
X126248258Y-65401498D01*
X126115102Y-65490470D01*
X125967142Y-65551758D01*
X125810075Y-65583000D01*
X125649925Y-65583000D01*
X125492858Y-65551758D01*
X125344898Y-65490470D01*
X125211742Y-65401498D01*
X125098502Y-65288258D01*
X125097810Y-65287222D01*
X125009529Y-65155100D01*
X124995646Y-65121583D01*
X124948242Y-65007142D01*
X124917000Y-64850075D01*
X124917000Y-64689925D01*
X124948242Y-64532858D01*
X125009530Y-64384898D01*
X125097809Y-64252779D01*
X125098501Y-64251743D01*
X125211743Y-64138501D01*
X125277870Y-64094317D01*
X125344898Y-64049530D01*
X125492858Y-63988242D01*
X125649925Y-63957000D01*
X125810075Y-63957000D01*
X125967142Y-63988242D01*
X125967142Y-63988242D01*
G37*
G36*
X123427142Y-63988242D02*
X123575102Y-64049530D01*
X123642130Y-64094317D01*
X123708257Y-64138501D01*
X123821499Y-64251743D01*
X123822191Y-64252779D01*
X123910470Y-64384898D01*
X123971758Y-64532858D01*
X124003000Y-64689925D01*
X124003000Y-64850075D01*
X123971758Y-65007142D01*
X123924354Y-65121583D01*
X123910471Y-65155100D01*
X123822191Y-65287222D01*
X123821498Y-65288258D01*
X123708258Y-65401498D01*
X123575102Y-65490470D01*
X123427142Y-65551758D01*
X123270075Y-65583000D01*
X123109925Y-65583000D01*
X122952858Y-65551758D01*
X122804898Y-65490470D01*
X122671742Y-65401498D01*
X122558502Y-65288258D01*
X122557810Y-65287222D01*
X122469529Y-65155100D01*
X122455646Y-65121583D01*
X122408242Y-65007142D01*
X122377000Y-64850075D01*
X122377000Y-64689925D01*
X122408242Y-64532858D01*
X122469530Y-64384898D01*
X122557809Y-64252779D01*
X122558501Y-64251743D01*
X122671743Y-64138501D01*
X122737870Y-64094317D01*
X122804898Y-64049530D01*
X122952858Y-63988242D01*
X123109925Y-63957000D01*
X123270075Y-63957000D01*
X123427142Y-63988242D01*
X123427142Y-63988242D01*
G37*
G36*
X111870442Y-62605518D02*
X111936627Y-62612037D01*
X112049853Y-62646384D01*
X112106467Y-62663557D01*
X112245087Y-62737652D01*
X112262991Y-62747222D01*
X112298729Y-62776552D01*
X112400186Y-62859814D01*
X112483448Y-62961271D01*
X112512778Y-62997009D01*
X112512779Y-62997011D01*
X112596443Y-63153533D01*
X112596443Y-63153534D01*
X112647963Y-63323373D01*
X112665359Y-63500000D01*
X112647963Y-63676627D01*
X112613616Y-63789853D01*
X112596443Y-63846467D01*
X112537361Y-63957000D01*
X112512778Y-64002991D01*
X112483448Y-64038729D01*
X112400186Y-64140186D01*
X112298729Y-64223448D01*
X112262991Y-64252778D01*
X112262989Y-64252779D01*
X112106467Y-64336443D01*
X112049853Y-64353616D01*
X111936627Y-64387963D01*
X111870442Y-64394482D01*
X111804260Y-64401000D01*
X111715740Y-64401000D01*
X111649558Y-64394482D01*
X111583373Y-64387963D01*
X111470147Y-64353616D01*
X111413533Y-64336443D01*
X111257011Y-64252779D01*
X111257009Y-64252778D01*
X111221271Y-64223448D01*
X111119814Y-64140186D01*
X111036552Y-64038729D01*
X111007222Y-64002991D01*
X110982639Y-63957000D01*
X110923557Y-63846467D01*
X110906384Y-63789853D01*
X110872037Y-63676627D01*
X110854641Y-63500000D01*
X110872037Y-63323373D01*
X110923557Y-63153534D01*
X110923557Y-63153533D01*
X111007221Y-62997011D01*
X111007222Y-62997009D01*
X111036552Y-62961271D01*
X111119814Y-62859814D01*
X111221271Y-62776552D01*
X111257009Y-62747222D01*
X111274913Y-62737652D01*
X111413533Y-62663557D01*
X111470147Y-62646384D01*
X111583373Y-62612037D01*
X111649558Y-62605518D01*
X111715740Y-62599000D01*
X111804260Y-62599000D01*
X111870442Y-62605518D01*
X111870442Y-62605518D01*
G37*
G36*
X129650442Y-62605518D02*
X129716627Y-62612037D01*
X129829853Y-62646384D01*
X129886467Y-62663557D01*
X130025087Y-62737652D01*
X130042991Y-62747222D01*
X130078729Y-62776552D01*
X130180186Y-62859814D01*
X130263448Y-62961271D01*
X130292778Y-62997009D01*
X130292779Y-62997011D01*
X130376443Y-63153533D01*
X130376443Y-63153534D01*
X130427963Y-63323373D01*
X130445359Y-63500000D01*
X130427963Y-63676627D01*
X130393616Y-63789853D01*
X130376443Y-63846467D01*
X130317361Y-63957000D01*
X130292778Y-64002991D01*
X130263448Y-64038729D01*
X130180186Y-64140186D01*
X130078729Y-64223448D01*
X130042991Y-64252778D01*
X130042989Y-64252779D01*
X129886467Y-64336443D01*
X129829853Y-64353616D01*
X129716627Y-64387963D01*
X129650442Y-64394482D01*
X129584260Y-64401000D01*
X129495740Y-64401000D01*
X129429558Y-64394482D01*
X129363373Y-64387963D01*
X129250147Y-64353616D01*
X129193533Y-64336443D01*
X129037011Y-64252779D01*
X129037009Y-64252778D01*
X129001271Y-64223448D01*
X128899814Y-64140186D01*
X128816552Y-64038729D01*
X128787222Y-64002991D01*
X128762639Y-63957000D01*
X128703557Y-63846467D01*
X128686384Y-63789853D01*
X128652037Y-63676627D01*
X128634641Y-63500000D01*
X128652037Y-63323373D01*
X128703557Y-63153534D01*
X128703557Y-63153533D01*
X128787221Y-62997011D01*
X128787222Y-62997009D01*
X128816552Y-62961271D01*
X128899814Y-62859814D01*
X129001271Y-62776552D01*
X129037009Y-62747222D01*
X129054913Y-62737652D01*
X129193533Y-62663557D01*
X129250147Y-62646384D01*
X129363373Y-62612037D01*
X129429558Y-62605518D01*
X129495740Y-62599000D01*
X129584260Y-62599000D01*
X129650442Y-62605518D01*
X129650442Y-62605518D01*
G37*
G36*
X111870442Y-60065518D02*
X111936627Y-60072037D01*
X112049853Y-60106384D01*
X112106467Y-60123557D01*
X112245087Y-60197652D01*
X112262991Y-60207222D01*
X112298729Y-60236552D01*
X112400186Y-60319814D01*
X112483448Y-60421271D01*
X112512778Y-60457009D01*
X112512779Y-60457011D01*
X112596443Y-60613533D01*
X112596443Y-60613534D01*
X112647963Y-60783373D01*
X112665359Y-60960000D01*
X112647963Y-61136627D01*
X112613616Y-61249853D01*
X112596443Y-61306467D01*
X112522348Y-61445087D01*
X112512778Y-61462991D01*
X112483448Y-61498729D01*
X112400186Y-61600186D01*
X112298729Y-61683448D01*
X112262991Y-61712778D01*
X112262989Y-61712779D01*
X112106467Y-61796443D01*
X112049853Y-61813616D01*
X111936627Y-61847963D01*
X111870443Y-61854481D01*
X111804260Y-61861000D01*
X111715740Y-61861000D01*
X111649557Y-61854481D01*
X111583373Y-61847963D01*
X111470147Y-61813616D01*
X111413533Y-61796443D01*
X111257011Y-61712779D01*
X111257009Y-61712778D01*
X111221271Y-61683448D01*
X111119814Y-61600186D01*
X111036552Y-61498729D01*
X111007222Y-61462991D01*
X110997652Y-61445087D01*
X110923557Y-61306467D01*
X110906384Y-61249853D01*
X110872037Y-61136627D01*
X110854641Y-60960000D01*
X110872037Y-60783373D01*
X110923557Y-60613534D01*
X110923557Y-60613533D01*
X111007221Y-60457011D01*
X111007222Y-60457009D01*
X111036552Y-60421271D01*
X111119814Y-60319814D01*
X111221271Y-60236552D01*
X111257009Y-60207222D01*
X111274913Y-60197652D01*
X111413533Y-60123557D01*
X111470147Y-60106384D01*
X111583373Y-60072037D01*
X111649558Y-60065518D01*
X111715740Y-60059000D01*
X111804260Y-60059000D01*
X111870442Y-60065518D01*
X111870442Y-60065518D01*
G37*
G36*
X129650442Y-60065518D02*
X129716627Y-60072037D01*
X129829853Y-60106384D01*
X129886467Y-60123557D01*
X130025087Y-60197652D01*
X130042991Y-60207222D01*
X130078729Y-60236552D01*
X130180186Y-60319814D01*
X130263448Y-60421271D01*
X130292778Y-60457009D01*
X130292779Y-60457011D01*
X130376443Y-60613533D01*
X130376443Y-60613534D01*
X130427963Y-60783373D01*
X130445359Y-60960000D01*
X130427963Y-61136627D01*
X130393616Y-61249853D01*
X130376443Y-61306467D01*
X130302348Y-61445087D01*
X130292778Y-61462991D01*
X130263448Y-61498729D01*
X130180186Y-61600186D01*
X130078729Y-61683448D01*
X130042991Y-61712778D01*
X130042989Y-61712779D01*
X129886467Y-61796443D01*
X129829853Y-61813616D01*
X129716627Y-61847963D01*
X129650443Y-61854481D01*
X129584260Y-61861000D01*
X129495740Y-61861000D01*
X129429557Y-61854481D01*
X129363373Y-61847963D01*
X129250147Y-61813616D01*
X129193533Y-61796443D01*
X129037011Y-61712779D01*
X129037009Y-61712778D01*
X129001271Y-61683448D01*
X128899814Y-61600186D01*
X128816552Y-61498729D01*
X128787222Y-61462991D01*
X128777652Y-61445087D01*
X128703557Y-61306467D01*
X128686384Y-61249853D01*
X128652037Y-61136627D01*
X128634641Y-60960000D01*
X128652037Y-60783373D01*
X128703557Y-60613534D01*
X128703557Y-60613533D01*
X128787221Y-60457011D01*
X128787222Y-60457009D01*
X128816552Y-60421271D01*
X128899814Y-60319814D01*
X129001271Y-60236552D01*
X129037009Y-60207222D01*
X129054913Y-60197652D01*
X129193533Y-60123557D01*
X129250147Y-60106384D01*
X129363373Y-60072037D01*
X129429558Y-60065518D01*
X129495740Y-60059000D01*
X129584260Y-60059000D01*
X129650442Y-60065518D01*
X129650442Y-60065518D01*
G37*
G36*
X129650443Y-57525519D02*
X129716627Y-57532037D01*
X129829853Y-57566384D01*
X129886467Y-57583557D01*
X130025087Y-57657652D01*
X130042991Y-57667222D01*
X130078729Y-57696552D01*
X130180186Y-57779814D01*
X130263448Y-57881271D01*
X130292778Y-57917009D01*
X130292779Y-57917011D01*
X130376443Y-58073533D01*
X130376443Y-58073534D01*
X130427963Y-58243373D01*
X130445359Y-58420000D01*
X130427963Y-58596627D01*
X130393616Y-58709853D01*
X130376443Y-58766467D01*
X130302348Y-58905087D01*
X130292778Y-58922991D01*
X130263448Y-58958729D01*
X130180186Y-59060186D01*
X130078729Y-59143448D01*
X130042991Y-59172778D01*
X130042989Y-59172779D01*
X129886467Y-59256443D01*
X129829853Y-59273616D01*
X129716627Y-59307963D01*
X129650442Y-59314482D01*
X129584260Y-59321000D01*
X129495740Y-59321000D01*
X129429558Y-59314482D01*
X129363373Y-59307963D01*
X129250147Y-59273616D01*
X129193533Y-59256443D01*
X129037011Y-59172779D01*
X129037009Y-59172778D01*
X129001271Y-59143448D01*
X128899814Y-59060186D01*
X128816552Y-58958729D01*
X128787222Y-58922991D01*
X128777652Y-58905087D01*
X128703557Y-58766467D01*
X128686384Y-58709853D01*
X128652037Y-58596627D01*
X128634641Y-58420000D01*
X128652037Y-58243373D01*
X128703557Y-58073534D01*
X128703557Y-58073533D01*
X128787221Y-57917011D01*
X128787222Y-57917009D01*
X128816552Y-57881271D01*
X128899814Y-57779814D01*
X129001271Y-57696552D01*
X129037009Y-57667222D01*
X129054913Y-57657652D01*
X129193533Y-57583557D01*
X129250147Y-57566384D01*
X129363373Y-57532037D01*
X129429557Y-57525519D01*
X129495740Y-57519000D01*
X129584260Y-57519000D01*
X129650443Y-57525519D01*
X129650443Y-57525519D01*
G37*
G36*
X111870443Y-57525519D02*
X111936627Y-57532037D01*
X112049853Y-57566384D01*
X112106467Y-57583557D01*
X112245087Y-57657652D01*
X112262991Y-57667222D01*
X112298729Y-57696552D01*
X112400186Y-57779814D01*
X112483448Y-57881271D01*
X112512778Y-57917009D01*
X112512779Y-57917011D01*
X112596443Y-58073533D01*
X112596443Y-58073534D01*
X112647963Y-58243373D01*
X112665359Y-58420000D01*
X112647963Y-58596627D01*
X112613616Y-58709853D01*
X112596443Y-58766467D01*
X112522348Y-58905087D01*
X112512778Y-58922991D01*
X112483448Y-58958729D01*
X112400186Y-59060186D01*
X112298729Y-59143448D01*
X112262991Y-59172778D01*
X112262989Y-59172779D01*
X112106467Y-59256443D01*
X112049853Y-59273616D01*
X111936627Y-59307963D01*
X111870442Y-59314482D01*
X111804260Y-59321000D01*
X111715740Y-59321000D01*
X111649558Y-59314482D01*
X111583373Y-59307963D01*
X111470147Y-59273616D01*
X111413533Y-59256443D01*
X111257011Y-59172779D01*
X111257009Y-59172778D01*
X111221271Y-59143448D01*
X111119814Y-59060186D01*
X111036552Y-58958729D01*
X111007222Y-58922991D01*
X110997652Y-58905087D01*
X110923557Y-58766467D01*
X110906384Y-58709853D01*
X110872037Y-58596627D01*
X110854641Y-58420000D01*
X110872037Y-58243373D01*
X110923557Y-58073534D01*
X110923557Y-58073533D01*
X111007221Y-57917011D01*
X111007222Y-57917009D01*
X111036552Y-57881271D01*
X111119814Y-57779814D01*
X111221271Y-57696552D01*
X111257009Y-57667222D01*
X111274913Y-57657652D01*
X111413533Y-57583557D01*
X111470147Y-57566384D01*
X111583373Y-57532037D01*
X111649557Y-57525519D01*
X111715740Y-57519000D01*
X111804260Y-57519000D01*
X111870443Y-57525519D01*
X111870443Y-57525519D01*
G37*
G36*
X111870443Y-54985519D02*
X111936627Y-54992037D01*
X112049853Y-55026384D01*
X112106467Y-55043557D01*
X112245087Y-55117652D01*
X112262991Y-55127222D01*
X112271530Y-55134230D01*
X112400186Y-55239814D01*
X112479665Y-55336661D01*
X112512778Y-55377009D01*
X112512779Y-55377011D01*
X112596443Y-55533533D01*
X112596443Y-55533534D01*
X112647963Y-55703373D01*
X112665359Y-55880000D01*
X112647963Y-56056627D01*
X112613616Y-56169853D01*
X112596443Y-56226467D01*
X112525694Y-56358827D01*
X112512778Y-56382991D01*
X112489032Y-56411925D01*
X112400186Y-56520186D01*
X112321049Y-56585131D01*
X112262991Y-56632778D01*
X112262989Y-56632779D01*
X112106467Y-56716443D01*
X112049853Y-56733616D01*
X111936627Y-56767963D01*
X111870443Y-56774481D01*
X111804260Y-56781000D01*
X111715740Y-56781000D01*
X111649557Y-56774481D01*
X111583373Y-56767963D01*
X111470147Y-56733616D01*
X111413533Y-56716443D01*
X111257011Y-56632779D01*
X111257009Y-56632778D01*
X111198951Y-56585131D01*
X111119814Y-56520186D01*
X111030968Y-56411925D01*
X111007222Y-56382991D01*
X110994306Y-56358827D01*
X110923557Y-56226467D01*
X110906384Y-56169853D01*
X110872037Y-56056627D01*
X110854641Y-55880000D01*
X110872037Y-55703373D01*
X110923557Y-55533534D01*
X110923557Y-55533533D01*
X111007221Y-55377011D01*
X111007222Y-55377009D01*
X111040335Y-55336661D01*
X111119814Y-55239814D01*
X111248470Y-55134230D01*
X111257009Y-55127222D01*
X111274913Y-55117652D01*
X111413533Y-55043557D01*
X111470147Y-55026384D01*
X111583373Y-54992037D01*
X111649557Y-54985519D01*
X111715740Y-54979000D01*
X111804260Y-54979000D01*
X111870443Y-54985519D01*
X111870443Y-54985519D01*
G37*
G36*
X129650443Y-54985519D02*
X129716627Y-54992037D01*
X129829853Y-55026384D01*
X129886467Y-55043557D01*
X130025087Y-55117652D01*
X130042991Y-55127222D01*
X130051530Y-55134230D01*
X130180186Y-55239814D01*
X130259665Y-55336661D01*
X130292778Y-55377009D01*
X130292779Y-55377011D01*
X130376443Y-55533533D01*
X130376443Y-55533534D01*
X130427963Y-55703373D01*
X130445359Y-55880000D01*
X130427963Y-56056627D01*
X130393616Y-56169853D01*
X130376443Y-56226467D01*
X130305694Y-56358827D01*
X130292778Y-56382991D01*
X130269032Y-56411925D01*
X130180186Y-56520186D01*
X130101049Y-56585131D01*
X130042991Y-56632778D01*
X130042989Y-56632779D01*
X129886467Y-56716443D01*
X129829853Y-56733616D01*
X129716627Y-56767963D01*
X129650443Y-56774481D01*
X129584260Y-56781000D01*
X129495740Y-56781000D01*
X129429557Y-56774481D01*
X129363373Y-56767963D01*
X129250147Y-56733616D01*
X129193533Y-56716443D01*
X129037011Y-56632779D01*
X129037009Y-56632778D01*
X128978951Y-56585131D01*
X128899814Y-56520186D01*
X128810968Y-56411925D01*
X128787222Y-56382991D01*
X128774306Y-56358827D01*
X128703557Y-56226467D01*
X128686384Y-56169853D01*
X128652037Y-56056627D01*
X128634641Y-55880000D01*
X128652037Y-55703373D01*
X128703557Y-55533534D01*
X128703557Y-55533533D01*
X128787221Y-55377011D01*
X128787222Y-55377009D01*
X128820335Y-55336661D01*
X128899814Y-55239814D01*
X129028470Y-55134230D01*
X129037009Y-55127222D01*
X129054913Y-55117652D01*
X129193533Y-55043557D01*
X129250147Y-55026384D01*
X129363373Y-54992037D01*
X129429557Y-54985519D01*
X129495740Y-54979000D01*
X129584260Y-54979000D01*
X129650443Y-54985519D01*
X129650443Y-54985519D01*
G37*
G36*
X120233677Y-55133465D02*
X120271364Y-55144898D01*
X120306103Y-55163466D01*
X120336548Y-55188452D01*
X120361534Y-55218897D01*
X120380102Y-55253636D01*
X120391535Y-55291323D01*
X120396000Y-55336661D01*
X120396000Y-56423339D01*
X120391535Y-56468677D01*
X120380102Y-56506364D01*
X120361534Y-56541103D01*
X120336548Y-56571548D01*
X120306103Y-56596534D01*
X120271364Y-56615102D01*
X120233677Y-56626535D01*
X120188339Y-56631000D01*
X119351661Y-56631000D01*
X119306323Y-56626535D01*
X119268636Y-56615102D01*
X119233897Y-56596534D01*
X119203452Y-56571548D01*
X119178466Y-56541103D01*
X119159898Y-56506364D01*
X119148465Y-56468677D01*
X119144000Y-56423339D01*
X119144000Y-55336661D01*
X119148465Y-55291323D01*
X119159898Y-55253636D01*
X119178466Y-55218897D01*
X119203452Y-55188452D01*
X119233897Y-55163466D01*
X119268636Y-55144898D01*
X119306323Y-55133465D01*
X119351661Y-55129000D01*
X120188339Y-55129000D01*
X120233677Y-55133465D01*
X120233677Y-55133465D01*
G37*
G36*
X118183677Y-55133465D02*
X118221364Y-55144898D01*
X118256103Y-55163466D01*
X118286548Y-55188452D01*
X118311534Y-55218897D01*
X118330102Y-55253636D01*
X118341535Y-55291323D01*
X118346000Y-55336661D01*
X118346000Y-56423339D01*
X118341535Y-56468677D01*
X118330102Y-56506364D01*
X118311534Y-56541103D01*
X118286548Y-56571548D01*
X118256103Y-56596534D01*
X118221364Y-56615102D01*
X118183677Y-56626535D01*
X118138339Y-56631000D01*
X117301661Y-56631000D01*
X117256323Y-56626535D01*
X117218636Y-56615102D01*
X117183897Y-56596534D01*
X117153452Y-56571548D01*
X117128466Y-56541103D01*
X117109898Y-56506364D01*
X117098465Y-56468677D01*
X117094000Y-56423339D01*
X117094000Y-55336661D01*
X117098465Y-55291323D01*
X117109898Y-55253636D01*
X117128466Y-55218897D01*
X117153452Y-55188452D01*
X117183897Y-55163466D01*
X117218636Y-55144898D01*
X117256323Y-55133465D01*
X117301661Y-55129000D01*
X118138339Y-55129000D01*
X118183677Y-55133465D01*
X118183677Y-55133465D01*
G37*
G36*
X124433677Y-55133465D02*
X124471364Y-55144898D01*
X124506103Y-55163466D01*
X124536548Y-55188452D01*
X124561534Y-55218897D01*
X124580102Y-55253636D01*
X124591535Y-55291323D01*
X124596000Y-55336661D01*
X124596000Y-56423339D01*
X124591535Y-56468677D01*
X124580102Y-56506364D01*
X124561534Y-56541103D01*
X124536548Y-56571548D01*
X124506103Y-56596534D01*
X124471364Y-56615102D01*
X124433677Y-56626535D01*
X124388339Y-56631000D01*
X123551661Y-56631000D01*
X123506323Y-56626535D01*
X123468636Y-56615102D01*
X123433897Y-56596534D01*
X123403452Y-56571548D01*
X123378466Y-56541103D01*
X123359898Y-56506364D01*
X123348465Y-56468677D01*
X123344000Y-56423339D01*
X123344000Y-55336661D01*
X123348465Y-55291323D01*
X123359898Y-55253636D01*
X123378466Y-55218897D01*
X123403452Y-55188452D01*
X123433897Y-55163466D01*
X123468636Y-55144898D01*
X123506323Y-55133465D01*
X123551661Y-55129000D01*
X124388339Y-55129000D01*
X124433677Y-55133465D01*
X124433677Y-55133465D01*
G37*
G36*
X122383677Y-55133465D02*
X122421364Y-55144898D01*
X122456103Y-55163466D01*
X122486548Y-55188452D01*
X122511534Y-55218897D01*
X122530102Y-55253636D01*
X122541535Y-55291323D01*
X122546000Y-55336661D01*
X122546000Y-56423339D01*
X122541535Y-56468677D01*
X122530102Y-56506364D01*
X122511534Y-56541103D01*
X122486548Y-56571548D01*
X122456103Y-56596534D01*
X122421364Y-56615102D01*
X122383677Y-56626535D01*
X122338339Y-56631000D01*
X121501661Y-56631000D01*
X121456323Y-56626535D01*
X121418636Y-56615102D01*
X121383897Y-56596534D01*
X121353452Y-56571548D01*
X121328466Y-56541103D01*
X121309898Y-56506364D01*
X121298465Y-56468677D01*
X121294000Y-56423339D01*
X121294000Y-55336661D01*
X121298465Y-55291323D01*
X121309898Y-55253636D01*
X121328466Y-55218897D01*
X121353452Y-55188452D01*
X121383897Y-55163466D01*
X121418636Y-55144898D01*
X121456323Y-55133465D01*
X121501661Y-55129000D01*
X122338339Y-55129000D01*
X122383677Y-55133465D01*
X122383677Y-55133465D01*
G37*
G36*
X129650443Y-52445519D02*
X129716627Y-52452037D01*
X129824955Y-52484898D01*
X129886467Y-52503557D01*
X129970956Y-52548718D01*
X130042991Y-52587222D01*
X130050806Y-52593636D01*
X130180186Y-52699814D01*
X130259665Y-52796661D01*
X130292778Y-52837009D01*
X130292779Y-52837011D01*
X130376443Y-52993533D01*
X130376443Y-52993534D01*
X130427963Y-53163373D01*
X130445359Y-53340000D01*
X130427963Y-53516627D01*
X130393616Y-53629853D01*
X130376443Y-53686467D01*
X130366482Y-53705102D01*
X130292778Y-53842991D01*
X130269032Y-53871925D01*
X130180186Y-53980186D01*
X130101049Y-54045131D01*
X130042991Y-54092778D01*
X130042989Y-54092779D01*
X129886467Y-54176443D01*
X129829853Y-54193616D01*
X129716627Y-54227963D01*
X129650442Y-54234482D01*
X129584260Y-54241000D01*
X129495740Y-54241000D01*
X129429558Y-54234482D01*
X129363373Y-54227963D01*
X129250147Y-54193616D01*
X129193533Y-54176443D01*
X129037011Y-54092779D01*
X129037009Y-54092778D01*
X128978951Y-54045131D01*
X128899814Y-53980186D01*
X128810968Y-53871925D01*
X128787222Y-53842991D01*
X128713518Y-53705102D01*
X128703557Y-53686467D01*
X128686384Y-53629853D01*
X128652037Y-53516627D01*
X128634641Y-53340000D01*
X128652037Y-53163373D01*
X128703557Y-52993534D01*
X128703557Y-52993533D01*
X128787221Y-52837011D01*
X128787222Y-52837009D01*
X128820335Y-52796661D01*
X128899814Y-52699814D01*
X129029194Y-52593636D01*
X129037009Y-52587222D01*
X129109044Y-52548718D01*
X129193533Y-52503557D01*
X129255045Y-52484898D01*
X129363373Y-52452037D01*
X129429558Y-52445518D01*
X129495740Y-52439000D01*
X129584260Y-52439000D01*
X129650443Y-52445519D01*
X129650443Y-52445519D01*
G37*
G36*
X111870443Y-52445519D02*
X111936627Y-52452037D01*
X112044955Y-52484898D01*
X112106467Y-52503557D01*
X112190956Y-52548718D01*
X112262991Y-52587222D01*
X112270806Y-52593636D01*
X112400186Y-52699814D01*
X112479665Y-52796661D01*
X112512778Y-52837009D01*
X112512779Y-52837011D01*
X112596443Y-52993533D01*
X112596443Y-52993534D01*
X112647963Y-53163373D01*
X112665359Y-53340000D01*
X112647963Y-53516627D01*
X112613616Y-53629853D01*
X112596443Y-53686467D01*
X112586482Y-53705102D01*
X112512778Y-53842991D01*
X112489032Y-53871925D01*
X112400186Y-53980186D01*
X112321049Y-54045131D01*
X112262991Y-54092778D01*
X112262989Y-54092779D01*
X112106467Y-54176443D01*
X112049853Y-54193616D01*
X111936627Y-54227963D01*
X111870442Y-54234482D01*
X111804260Y-54241000D01*
X111715740Y-54241000D01*
X111649558Y-54234482D01*
X111583373Y-54227963D01*
X111470147Y-54193616D01*
X111413533Y-54176443D01*
X111257011Y-54092779D01*
X111257009Y-54092778D01*
X111198951Y-54045131D01*
X111119814Y-53980186D01*
X111030968Y-53871925D01*
X111007222Y-53842991D01*
X110933518Y-53705102D01*
X110923557Y-53686467D01*
X110906384Y-53629853D01*
X110872037Y-53516627D01*
X110854641Y-53340000D01*
X110872037Y-53163373D01*
X110923557Y-52993534D01*
X110923557Y-52993533D01*
X111007221Y-52837011D01*
X111007222Y-52837009D01*
X111040335Y-52796661D01*
X111119814Y-52699814D01*
X111249194Y-52593636D01*
X111257009Y-52587222D01*
X111329044Y-52548718D01*
X111413533Y-52503557D01*
X111475045Y-52484898D01*
X111583373Y-52452037D01*
X111649558Y-52445518D01*
X111715740Y-52439000D01*
X111804260Y-52439000D01*
X111870443Y-52445519D01*
X111870443Y-52445519D01*
G37*
G36*
X120233677Y-52593465D02*
X120271364Y-52604898D01*
X120306103Y-52623466D01*
X120336548Y-52648452D01*
X120361534Y-52678897D01*
X120380102Y-52713636D01*
X120391535Y-52751323D01*
X120396000Y-52796661D01*
X120396000Y-53883339D01*
X120391535Y-53928677D01*
X120380102Y-53966364D01*
X120361534Y-54001103D01*
X120336548Y-54031548D01*
X120306103Y-54056534D01*
X120271364Y-54075102D01*
X120233677Y-54086535D01*
X120188339Y-54091000D01*
X119351661Y-54091000D01*
X119306323Y-54086535D01*
X119268636Y-54075102D01*
X119233897Y-54056534D01*
X119203452Y-54031548D01*
X119178466Y-54001103D01*
X119159898Y-53966364D01*
X119148465Y-53928677D01*
X119144000Y-53883339D01*
X119144000Y-52796661D01*
X119148465Y-52751323D01*
X119159898Y-52713636D01*
X119178466Y-52678897D01*
X119203452Y-52648452D01*
X119233897Y-52623466D01*
X119268636Y-52604898D01*
X119306323Y-52593465D01*
X119351661Y-52589000D01*
X120188339Y-52589000D01*
X120233677Y-52593465D01*
X120233677Y-52593465D01*
G37*
G36*
X118183677Y-52593465D02*
X118221364Y-52604898D01*
X118256103Y-52623466D01*
X118286548Y-52648452D01*
X118311534Y-52678897D01*
X118330102Y-52713636D01*
X118341535Y-52751323D01*
X118346000Y-52796661D01*
X118346000Y-53883339D01*
X118341535Y-53928677D01*
X118330102Y-53966364D01*
X118311534Y-54001103D01*
X118286548Y-54031548D01*
X118256103Y-54056534D01*
X118221364Y-54075102D01*
X118183677Y-54086535D01*
X118138339Y-54091000D01*
X117301661Y-54091000D01*
X117256323Y-54086535D01*
X117218636Y-54075102D01*
X117183897Y-54056534D01*
X117153452Y-54031548D01*
X117128466Y-54001103D01*
X117109898Y-53966364D01*
X117098465Y-53928677D01*
X117094000Y-53883339D01*
X117094000Y-52796661D01*
X117098465Y-52751323D01*
X117109898Y-52713636D01*
X117128466Y-52678897D01*
X117153452Y-52648452D01*
X117183897Y-52623466D01*
X117218636Y-52604898D01*
X117256323Y-52593465D01*
X117301661Y-52589000D01*
X118138339Y-52589000D01*
X118183677Y-52593465D01*
X118183677Y-52593465D01*
G37*
G36*
X124413677Y-52473465D02*
X124451364Y-52484898D01*
X124486103Y-52503466D01*
X124516548Y-52528452D01*
X124541534Y-52558897D01*
X124560102Y-52593636D01*
X124571535Y-52631323D01*
X124576000Y-52676661D01*
X124576000Y-53513339D01*
X124571535Y-53558677D01*
X124560102Y-53596364D01*
X124541534Y-53631103D01*
X124516548Y-53661548D01*
X124486103Y-53686534D01*
X124451364Y-53705102D01*
X124413677Y-53716535D01*
X124368339Y-53721000D01*
X123281661Y-53721000D01*
X123236323Y-53716535D01*
X123198636Y-53705102D01*
X123163897Y-53686534D01*
X123133452Y-53661548D01*
X123108466Y-53631103D01*
X123089898Y-53596364D01*
X123078465Y-53558677D01*
X123074000Y-53513339D01*
X123074000Y-52676661D01*
X123078465Y-52631323D01*
X123089898Y-52593636D01*
X123108466Y-52558897D01*
X123133452Y-52528452D01*
X123163897Y-52503466D01*
X123198636Y-52484898D01*
X123236323Y-52473465D01*
X123281661Y-52469000D01*
X124368339Y-52469000D01*
X124413677Y-52473465D01*
X124413677Y-52473465D01*
G37*
G36*
X121976000Y-51711000D02*
X121224000Y-51711000D01*
X121224000Y-50049000D01*
X121976000Y-50049000D01*
X121976000Y-51711000D01*
X121976000Y-51711000D01*
G37*
G36*
X120076000Y-51711000D02*
X119324000Y-51711000D01*
X119324000Y-50049000D01*
X120076000Y-50049000D01*
X120076000Y-51711000D01*
X120076000Y-51711000D01*
G37*
G36*
X111870442Y-49905518D02*
X111936627Y-49912037D01*
X112049853Y-49946384D01*
X112106467Y-49963557D01*
X112245087Y-50037652D01*
X112262991Y-50047222D01*
X112265157Y-50049000D01*
X112400186Y-50159814D01*
X112483448Y-50261271D01*
X112512778Y-50297009D01*
X112512779Y-50297011D01*
X112596443Y-50453533D01*
X112604002Y-50478452D01*
X112647963Y-50623373D01*
X112665359Y-50800000D01*
X112647963Y-50976627D01*
X112613616Y-51089853D01*
X112596443Y-51146467D01*
X112522348Y-51285087D01*
X112512778Y-51302991D01*
X112483448Y-51338729D01*
X112400186Y-51440186D01*
X112316728Y-51508677D01*
X112262991Y-51552778D01*
X112262989Y-51552779D01*
X112106467Y-51636443D01*
X112060845Y-51650282D01*
X111936627Y-51687963D01*
X111870442Y-51694482D01*
X111804260Y-51701000D01*
X111715740Y-51701000D01*
X111649558Y-51694482D01*
X111583373Y-51687963D01*
X111459155Y-51650282D01*
X111413533Y-51636443D01*
X111257011Y-51552779D01*
X111257009Y-51552778D01*
X111203272Y-51508677D01*
X111119814Y-51440186D01*
X111036552Y-51338729D01*
X111007222Y-51302991D01*
X110997652Y-51285087D01*
X110923557Y-51146467D01*
X110906384Y-51089853D01*
X110872037Y-50976627D01*
X110854641Y-50800000D01*
X110872037Y-50623373D01*
X110915998Y-50478452D01*
X110923557Y-50453533D01*
X111007221Y-50297011D01*
X111007222Y-50297009D01*
X111036552Y-50261271D01*
X111119814Y-50159814D01*
X111254843Y-50049000D01*
X111257009Y-50047222D01*
X111274913Y-50037652D01*
X111413533Y-49963557D01*
X111470147Y-49946384D01*
X111583373Y-49912037D01*
X111649557Y-49905519D01*
X111715740Y-49899000D01*
X111804260Y-49899000D01*
X111870442Y-49905518D01*
X111870442Y-49905518D01*
G37*
G36*
X129650442Y-49905518D02*
X129716627Y-49912037D01*
X129829853Y-49946384D01*
X129886467Y-49963557D01*
X130025087Y-50037652D01*
X130042991Y-50047222D01*
X130045157Y-50049000D01*
X130180186Y-50159814D01*
X130263448Y-50261271D01*
X130292778Y-50297009D01*
X130292779Y-50297011D01*
X130376443Y-50453533D01*
X130384002Y-50478452D01*
X130427963Y-50623373D01*
X130445359Y-50800000D01*
X130427963Y-50976627D01*
X130393616Y-51089853D01*
X130376443Y-51146467D01*
X130302348Y-51285087D01*
X130292778Y-51302991D01*
X130263448Y-51338729D01*
X130180186Y-51440186D01*
X130096728Y-51508677D01*
X130042991Y-51552778D01*
X130042989Y-51552779D01*
X129886467Y-51636443D01*
X129840845Y-51650282D01*
X129716627Y-51687963D01*
X129650442Y-51694482D01*
X129584260Y-51701000D01*
X129495740Y-51701000D01*
X129429558Y-51694482D01*
X129363373Y-51687963D01*
X129239155Y-51650282D01*
X129193533Y-51636443D01*
X129037011Y-51552779D01*
X129037009Y-51552778D01*
X128983272Y-51508677D01*
X128899814Y-51440186D01*
X128816552Y-51338729D01*
X128787222Y-51302991D01*
X128777652Y-51285087D01*
X128703557Y-51146467D01*
X128686384Y-51089853D01*
X128652037Y-50976627D01*
X128634641Y-50800000D01*
X128652037Y-50623373D01*
X128695998Y-50478452D01*
X128703557Y-50453533D01*
X128787221Y-50297011D01*
X128787222Y-50297009D01*
X128816552Y-50261271D01*
X128899814Y-50159814D01*
X129034843Y-50049000D01*
X129037009Y-50047222D01*
X129054913Y-50037652D01*
X129193533Y-49963557D01*
X129250147Y-49946384D01*
X129363373Y-49912037D01*
X129429557Y-49905519D01*
X129495740Y-49899000D01*
X129584260Y-49899000D01*
X129650442Y-49905518D01*
X129650442Y-49905518D01*
G37*
G36*
X124413677Y-50423465D02*
X124451364Y-50434898D01*
X124486103Y-50453466D01*
X124516548Y-50478452D01*
X124541534Y-50508897D01*
X124560102Y-50543636D01*
X124571535Y-50581323D01*
X124576000Y-50626661D01*
X124576000Y-51463339D01*
X124571535Y-51508677D01*
X124560102Y-51546364D01*
X124541534Y-51581103D01*
X124516548Y-51611548D01*
X124486103Y-51636534D01*
X124451364Y-51655102D01*
X124413677Y-51666535D01*
X124368339Y-51671000D01*
X123281661Y-51671000D01*
X123236323Y-51666535D01*
X123198636Y-51655102D01*
X123163897Y-51636534D01*
X123133452Y-51611548D01*
X123108466Y-51581103D01*
X123089898Y-51546364D01*
X123078465Y-51508677D01*
X123074000Y-51463339D01*
X123074000Y-50626661D01*
X123078465Y-50581323D01*
X123089898Y-50543636D01*
X123108466Y-50508897D01*
X123133452Y-50478452D01*
X123163897Y-50453466D01*
X123198636Y-50434898D01*
X123236323Y-50423465D01*
X123281661Y-50419000D01*
X124368339Y-50419000D01*
X124413677Y-50423465D01*
X124413677Y-50423465D01*
G37*
G36*
X111870443Y-47365519D02*
X111936627Y-47372037D01*
X112049853Y-47406384D01*
X112106467Y-47423557D01*
X112245087Y-47497652D01*
X112262991Y-47507222D01*
X112298729Y-47536552D01*
X112400186Y-47619814D01*
X112483448Y-47721271D01*
X112512778Y-47757009D01*
X112512779Y-47757011D01*
X112596443Y-47913533D01*
X112600310Y-47926282D01*
X112647963Y-48083373D01*
X112665359Y-48260000D01*
X112647963Y-48436627D01*
X112613616Y-48549853D01*
X112596443Y-48606467D01*
X112522348Y-48745087D01*
X112512778Y-48762991D01*
X112483448Y-48798729D01*
X112400186Y-48900186D01*
X112298729Y-48983448D01*
X112262991Y-49012778D01*
X112262989Y-49012779D01*
X112106467Y-49096443D01*
X112049853Y-49113616D01*
X111936627Y-49147963D01*
X111870443Y-49154481D01*
X111804260Y-49161000D01*
X111715740Y-49161000D01*
X111649557Y-49154481D01*
X111583373Y-49147963D01*
X111470147Y-49113616D01*
X111413533Y-49096443D01*
X111257011Y-49012779D01*
X111257009Y-49012778D01*
X111221271Y-48983448D01*
X111119814Y-48900186D01*
X111036552Y-48798729D01*
X111007222Y-48762991D01*
X110997652Y-48745087D01*
X110923557Y-48606467D01*
X110906384Y-48549853D01*
X110872037Y-48436627D01*
X110854641Y-48260000D01*
X110872037Y-48083373D01*
X110919690Y-47926282D01*
X110923557Y-47913533D01*
X111007221Y-47757011D01*
X111007222Y-47757009D01*
X111036552Y-47721271D01*
X111119814Y-47619814D01*
X111221271Y-47536552D01*
X111257009Y-47507222D01*
X111274913Y-47497652D01*
X111413533Y-47423557D01*
X111470147Y-47406384D01*
X111583373Y-47372037D01*
X111649557Y-47365519D01*
X111715740Y-47359000D01*
X111804260Y-47359000D01*
X111870443Y-47365519D01*
X111870443Y-47365519D01*
G37*
G36*
X129650443Y-47365519D02*
X129716627Y-47372037D01*
X129829853Y-47406384D01*
X129886467Y-47423557D01*
X130025087Y-47497652D01*
X130042991Y-47507222D01*
X130078729Y-47536552D01*
X130180186Y-47619814D01*
X130263448Y-47721271D01*
X130292778Y-47757009D01*
X130292779Y-47757011D01*
X130376443Y-47913533D01*
X130380310Y-47926282D01*
X130427963Y-48083373D01*
X130445359Y-48260000D01*
X130427963Y-48436627D01*
X130393616Y-48549853D01*
X130376443Y-48606467D01*
X130302348Y-48745087D01*
X130292778Y-48762991D01*
X130263448Y-48798729D01*
X130180186Y-48900186D01*
X130078729Y-48983448D01*
X130042991Y-49012778D01*
X130042989Y-49012779D01*
X129886467Y-49096443D01*
X129829853Y-49113616D01*
X129716627Y-49147963D01*
X129650443Y-49154481D01*
X129584260Y-49161000D01*
X129495740Y-49161000D01*
X129429557Y-49154481D01*
X129363373Y-49147963D01*
X129250147Y-49113616D01*
X129193533Y-49096443D01*
X129037011Y-49012779D01*
X129037009Y-49012778D01*
X129001271Y-48983448D01*
X128899814Y-48900186D01*
X128816552Y-48798729D01*
X128787222Y-48762991D01*
X128777652Y-48745087D01*
X128703557Y-48606467D01*
X128686384Y-48549853D01*
X128652037Y-48436627D01*
X128634641Y-48260000D01*
X128652037Y-48083373D01*
X128699690Y-47926282D01*
X128703557Y-47913533D01*
X128787221Y-47757011D01*
X128787222Y-47757009D01*
X128816552Y-47721271D01*
X128899814Y-47619814D01*
X129001271Y-47536552D01*
X129037009Y-47507222D01*
X129054913Y-47497652D01*
X129193533Y-47423557D01*
X129250147Y-47406384D01*
X129363373Y-47372037D01*
X129429557Y-47365519D01*
X129495740Y-47359000D01*
X129584260Y-47359000D01*
X129650443Y-47365519D01*
X129650443Y-47365519D01*
G37*
G36*
X121976000Y-49011000D02*
X119324000Y-49011000D01*
X119324000Y-47349000D01*
X121976000Y-47349000D01*
X121976000Y-49011000D01*
X121976000Y-49011000D01*
G37*
G36*
X116793677Y-46758465D02*
X116831364Y-46769898D01*
X116866103Y-46788466D01*
X116896548Y-46813452D01*
X116921534Y-46843897D01*
X116940102Y-46878636D01*
X116951535Y-46916323D01*
X116956000Y-46961661D01*
X116956000Y-47798339D01*
X116951535Y-47843677D01*
X116940102Y-47881364D01*
X116921534Y-47916103D01*
X116896548Y-47946548D01*
X116866103Y-47971534D01*
X116831364Y-47990102D01*
X116793677Y-48001535D01*
X116748339Y-48006000D01*
X115661661Y-48006000D01*
X115616323Y-48001535D01*
X115578636Y-47990102D01*
X115543897Y-47971534D01*
X115513452Y-47946548D01*
X115488466Y-47916103D01*
X115469898Y-47881364D01*
X115458465Y-47843677D01*
X115454000Y-47798339D01*
X115454000Y-46961661D01*
X115458465Y-46916323D01*
X115469898Y-46878636D01*
X115488466Y-46843897D01*
X115513452Y-46813452D01*
X115543897Y-46788466D01*
X115578636Y-46769898D01*
X115616323Y-46758465D01*
X115661661Y-46754000D01*
X116748339Y-46754000D01*
X116793677Y-46758465D01*
X116793677Y-46758465D01*
G37*
G36*
X129644792Y-44824962D02*
X129716627Y-44832037D01*
X129829653Y-44866323D01*
X129886467Y-44883557D01*
X129969070Y-44927710D01*
X130042991Y-44967222D01*
X130057921Y-44979475D01*
X130180186Y-45079814D01*
X130240618Y-45153452D01*
X130292778Y-45217009D01*
X130292779Y-45217011D01*
X130376443Y-45373533D01*
X130376443Y-45373534D01*
X130427963Y-45543373D01*
X130445359Y-45720000D01*
X130427963Y-45896627D01*
X130416237Y-45935282D01*
X130376443Y-46066467D01*
X130313792Y-46183677D01*
X130292778Y-46222991D01*
X130265603Y-46256103D01*
X130180186Y-46360186D01*
X130078729Y-46443448D01*
X130042991Y-46472778D01*
X130042989Y-46472779D01*
X129886467Y-46556443D01*
X129829853Y-46573616D01*
X129716627Y-46607963D01*
X129650443Y-46614481D01*
X129584260Y-46621000D01*
X129495740Y-46621000D01*
X129429558Y-46614482D01*
X129363373Y-46607963D01*
X129250147Y-46573616D01*
X129193533Y-46556443D01*
X129037011Y-46472779D01*
X129037009Y-46472778D01*
X129001271Y-46443448D01*
X128899814Y-46360186D01*
X128814397Y-46256103D01*
X128787222Y-46222991D01*
X128766208Y-46183677D01*
X128703557Y-46066467D01*
X128663763Y-45935282D01*
X128652037Y-45896627D01*
X128634641Y-45720000D01*
X128652037Y-45543373D01*
X128703557Y-45373534D01*
X128703557Y-45373533D01*
X128787221Y-45217011D01*
X128787222Y-45217009D01*
X128839382Y-45153452D01*
X128899814Y-45079814D01*
X129022079Y-44979475D01*
X129037009Y-44967222D01*
X129110930Y-44927710D01*
X129193533Y-44883557D01*
X129250347Y-44866323D01*
X129363373Y-44832037D01*
X129435208Y-44824962D01*
X129495740Y-44819000D01*
X129584260Y-44819000D01*
X129644792Y-44824962D01*
X129644792Y-44824962D01*
G37*
G36*
X111864792Y-44824962D02*
X111936627Y-44832037D01*
X112049653Y-44866323D01*
X112106467Y-44883557D01*
X112189070Y-44927710D01*
X112262991Y-44967222D01*
X112277921Y-44979475D01*
X112400186Y-45079814D01*
X112460618Y-45153452D01*
X112512778Y-45217009D01*
X112512779Y-45217011D01*
X112596443Y-45373533D01*
X112596443Y-45373534D01*
X112647963Y-45543373D01*
X112665359Y-45720000D01*
X112647963Y-45896627D01*
X112636237Y-45935282D01*
X112596443Y-46066467D01*
X112533792Y-46183677D01*
X112512778Y-46222991D01*
X112485603Y-46256103D01*
X112400186Y-46360186D01*
X112298729Y-46443448D01*
X112262991Y-46472778D01*
X112262989Y-46472779D01*
X112106467Y-46556443D01*
X112049853Y-46573616D01*
X111936627Y-46607963D01*
X111870443Y-46614481D01*
X111804260Y-46621000D01*
X111715740Y-46621000D01*
X111649558Y-46614482D01*
X111583373Y-46607963D01*
X111470147Y-46573616D01*
X111413533Y-46556443D01*
X111257011Y-46472779D01*
X111257009Y-46472778D01*
X111221271Y-46443448D01*
X111119814Y-46360186D01*
X111034397Y-46256103D01*
X111007222Y-46222991D01*
X110986208Y-46183677D01*
X110923557Y-46066467D01*
X110883763Y-45935282D01*
X110872037Y-45896627D01*
X110854641Y-45720000D01*
X110872037Y-45543373D01*
X110923557Y-45373534D01*
X110923557Y-45373533D01*
X111007221Y-45217011D01*
X111007222Y-45217009D01*
X111059382Y-45153452D01*
X111119814Y-45079814D01*
X111242079Y-44979475D01*
X111257009Y-44967222D01*
X111330930Y-44927710D01*
X111413533Y-44883557D01*
X111470347Y-44866323D01*
X111583373Y-44832037D01*
X111655208Y-44824962D01*
X111715740Y-44819000D01*
X111804260Y-44819000D01*
X111864792Y-44824962D01*
X111864792Y-44824962D01*
G37*
G36*
X125048677Y-45098465D02*
X125086364Y-45109898D01*
X125121103Y-45128466D01*
X125151548Y-45153452D01*
X125176534Y-45183897D01*
X125195102Y-45218636D01*
X125206535Y-45256323D01*
X125211000Y-45301661D01*
X125211000Y-46138339D01*
X125206535Y-46183677D01*
X125195102Y-46221364D01*
X125176534Y-46256103D01*
X125151548Y-46286548D01*
X125121103Y-46311534D01*
X125086364Y-46330102D01*
X125048677Y-46341535D01*
X125003339Y-46346000D01*
X123916661Y-46346000D01*
X123871323Y-46341535D01*
X123833636Y-46330102D01*
X123798897Y-46311534D01*
X123768452Y-46286548D01*
X123743466Y-46256103D01*
X123724898Y-46221364D01*
X123713465Y-46183677D01*
X123709000Y-46138339D01*
X123709000Y-45301661D01*
X123713465Y-45256323D01*
X123724898Y-45218636D01*
X123743466Y-45183897D01*
X123768452Y-45153452D01*
X123798897Y-45128466D01*
X123833636Y-45109898D01*
X123871323Y-45098465D01*
X123916661Y-45094000D01*
X125003339Y-45094000D01*
X125048677Y-45098465D01*
X125048677Y-45098465D01*
G37*
G36*
X127588677Y-45098465D02*
X127626364Y-45109898D01*
X127661103Y-45128466D01*
X127691548Y-45153452D01*
X127716534Y-45183897D01*
X127735102Y-45218636D01*
X127746535Y-45256323D01*
X127751000Y-45301661D01*
X127751000Y-46138339D01*
X127746535Y-46183677D01*
X127735102Y-46221364D01*
X127716534Y-46256103D01*
X127691548Y-46286548D01*
X127661103Y-46311534D01*
X127626364Y-46330102D01*
X127588677Y-46341535D01*
X127543339Y-46346000D01*
X126456661Y-46346000D01*
X126411323Y-46341535D01*
X126373636Y-46330102D01*
X126338897Y-46311534D01*
X126308452Y-46286548D01*
X126283466Y-46256103D01*
X126264898Y-46221364D01*
X126253465Y-46183677D01*
X126249000Y-46138339D01*
X126249000Y-45301661D01*
X126253465Y-45256323D01*
X126264898Y-45218636D01*
X126283466Y-45183897D01*
X126308452Y-45153452D01*
X126338897Y-45128466D01*
X126373636Y-45109898D01*
X126411323Y-45098465D01*
X126456661Y-45094000D01*
X127543339Y-45094000D01*
X127588677Y-45098465D01*
X127588677Y-45098465D01*
G37*
G36*
X116793677Y-44708465D02*
X116831364Y-44719898D01*
X116866103Y-44738466D01*
X116896548Y-44763452D01*
X116921534Y-44793897D01*
X116940102Y-44828636D01*
X116951535Y-44866323D01*
X116956000Y-44911661D01*
X116956000Y-45748339D01*
X116951535Y-45793677D01*
X116940102Y-45831364D01*
X116921534Y-45866103D01*
X116896548Y-45896548D01*
X116866103Y-45921534D01*
X116831364Y-45940102D01*
X116793677Y-45951535D01*
X116748339Y-45956000D01*
X115661661Y-45956000D01*
X115616323Y-45951535D01*
X115578636Y-45940102D01*
X115543897Y-45921534D01*
X115513452Y-45896548D01*
X115488466Y-45866103D01*
X115469898Y-45831364D01*
X115458465Y-45793677D01*
X115454000Y-45748339D01*
X115454000Y-44911661D01*
X115458465Y-44866323D01*
X115469898Y-44828636D01*
X115488466Y-44793897D01*
X115513452Y-44763452D01*
X115543897Y-44738466D01*
X115578636Y-44719898D01*
X115616323Y-44708465D01*
X115661661Y-44704000D01*
X116748339Y-44704000D01*
X116793677Y-44708465D01*
X116793677Y-44708465D01*
G37*
G36*
X122681116Y-44896345D02*
X122762971Y-44930250D01*
X122818303Y-44967222D01*
X122836641Y-44979475D01*
X122899285Y-45042119D01*
X122899287Y-45042122D01*
X122948510Y-45115789D01*
X122982415Y-45197644D01*
X122999700Y-45284541D01*
X122999700Y-45373139D01*
X122982415Y-45460036D01*
X122948510Y-45541891D01*
X122947518Y-45543375D01*
X122899285Y-45615561D01*
X122836641Y-45678205D01*
X122836638Y-45678207D01*
X122762971Y-45727430D01*
X122681116Y-45761335D01*
X122594219Y-45778620D01*
X122505621Y-45778620D01*
X122418724Y-45761335D01*
X122336869Y-45727430D01*
X122263202Y-45678207D01*
X122263199Y-45678205D01*
X122200555Y-45615561D01*
X122152322Y-45543375D01*
X122151330Y-45541891D01*
X122117425Y-45460036D01*
X122100140Y-45373139D01*
X122100140Y-45284541D01*
X122117425Y-45197644D01*
X122151330Y-45115789D01*
X122200553Y-45042122D01*
X122200555Y-45042119D01*
X122263199Y-44979475D01*
X122281537Y-44967222D01*
X122336869Y-44930250D01*
X122418724Y-44896345D01*
X122505621Y-44879060D01*
X122594219Y-44879060D01*
X122681116Y-44896345D01*
X122681116Y-44896345D01*
G37*
G36*
X118883816Y-44893805D02*
X118965671Y-44927710D01*
X119038201Y-44976173D01*
X119039341Y-44976935D01*
X119101985Y-45039579D01*
X119101987Y-45039582D01*
X119151210Y-45113249D01*
X119185115Y-45195104D01*
X119202400Y-45282001D01*
X119202400Y-45370599D01*
X119185115Y-45457496D01*
X119151210Y-45539351D01*
X119148521Y-45543375D01*
X119101985Y-45613021D01*
X119039341Y-45675665D01*
X119039338Y-45675667D01*
X118965671Y-45724890D01*
X118909059Y-45748339D01*
X118883816Y-45758795D01*
X118796919Y-45776080D01*
X118708321Y-45776080D01*
X118621424Y-45758795D01*
X118596181Y-45748339D01*
X118539569Y-45724890D01*
X118465902Y-45675667D01*
X118465899Y-45675665D01*
X118403255Y-45613021D01*
X118356719Y-45543375D01*
X118354030Y-45539351D01*
X118320125Y-45457496D01*
X118302840Y-45370599D01*
X118302840Y-45282001D01*
X118320125Y-45195104D01*
X118354030Y-45113249D01*
X118403253Y-45039582D01*
X118403255Y-45039579D01*
X118465899Y-44976935D01*
X118467039Y-44976173D01*
X118539569Y-44927710D01*
X118621424Y-44893805D01*
X118708321Y-44876520D01*
X118796919Y-44876520D01*
X118883816Y-44893805D01*
X118883816Y-44893805D01*
G37*
G36*
X125048677Y-43048465D02*
X125086364Y-43059898D01*
X125121103Y-43078466D01*
X125151548Y-43103452D01*
X125176534Y-43133897D01*
X125195102Y-43168636D01*
X125206535Y-43206323D01*
X125211000Y-43251661D01*
X125211000Y-44088339D01*
X125206535Y-44133677D01*
X125195102Y-44171364D01*
X125176534Y-44206103D01*
X125151548Y-44236548D01*
X125121103Y-44261534D01*
X125086364Y-44280102D01*
X125048677Y-44291535D01*
X125003339Y-44296000D01*
X123916661Y-44296000D01*
X123871323Y-44291535D01*
X123833636Y-44280102D01*
X123798897Y-44261534D01*
X123768452Y-44236548D01*
X123743466Y-44206103D01*
X123724898Y-44171364D01*
X123713465Y-44133677D01*
X123709000Y-44088339D01*
X123709000Y-43251661D01*
X123713465Y-43206323D01*
X123724898Y-43168636D01*
X123743466Y-43133897D01*
X123768452Y-43103452D01*
X123798897Y-43078466D01*
X123833636Y-43059898D01*
X123871323Y-43048465D01*
X123916661Y-43044000D01*
X125003339Y-43044000D01*
X125048677Y-43048465D01*
X125048677Y-43048465D01*
G37*
G36*
X127588677Y-43048465D02*
X127626364Y-43059898D01*
X127661103Y-43078466D01*
X127691548Y-43103452D01*
X127716534Y-43133897D01*
X127735102Y-43168636D01*
X127746535Y-43206323D01*
X127751000Y-43251661D01*
X127751000Y-44088339D01*
X127746535Y-44133677D01*
X127735102Y-44171364D01*
X127716534Y-44206103D01*
X127691548Y-44236548D01*
X127661103Y-44261534D01*
X127626364Y-44280102D01*
X127588677Y-44291535D01*
X127543339Y-44296000D01*
X126456661Y-44296000D01*
X126411323Y-44291535D01*
X126373636Y-44280102D01*
X126338897Y-44261534D01*
X126308452Y-44236548D01*
X126283466Y-44206103D01*
X126264898Y-44171364D01*
X126253465Y-44133677D01*
X126249000Y-44088339D01*
X126249000Y-43251661D01*
X126253465Y-43206323D01*
X126264898Y-43168636D01*
X126283466Y-43133897D01*
X126308452Y-43103452D01*
X126338897Y-43078466D01*
X126373636Y-43059898D01*
X126411323Y-43048465D01*
X126456661Y-43044000D01*
X127543339Y-43044000D01*
X127588677Y-43048465D01*
X127588677Y-43048465D01*
G37*
G36*
X112661000Y-44081000D02*
X110859000Y-44081000D01*
X110859000Y-42279000D01*
X112661000Y-42279000D01*
X112661000Y-44081000D01*
X112661000Y-44081000D01*
G37*
G36*
X129650442Y-42285518D02*
X129716627Y-42292037D01*
X129829853Y-42326384D01*
X129886467Y-42343557D01*
X130025087Y-42417652D01*
X130042991Y-42427222D01*
X130051530Y-42434230D01*
X130180186Y-42539814D01*
X130259665Y-42636661D01*
X130292778Y-42677009D01*
X130292779Y-42677011D01*
X130376443Y-42833533D01*
X130376443Y-42833534D01*
X130427963Y-43003373D01*
X130445359Y-43180000D01*
X130427963Y-43356627D01*
X130393616Y-43469853D01*
X130376443Y-43526467D01*
X130305694Y-43658827D01*
X130292778Y-43682991D01*
X130269032Y-43711925D01*
X130180186Y-43820186D01*
X130101049Y-43885131D01*
X130042991Y-43932778D01*
X130042989Y-43932779D01*
X129886467Y-44016443D01*
X129829853Y-44033616D01*
X129716627Y-44067963D01*
X129650443Y-44074481D01*
X129584260Y-44081000D01*
X129495740Y-44081000D01*
X129429557Y-44074481D01*
X129363373Y-44067963D01*
X129250147Y-44033616D01*
X129193533Y-44016443D01*
X129037011Y-43932779D01*
X129037009Y-43932778D01*
X128978951Y-43885131D01*
X128899814Y-43820186D01*
X128810968Y-43711925D01*
X128787222Y-43682991D01*
X128774306Y-43658827D01*
X128703557Y-43526467D01*
X128686384Y-43469853D01*
X128652037Y-43356627D01*
X128634641Y-43180000D01*
X128652037Y-43003373D01*
X128703557Y-42833534D01*
X128703557Y-42833533D01*
X128787221Y-42677011D01*
X128787222Y-42677009D01*
X128820335Y-42636661D01*
X128899814Y-42539814D01*
X129028470Y-42434230D01*
X129037009Y-42427222D01*
X129054913Y-42417652D01*
X129193533Y-42343557D01*
X129250147Y-42326384D01*
X129363373Y-42292037D01*
X129429557Y-42285519D01*
X129495740Y-42279000D01*
X129584260Y-42279000D01*
X129650442Y-42285518D01*
X129650442Y-42285518D01*
G37*
G36*
X115643677Y-42433465D02*
X115681364Y-42444898D01*
X115716103Y-42463466D01*
X115746548Y-42488452D01*
X115771534Y-42518897D01*
X115790102Y-42553636D01*
X115801535Y-42591323D01*
X115806000Y-42636661D01*
X115806000Y-43723339D01*
X115801535Y-43768677D01*
X115790102Y-43806364D01*
X115771534Y-43841103D01*
X115746548Y-43871548D01*
X115716103Y-43896534D01*
X115681364Y-43915102D01*
X115643677Y-43926535D01*
X115598339Y-43931000D01*
X114761661Y-43931000D01*
X114716323Y-43926535D01*
X114678636Y-43915102D01*
X114643897Y-43896534D01*
X114613452Y-43871548D01*
X114588466Y-43841103D01*
X114569898Y-43806364D01*
X114558465Y-43768677D01*
X114554000Y-43723339D01*
X114554000Y-42636661D01*
X114558465Y-42591323D01*
X114569898Y-42553636D01*
X114588466Y-42518897D01*
X114613452Y-42488452D01*
X114643897Y-42463466D01*
X114678636Y-42444898D01*
X114716323Y-42433465D01*
X114761661Y-42429000D01*
X115598339Y-42429000D01*
X115643677Y-42433465D01*
X115643677Y-42433465D01*
G37*
G36*
X117693677Y-42433465D02*
X117731364Y-42444898D01*
X117766103Y-42463466D01*
X117796548Y-42488452D01*
X117821534Y-42518897D01*
X117840102Y-42553636D01*
X117851535Y-42591323D01*
X117856000Y-42636661D01*
X117856000Y-43723339D01*
X117851535Y-43768677D01*
X117840102Y-43806364D01*
X117821534Y-43841103D01*
X117796548Y-43871548D01*
X117766103Y-43896534D01*
X117731364Y-43915102D01*
X117693677Y-43926535D01*
X117648339Y-43931000D01*
X116811661Y-43931000D01*
X116766323Y-43926535D01*
X116728636Y-43915102D01*
X116693897Y-43896534D01*
X116663452Y-43871548D01*
X116638466Y-43841103D01*
X116619898Y-43806364D01*
X116608465Y-43768677D01*
X116604000Y-43723339D01*
X116604000Y-42636661D01*
X116608465Y-42591323D01*
X116619898Y-42553636D01*
X116638466Y-42518897D01*
X116663452Y-42488452D01*
X116693897Y-42463466D01*
X116728636Y-42444898D01*
X116766323Y-42433465D01*
X116811661Y-42429000D01*
X117648339Y-42429000D01*
X117693677Y-42433465D01*
X117693677Y-42433465D01*
G37*
M02*
