G04 #@! TF.GenerationSoftware,KiCad,Pcbnew,5.0.2-bee76a0~70~ubuntu16.04.1*
G04 #@! TF.CreationDate,2019-07-30T14:23:51+02:00*
G04 #@! TF.ProjectId,hw-BOB-ATSAMD11D,68772d42-4f42-42d4-9154-53414d443131,rev?*
G04 #@! TF.SameCoordinates,Original*
G04 #@! TF.FileFunction,Copper,L2,Bot*
G04 #@! TF.FilePolarity,Positive*
%FSLAX46Y46*%
G04 Gerber Fmt 4.6, Leading zero omitted, Abs format (unit mm)*
G04 Created by KiCad (PCBNEW 5.0.2-bee76a0~70~ubuntu16.04.1) date Tue 30 Jul 2019 02:23:51 PM CEST*
%MOMM*%
%LPD*%
G01*
G04 APERTURE LIST*
G04 #@! TA.AperFunction,Conductor*
%ADD10C,0.100000*%
G04 #@! TD*
G04 #@! TA.AperFunction,SMDPad,CuDef*
%ADD11C,1.150000*%
G04 #@! TD*
G04 #@! TA.AperFunction,SMDPad,CuDef*
%ADD12R,0.650000X1.560000*%
G04 #@! TD*
G04 #@! TA.AperFunction,ComponentPad*
%ADD13R,1.700000X1.700000*%
G04 #@! TD*
G04 #@! TA.AperFunction,ComponentPad*
%ADD14O,1.700000X1.700000*%
G04 #@! TD*
G04 #@! TA.AperFunction,ComponentPad*
%ADD15C,1.524000*%
G04 #@! TD*
G04 #@! TA.AperFunction,ComponentPad*
%ADD16C,0.797560*%
G04 #@! TD*
G04 #@! TA.AperFunction,ViaPad*
%ADD17C,0.800000*%
G04 #@! TD*
G04 #@! TA.AperFunction,Conductor*
%ADD18C,0.500000*%
G04 #@! TD*
G04 #@! TA.AperFunction,Conductor*
%ADD19C,0.300000*%
G04 #@! TD*
G04 #@! TA.AperFunction,Conductor*
%ADD20C,0.254000*%
G04 #@! TD*
G04 APERTURE END LIST*
D10*
G04 #@! TO.N,GND*
G04 #@! TO.C,C1*
G36*
X124934505Y-43096204D02*
X124958773Y-43099804D01*
X124982572Y-43105765D01*
X125005671Y-43114030D01*
X125027850Y-43124520D01*
X125048893Y-43137132D01*
X125068599Y-43151747D01*
X125086777Y-43168223D01*
X125103253Y-43186401D01*
X125117868Y-43206107D01*
X125130480Y-43227150D01*
X125140970Y-43249329D01*
X125149235Y-43272428D01*
X125155196Y-43296227D01*
X125158796Y-43320495D01*
X125160000Y-43344999D01*
X125160000Y-43995001D01*
X125158796Y-44019505D01*
X125155196Y-44043773D01*
X125149235Y-44067572D01*
X125140970Y-44090671D01*
X125130480Y-44112850D01*
X125117868Y-44133893D01*
X125103253Y-44153599D01*
X125086777Y-44171777D01*
X125068599Y-44188253D01*
X125048893Y-44202868D01*
X125027850Y-44215480D01*
X125005671Y-44225970D01*
X124982572Y-44234235D01*
X124958773Y-44240196D01*
X124934505Y-44243796D01*
X124910001Y-44245000D01*
X124009999Y-44245000D01*
X123985495Y-44243796D01*
X123961227Y-44240196D01*
X123937428Y-44234235D01*
X123914329Y-44225970D01*
X123892150Y-44215480D01*
X123871107Y-44202868D01*
X123851401Y-44188253D01*
X123833223Y-44171777D01*
X123816747Y-44153599D01*
X123802132Y-44133893D01*
X123789520Y-44112850D01*
X123779030Y-44090671D01*
X123770765Y-44067572D01*
X123764804Y-44043773D01*
X123761204Y-44019505D01*
X123760000Y-43995001D01*
X123760000Y-43344999D01*
X123761204Y-43320495D01*
X123764804Y-43296227D01*
X123770765Y-43272428D01*
X123779030Y-43249329D01*
X123789520Y-43227150D01*
X123802132Y-43206107D01*
X123816747Y-43186401D01*
X123833223Y-43168223D01*
X123851401Y-43151747D01*
X123871107Y-43137132D01*
X123892150Y-43124520D01*
X123914329Y-43114030D01*
X123937428Y-43105765D01*
X123961227Y-43099804D01*
X123985495Y-43096204D01*
X124009999Y-43095000D01*
X124910001Y-43095000D01*
X124934505Y-43096204D01*
X124934505Y-43096204D01*
G37*
D11*
G04 #@! TD*
G04 #@! TO.P,C1,1*
G04 #@! TO.N,GND*
X124460000Y-43670000D03*
D10*
G04 #@! TO.N,+5V*
G04 #@! TO.C,C1*
G36*
X124934505Y-45146204D02*
X124958773Y-45149804D01*
X124982572Y-45155765D01*
X125005671Y-45164030D01*
X125027850Y-45174520D01*
X125048893Y-45187132D01*
X125068599Y-45201747D01*
X125086777Y-45218223D01*
X125103253Y-45236401D01*
X125117868Y-45256107D01*
X125130480Y-45277150D01*
X125140970Y-45299329D01*
X125149235Y-45322428D01*
X125155196Y-45346227D01*
X125158796Y-45370495D01*
X125160000Y-45394999D01*
X125160000Y-46045001D01*
X125158796Y-46069505D01*
X125155196Y-46093773D01*
X125149235Y-46117572D01*
X125140970Y-46140671D01*
X125130480Y-46162850D01*
X125117868Y-46183893D01*
X125103253Y-46203599D01*
X125086777Y-46221777D01*
X125068599Y-46238253D01*
X125048893Y-46252868D01*
X125027850Y-46265480D01*
X125005671Y-46275970D01*
X124982572Y-46284235D01*
X124958773Y-46290196D01*
X124934505Y-46293796D01*
X124910001Y-46295000D01*
X124009999Y-46295000D01*
X123985495Y-46293796D01*
X123961227Y-46290196D01*
X123937428Y-46284235D01*
X123914329Y-46275970D01*
X123892150Y-46265480D01*
X123871107Y-46252868D01*
X123851401Y-46238253D01*
X123833223Y-46221777D01*
X123816747Y-46203599D01*
X123802132Y-46183893D01*
X123789520Y-46162850D01*
X123779030Y-46140671D01*
X123770765Y-46117572D01*
X123764804Y-46093773D01*
X123761204Y-46069505D01*
X123760000Y-46045001D01*
X123760000Y-45394999D01*
X123761204Y-45370495D01*
X123764804Y-45346227D01*
X123770765Y-45322428D01*
X123779030Y-45299329D01*
X123789520Y-45277150D01*
X123802132Y-45256107D01*
X123816747Y-45236401D01*
X123833223Y-45218223D01*
X123851401Y-45201747D01*
X123871107Y-45187132D01*
X123892150Y-45174520D01*
X123914329Y-45164030D01*
X123937428Y-45155765D01*
X123961227Y-45149804D01*
X123985495Y-45146204D01*
X124009999Y-45145000D01*
X124910001Y-45145000D01*
X124934505Y-45146204D01*
X124934505Y-45146204D01*
G37*
D11*
G04 #@! TD*
G04 #@! TO.P,C1,2*
G04 #@! TO.N,+5V*
X124460000Y-45720000D03*
D10*
G04 #@! TO.N,GND*
G04 #@! TO.C,C2*
G36*
X115529505Y-42481204D02*
X115553773Y-42484804D01*
X115577572Y-42490765D01*
X115600671Y-42499030D01*
X115622850Y-42509520D01*
X115643893Y-42522132D01*
X115663599Y-42536747D01*
X115681777Y-42553223D01*
X115698253Y-42571401D01*
X115712868Y-42591107D01*
X115725480Y-42612150D01*
X115735970Y-42634329D01*
X115744235Y-42657428D01*
X115750196Y-42681227D01*
X115753796Y-42705495D01*
X115755000Y-42729999D01*
X115755000Y-43630001D01*
X115753796Y-43654505D01*
X115750196Y-43678773D01*
X115744235Y-43702572D01*
X115735970Y-43725671D01*
X115725480Y-43747850D01*
X115712868Y-43768893D01*
X115698253Y-43788599D01*
X115681777Y-43806777D01*
X115663599Y-43823253D01*
X115643893Y-43837868D01*
X115622850Y-43850480D01*
X115600671Y-43860970D01*
X115577572Y-43869235D01*
X115553773Y-43875196D01*
X115529505Y-43878796D01*
X115505001Y-43880000D01*
X114854999Y-43880000D01*
X114830495Y-43878796D01*
X114806227Y-43875196D01*
X114782428Y-43869235D01*
X114759329Y-43860970D01*
X114737150Y-43850480D01*
X114716107Y-43837868D01*
X114696401Y-43823253D01*
X114678223Y-43806777D01*
X114661747Y-43788599D01*
X114647132Y-43768893D01*
X114634520Y-43747850D01*
X114624030Y-43725671D01*
X114615765Y-43702572D01*
X114609804Y-43678773D01*
X114606204Y-43654505D01*
X114605000Y-43630001D01*
X114605000Y-42729999D01*
X114606204Y-42705495D01*
X114609804Y-42681227D01*
X114615765Y-42657428D01*
X114624030Y-42634329D01*
X114634520Y-42612150D01*
X114647132Y-42591107D01*
X114661747Y-42571401D01*
X114678223Y-42553223D01*
X114696401Y-42536747D01*
X114716107Y-42522132D01*
X114737150Y-42509520D01*
X114759329Y-42499030D01*
X114782428Y-42490765D01*
X114806227Y-42484804D01*
X114830495Y-42481204D01*
X114854999Y-42480000D01*
X115505001Y-42480000D01*
X115529505Y-42481204D01*
X115529505Y-42481204D01*
G37*
D11*
G04 #@! TD*
G04 #@! TO.P,C2,2*
G04 #@! TO.N,GND*
X115180000Y-43180000D03*
D10*
G04 #@! TO.N,Net-(C2-Pad1)*
G04 #@! TO.C,C2*
G36*
X117579505Y-42481204D02*
X117603773Y-42484804D01*
X117627572Y-42490765D01*
X117650671Y-42499030D01*
X117672850Y-42509520D01*
X117693893Y-42522132D01*
X117713599Y-42536747D01*
X117731777Y-42553223D01*
X117748253Y-42571401D01*
X117762868Y-42591107D01*
X117775480Y-42612150D01*
X117785970Y-42634329D01*
X117794235Y-42657428D01*
X117800196Y-42681227D01*
X117803796Y-42705495D01*
X117805000Y-42729999D01*
X117805000Y-43630001D01*
X117803796Y-43654505D01*
X117800196Y-43678773D01*
X117794235Y-43702572D01*
X117785970Y-43725671D01*
X117775480Y-43747850D01*
X117762868Y-43768893D01*
X117748253Y-43788599D01*
X117731777Y-43806777D01*
X117713599Y-43823253D01*
X117693893Y-43837868D01*
X117672850Y-43850480D01*
X117650671Y-43860970D01*
X117627572Y-43869235D01*
X117603773Y-43875196D01*
X117579505Y-43878796D01*
X117555001Y-43880000D01*
X116904999Y-43880000D01*
X116880495Y-43878796D01*
X116856227Y-43875196D01*
X116832428Y-43869235D01*
X116809329Y-43860970D01*
X116787150Y-43850480D01*
X116766107Y-43837868D01*
X116746401Y-43823253D01*
X116728223Y-43806777D01*
X116711747Y-43788599D01*
X116697132Y-43768893D01*
X116684520Y-43747850D01*
X116674030Y-43725671D01*
X116665765Y-43702572D01*
X116659804Y-43678773D01*
X116656204Y-43654505D01*
X116655000Y-43630001D01*
X116655000Y-42729999D01*
X116656204Y-42705495D01*
X116659804Y-42681227D01*
X116665765Y-42657428D01*
X116674030Y-42634329D01*
X116684520Y-42612150D01*
X116697132Y-42591107D01*
X116711747Y-42571401D01*
X116728223Y-42553223D01*
X116746401Y-42536747D01*
X116766107Y-42522132D01*
X116787150Y-42509520D01*
X116809329Y-42499030D01*
X116832428Y-42490765D01*
X116856227Y-42484804D01*
X116880495Y-42481204D01*
X116904999Y-42480000D01*
X117555001Y-42480000D01*
X117579505Y-42481204D01*
X117579505Y-42481204D01*
G37*
D11*
G04 #@! TD*
G04 #@! TO.P,C2,1*
G04 #@! TO.N,Net-(C2-Pad1)*
X117230000Y-43180000D03*
D10*
G04 #@! TO.N,GND*
G04 #@! TO.C,C3*
G36*
X124299505Y-50471204D02*
X124323773Y-50474804D01*
X124347572Y-50480765D01*
X124370671Y-50489030D01*
X124392850Y-50499520D01*
X124413893Y-50512132D01*
X124433599Y-50526747D01*
X124451777Y-50543223D01*
X124468253Y-50561401D01*
X124482868Y-50581107D01*
X124495480Y-50602150D01*
X124505970Y-50624329D01*
X124514235Y-50647428D01*
X124520196Y-50671227D01*
X124523796Y-50695495D01*
X124525000Y-50719999D01*
X124525000Y-51370001D01*
X124523796Y-51394505D01*
X124520196Y-51418773D01*
X124514235Y-51442572D01*
X124505970Y-51465671D01*
X124495480Y-51487850D01*
X124482868Y-51508893D01*
X124468253Y-51528599D01*
X124451777Y-51546777D01*
X124433599Y-51563253D01*
X124413893Y-51577868D01*
X124392850Y-51590480D01*
X124370671Y-51600970D01*
X124347572Y-51609235D01*
X124323773Y-51615196D01*
X124299505Y-51618796D01*
X124275001Y-51620000D01*
X123374999Y-51620000D01*
X123350495Y-51618796D01*
X123326227Y-51615196D01*
X123302428Y-51609235D01*
X123279329Y-51600970D01*
X123257150Y-51590480D01*
X123236107Y-51577868D01*
X123216401Y-51563253D01*
X123198223Y-51546777D01*
X123181747Y-51528599D01*
X123167132Y-51508893D01*
X123154520Y-51487850D01*
X123144030Y-51465671D01*
X123135765Y-51442572D01*
X123129804Y-51418773D01*
X123126204Y-51394505D01*
X123125000Y-51370001D01*
X123125000Y-50719999D01*
X123126204Y-50695495D01*
X123129804Y-50671227D01*
X123135765Y-50647428D01*
X123144030Y-50624329D01*
X123154520Y-50602150D01*
X123167132Y-50581107D01*
X123181747Y-50561401D01*
X123198223Y-50543223D01*
X123216401Y-50526747D01*
X123236107Y-50512132D01*
X123257150Y-50499520D01*
X123279329Y-50489030D01*
X123302428Y-50480765D01*
X123326227Y-50474804D01*
X123350495Y-50471204D01*
X123374999Y-50470000D01*
X124275001Y-50470000D01*
X124299505Y-50471204D01*
X124299505Y-50471204D01*
G37*
D11*
G04 #@! TD*
G04 #@! TO.P,C3,1*
G04 #@! TO.N,GND*
X123825000Y-51045000D03*
D10*
G04 #@! TO.N,Net-(C3-Pad2)*
G04 #@! TO.C,C3*
G36*
X124299505Y-52521204D02*
X124323773Y-52524804D01*
X124347572Y-52530765D01*
X124370671Y-52539030D01*
X124392850Y-52549520D01*
X124413893Y-52562132D01*
X124433599Y-52576747D01*
X124451777Y-52593223D01*
X124468253Y-52611401D01*
X124482868Y-52631107D01*
X124495480Y-52652150D01*
X124505970Y-52674329D01*
X124514235Y-52697428D01*
X124520196Y-52721227D01*
X124523796Y-52745495D01*
X124525000Y-52769999D01*
X124525000Y-53420001D01*
X124523796Y-53444505D01*
X124520196Y-53468773D01*
X124514235Y-53492572D01*
X124505970Y-53515671D01*
X124495480Y-53537850D01*
X124482868Y-53558893D01*
X124468253Y-53578599D01*
X124451777Y-53596777D01*
X124433599Y-53613253D01*
X124413893Y-53627868D01*
X124392850Y-53640480D01*
X124370671Y-53650970D01*
X124347572Y-53659235D01*
X124323773Y-53665196D01*
X124299505Y-53668796D01*
X124275001Y-53670000D01*
X123374999Y-53670000D01*
X123350495Y-53668796D01*
X123326227Y-53665196D01*
X123302428Y-53659235D01*
X123279329Y-53650970D01*
X123257150Y-53640480D01*
X123236107Y-53627868D01*
X123216401Y-53613253D01*
X123198223Y-53596777D01*
X123181747Y-53578599D01*
X123167132Y-53558893D01*
X123154520Y-53537850D01*
X123144030Y-53515671D01*
X123135765Y-53492572D01*
X123129804Y-53468773D01*
X123126204Y-53444505D01*
X123125000Y-53420001D01*
X123125000Y-52769999D01*
X123126204Y-52745495D01*
X123129804Y-52721227D01*
X123135765Y-52697428D01*
X123144030Y-52674329D01*
X123154520Y-52652150D01*
X123167132Y-52631107D01*
X123181747Y-52611401D01*
X123198223Y-52593223D01*
X123216401Y-52576747D01*
X123236107Y-52562132D01*
X123257150Y-52549520D01*
X123279329Y-52539030D01*
X123302428Y-52530765D01*
X123326227Y-52524804D01*
X123350495Y-52521204D01*
X123374999Y-52520000D01*
X124275001Y-52520000D01*
X124299505Y-52521204D01*
X124299505Y-52521204D01*
G37*
D11*
G04 #@! TD*
G04 #@! TO.P,C3,2*
G04 #@! TO.N,Net-(C3-Pad2)*
X123825000Y-53095000D03*
D10*
G04 #@! TO.N,+3V3*
G04 #@! TO.C,C4*
G36*
X120119505Y-55181204D02*
X120143773Y-55184804D01*
X120167572Y-55190765D01*
X120190671Y-55199030D01*
X120212850Y-55209520D01*
X120233893Y-55222132D01*
X120253599Y-55236747D01*
X120271777Y-55253223D01*
X120288253Y-55271401D01*
X120302868Y-55291107D01*
X120315480Y-55312150D01*
X120325970Y-55334329D01*
X120334235Y-55357428D01*
X120340196Y-55381227D01*
X120343796Y-55405495D01*
X120345000Y-55429999D01*
X120345000Y-56330001D01*
X120343796Y-56354505D01*
X120340196Y-56378773D01*
X120334235Y-56402572D01*
X120325970Y-56425671D01*
X120315480Y-56447850D01*
X120302868Y-56468893D01*
X120288253Y-56488599D01*
X120271777Y-56506777D01*
X120253599Y-56523253D01*
X120233893Y-56537868D01*
X120212850Y-56550480D01*
X120190671Y-56560970D01*
X120167572Y-56569235D01*
X120143773Y-56575196D01*
X120119505Y-56578796D01*
X120095001Y-56580000D01*
X119444999Y-56580000D01*
X119420495Y-56578796D01*
X119396227Y-56575196D01*
X119372428Y-56569235D01*
X119349329Y-56560970D01*
X119327150Y-56550480D01*
X119306107Y-56537868D01*
X119286401Y-56523253D01*
X119268223Y-56506777D01*
X119251747Y-56488599D01*
X119237132Y-56468893D01*
X119224520Y-56447850D01*
X119214030Y-56425671D01*
X119205765Y-56402572D01*
X119199804Y-56378773D01*
X119196204Y-56354505D01*
X119195000Y-56330001D01*
X119195000Y-55429999D01*
X119196204Y-55405495D01*
X119199804Y-55381227D01*
X119205765Y-55357428D01*
X119214030Y-55334329D01*
X119224520Y-55312150D01*
X119237132Y-55291107D01*
X119251747Y-55271401D01*
X119268223Y-55253223D01*
X119286401Y-55236747D01*
X119306107Y-55222132D01*
X119327150Y-55209520D01*
X119349329Y-55199030D01*
X119372428Y-55190765D01*
X119396227Y-55184804D01*
X119420495Y-55181204D01*
X119444999Y-55180000D01*
X120095001Y-55180000D01*
X120119505Y-55181204D01*
X120119505Y-55181204D01*
G37*
D11*
G04 #@! TD*
G04 #@! TO.P,C4,2*
G04 #@! TO.N,+3V3*
X119770000Y-55880000D03*
D10*
G04 #@! TO.N,GND*
G04 #@! TO.C,C4*
G36*
X118069505Y-55181204D02*
X118093773Y-55184804D01*
X118117572Y-55190765D01*
X118140671Y-55199030D01*
X118162850Y-55209520D01*
X118183893Y-55222132D01*
X118203599Y-55236747D01*
X118221777Y-55253223D01*
X118238253Y-55271401D01*
X118252868Y-55291107D01*
X118265480Y-55312150D01*
X118275970Y-55334329D01*
X118284235Y-55357428D01*
X118290196Y-55381227D01*
X118293796Y-55405495D01*
X118295000Y-55429999D01*
X118295000Y-56330001D01*
X118293796Y-56354505D01*
X118290196Y-56378773D01*
X118284235Y-56402572D01*
X118275970Y-56425671D01*
X118265480Y-56447850D01*
X118252868Y-56468893D01*
X118238253Y-56488599D01*
X118221777Y-56506777D01*
X118203599Y-56523253D01*
X118183893Y-56537868D01*
X118162850Y-56550480D01*
X118140671Y-56560970D01*
X118117572Y-56569235D01*
X118093773Y-56575196D01*
X118069505Y-56578796D01*
X118045001Y-56580000D01*
X117394999Y-56580000D01*
X117370495Y-56578796D01*
X117346227Y-56575196D01*
X117322428Y-56569235D01*
X117299329Y-56560970D01*
X117277150Y-56550480D01*
X117256107Y-56537868D01*
X117236401Y-56523253D01*
X117218223Y-56506777D01*
X117201747Y-56488599D01*
X117187132Y-56468893D01*
X117174520Y-56447850D01*
X117164030Y-56425671D01*
X117155765Y-56402572D01*
X117149804Y-56378773D01*
X117146204Y-56354505D01*
X117145000Y-56330001D01*
X117145000Y-55429999D01*
X117146204Y-55405495D01*
X117149804Y-55381227D01*
X117155765Y-55357428D01*
X117164030Y-55334329D01*
X117174520Y-55312150D01*
X117187132Y-55291107D01*
X117201747Y-55271401D01*
X117218223Y-55253223D01*
X117236401Y-55236747D01*
X117256107Y-55222132D01*
X117277150Y-55209520D01*
X117299329Y-55199030D01*
X117322428Y-55190765D01*
X117346227Y-55184804D01*
X117370495Y-55181204D01*
X117394999Y-55180000D01*
X118045001Y-55180000D01*
X118069505Y-55181204D01*
X118069505Y-55181204D01*
G37*
D11*
G04 #@! TD*
G04 #@! TO.P,C4,1*
G04 #@! TO.N,GND*
X117720000Y-55880000D03*
D10*
G04 #@! TO.N,GND*
G04 #@! TO.C,C5*
G36*
X127474505Y-43096204D02*
X127498773Y-43099804D01*
X127522572Y-43105765D01*
X127545671Y-43114030D01*
X127567850Y-43124520D01*
X127588893Y-43137132D01*
X127608599Y-43151747D01*
X127626777Y-43168223D01*
X127643253Y-43186401D01*
X127657868Y-43206107D01*
X127670480Y-43227150D01*
X127680970Y-43249329D01*
X127689235Y-43272428D01*
X127695196Y-43296227D01*
X127698796Y-43320495D01*
X127700000Y-43344999D01*
X127700000Y-43995001D01*
X127698796Y-44019505D01*
X127695196Y-44043773D01*
X127689235Y-44067572D01*
X127680970Y-44090671D01*
X127670480Y-44112850D01*
X127657868Y-44133893D01*
X127643253Y-44153599D01*
X127626777Y-44171777D01*
X127608599Y-44188253D01*
X127588893Y-44202868D01*
X127567850Y-44215480D01*
X127545671Y-44225970D01*
X127522572Y-44234235D01*
X127498773Y-44240196D01*
X127474505Y-44243796D01*
X127450001Y-44245000D01*
X126549999Y-44245000D01*
X126525495Y-44243796D01*
X126501227Y-44240196D01*
X126477428Y-44234235D01*
X126454329Y-44225970D01*
X126432150Y-44215480D01*
X126411107Y-44202868D01*
X126391401Y-44188253D01*
X126373223Y-44171777D01*
X126356747Y-44153599D01*
X126342132Y-44133893D01*
X126329520Y-44112850D01*
X126319030Y-44090671D01*
X126310765Y-44067572D01*
X126304804Y-44043773D01*
X126301204Y-44019505D01*
X126300000Y-43995001D01*
X126300000Y-43344999D01*
X126301204Y-43320495D01*
X126304804Y-43296227D01*
X126310765Y-43272428D01*
X126319030Y-43249329D01*
X126329520Y-43227150D01*
X126342132Y-43206107D01*
X126356747Y-43186401D01*
X126373223Y-43168223D01*
X126391401Y-43151747D01*
X126411107Y-43137132D01*
X126432150Y-43124520D01*
X126454329Y-43114030D01*
X126477428Y-43105765D01*
X126501227Y-43099804D01*
X126525495Y-43096204D01*
X126549999Y-43095000D01*
X127450001Y-43095000D01*
X127474505Y-43096204D01*
X127474505Y-43096204D01*
G37*
D11*
G04 #@! TD*
G04 #@! TO.P,C5,2*
G04 #@! TO.N,GND*
X127000000Y-43670000D03*
D10*
G04 #@! TO.N,/PA28_RST*
G04 #@! TO.C,C5*
G36*
X127474505Y-45146204D02*
X127498773Y-45149804D01*
X127522572Y-45155765D01*
X127545671Y-45164030D01*
X127567850Y-45174520D01*
X127588893Y-45187132D01*
X127608599Y-45201747D01*
X127626777Y-45218223D01*
X127643253Y-45236401D01*
X127657868Y-45256107D01*
X127670480Y-45277150D01*
X127680970Y-45299329D01*
X127689235Y-45322428D01*
X127695196Y-45346227D01*
X127698796Y-45370495D01*
X127700000Y-45394999D01*
X127700000Y-46045001D01*
X127698796Y-46069505D01*
X127695196Y-46093773D01*
X127689235Y-46117572D01*
X127680970Y-46140671D01*
X127670480Y-46162850D01*
X127657868Y-46183893D01*
X127643253Y-46203599D01*
X127626777Y-46221777D01*
X127608599Y-46238253D01*
X127588893Y-46252868D01*
X127567850Y-46265480D01*
X127545671Y-46275970D01*
X127522572Y-46284235D01*
X127498773Y-46290196D01*
X127474505Y-46293796D01*
X127450001Y-46295000D01*
X126549999Y-46295000D01*
X126525495Y-46293796D01*
X126501227Y-46290196D01*
X126477428Y-46284235D01*
X126454329Y-46275970D01*
X126432150Y-46265480D01*
X126411107Y-46252868D01*
X126391401Y-46238253D01*
X126373223Y-46221777D01*
X126356747Y-46203599D01*
X126342132Y-46183893D01*
X126329520Y-46162850D01*
X126319030Y-46140671D01*
X126310765Y-46117572D01*
X126304804Y-46093773D01*
X126301204Y-46069505D01*
X126300000Y-46045001D01*
X126300000Y-45394999D01*
X126301204Y-45370495D01*
X126304804Y-45346227D01*
X126310765Y-45322428D01*
X126319030Y-45299329D01*
X126329520Y-45277150D01*
X126342132Y-45256107D01*
X126356747Y-45236401D01*
X126373223Y-45218223D01*
X126391401Y-45201747D01*
X126411107Y-45187132D01*
X126432150Y-45174520D01*
X126454329Y-45164030D01*
X126477428Y-45155765D01*
X126501227Y-45149804D01*
X126525495Y-45146204D01*
X126549999Y-45145000D01*
X127450001Y-45145000D01*
X127474505Y-45146204D01*
X127474505Y-45146204D01*
G37*
D11*
G04 #@! TD*
G04 #@! TO.P,C5,1*
G04 #@! TO.N,/PA28_RST*
X127000000Y-45720000D03*
D10*
G04 #@! TO.N,+3V3*
G04 #@! TO.C,C6*
G36*
X120119505Y-52641204D02*
X120143773Y-52644804D01*
X120167572Y-52650765D01*
X120190671Y-52659030D01*
X120212850Y-52669520D01*
X120233893Y-52682132D01*
X120253599Y-52696747D01*
X120271777Y-52713223D01*
X120288253Y-52731401D01*
X120302868Y-52751107D01*
X120315480Y-52772150D01*
X120325970Y-52794329D01*
X120334235Y-52817428D01*
X120340196Y-52841227D01*
X120343796Y-52865495D01*
X120345000Y-52889999D01*
X120345000Y-53790001D01*
X120343796Y-53814505D01*
X120340196Y-53838773D01*
X120334235Y-53862572D01*
X120325970Y-53885671D01*
X120315480Y-53907850D01*
X120302868Y-53928893D01*
X120288253Y-53948599D01*
X120271777Y-53966777D01*
X120253599Y-53983253D01*
X120233893Y-53997868D01*
X120212850Y-54010480D01*
X120190671Y-54020970D01*
X120167572Y-54029235D01*
X120143773Y-54035196D01*
X120119505Y-54038796D01*
X120095001Y-54040000D01*
X119444999Y-54040000D01*
X119420495Y-54038796D01*
X119396227Y-54035196D01*
X119372428Y-54029235D01*
X119349329Y-54020970D01*
X119327150Y-54010480D01*
X119306107Y-53997868D01*
X119286401Y-53983253D01*
X119268223Y-53966777D01*
X119251747Y-53948599D01*
X119237132Y-53928893D01*
X119224520Y-53907850D01*
X119214030Y-53885671D01*
X119205765Y-53862572D01*
X119199804Y-53838773D01*
X119196204Y-53814505D01*
X119195000Y-53790001D01*
X119195000Y-52889999D01*
X119196204Y-52865495D01*
X119199804Y-52841227D01*
X119205765Y-52817428D01*
X119214030Y-52794329D01*
X119224520Y-52772150D01*
X119237132Y-52751107D01*
X119251747Y-52731401D01*
X119268223Y-52713223D01*
X119286401Y-52696747D01*
X119306107Y-52682132D01*
X119327150Y-52669520D01*
X119349329Y-52659030D01*
X119372428Y-52650765D01*
X119396227Y-52644804D01*
X119420495Y-52641204D01*
X119444999Y-52640000D01*
X120095001Y-52640000D01*
X120119505Y-52641204D01*
X120119505Y-52641204D01*
G37*
D11*
G04 #@! TD*
G04 #@! TO.P,C6,1*
G04 #@! TO.N,+3V3*
X119770000Y-53340000D03*
D10*
G04 #@! TO.N,GND*
G04 #@! TO.C,C6*
G36*
X118069505Y-52641204D02*
X118093773Y-52644804D01*
X118117572Y-52650765D01*
X118140671Y-52659030D01*
X118162850Y-52669520D01*
X118183893Y-52682132D01*
X118203599Y-52696747D01*
X118221777Y-52713223D01*
X118238253Y-52731401D01*
X118252868Y-52751107D01*
X118265480Y-52772150D01*
X118275970Y-52794329D01*
X118284235Y-52817428D01*
X118290196Y-52841227D01*
X118293796Y-52865495D01*
X118295000Y-52889999D01*
X118295000Y-53790001D01*
X118293796Y-53814505D01*
X118290196Y-53838773D01*
X118284235Y-53862572D01*
X118275970Y-53885671D01*
X118265480Y-53907850D01*
X118252868Y-53928893D01*
X118238253Y-53948599D01*
X118221777Y-53966777D01*
X118203599Y-53983253D01*
X118183893Y-53997868D01*
X118162850Y-54010480D01*
X118140671Y-54020970D01*
X118117572Y-54029235D01*
X118093773Y-54035196D01*
X118069505Y-54038796D01*
X118045001Y-54040000D01*
X117394999Y-54040000D01*
X117370495Y-54038796D01*
X117346227Y-54035196D01*
X117322428Y-54029235D01*
X117299329Y-54020970D01*
X117277150Y-54010480D01*
X117256107Y-53997868D01*
X117236401Y-53983253D01*
X117218223Y-53966777D01*
X117201747Y-53948599D01*
X117187132Y-53928893D01*
X117174520Y-53907850D01*
X117164030Y-53885671D01*
X117155765Y-53862572D01*
X117149804Y-53838773D01*
X117146204Y-53814505D01*
X117145000Y-53790001D01*
X117145000Y-52889999D01*
X117146204Y-52865495D01*
X117149804Y-52841227D01*
X117155765Y-52817428D01*
X117164030Y-52794329D01*
X117174520Y-52772150D01*
X117187132Y-52751107D01*
X117201747Y-52731401D01*
X117218223Y-52713223D01*
X117236401Y-52696747D01*
X117256107Y-52682132D01*
X117277150Y-52669520D01*
X117299329Y-52659030D01*
X117322428Y-52650765D01*
X117346227Y-52644804D01*
X117370495Y-52641204D01*
X117394999Y-52640000D01*
X118045001Y-52640000D01*
X118069505Y-52641204D01*
X118069505Y-52641204D01*
G37*
D11*
G04 #@! TD*
G04 #@! TO.P,C6,2*
G04 #@! TO.N,GND*
X117720000Y-53340000D03*
D10*
G04 #@! TO.N,Net-(C2-Pad1)*
G04 #@! TO.C,R1*
G36*
X116679505Y-44756204D02*
X116703773Y-44759804D01*
X116727572Y-44765765D01*
X116750671Y-44774030D01*
X116772850Y-44784520D01*
X116793893Y-44797132D01*
X116813599Y-44811747D01*
X116831777Y-44828223D01*
X116848253Y-44846401D01*
X116862868Y-44866107D01*
X116875480Y-44887150D01*
X116885970Y-44909329D01*
X116894235Y-44932428D01*
X116900196Y-44956227D01*
X116903796Y-44980495D01*
X116905000Y-45004999D01*
X116905000Y-45655001D01*
X116903796Y-45679505D01*
X116900196Y-45703773D01*
X116894235Y-45727572D01*
X116885970Y-45750671D01*
X116875480Y-45772850D01*
X116862868Y-45793893D01*
X116848253Y-45813599D01*
X116831777Y-45831777D01*
X116813599Y-45848253D01*
X116793893Y-45862868D01*
X116772850Y-45875480D01*
X116750671Y-45885970D01*
X116727572Y-45894235D01*
X116703773Y-45900196D01*
X116679505Y-45903796D01*
X116655001Y-45905000D01*
X115754999Y-45905000D01*
X115730495Y-45903796D01*
X115706227Y-45900196D01*
X115682428Y-45894235D01*
X115659329Y-45885970D01*
X115637150Y-45875480D01*
X115616107Y-45862868D01*
X115596401Y-45848253D01*
X115578223Y-45831777D01*
X115561747Y-45813599D01*
X115547132Y-45793893D01*
X115534520Y-45772850D01*
X115524030Y-45750671D01*
X115515765Y-45727572D01*
X115509804Y-45703773D01*
X115506204Y-45679505D01*
X115505000Y-45655001D01*
X115505000Y-45004999D01*
X115506204Y-44980495D01*
X115509804Y-44956227D01*
X115515765Y-44932428D01*
X115524030Y-44909329D01*
X115534520Y-44887150D01*
X115547132Y-44866107D01*
X115561747Y-44846401D01*
X115578223Y-44828223D01*
X115596401Y-44811747D01*
X115616107Y-44797132D01*
X115637150Y-44784520D01*
X115659329Y-44774030D01*
X115682428Y-44765765D01*
X115706227Y-44759804D01*
X115730495Y-44756204D01*
X115754999Y-44755000D01*
X116655001Y-44755000D01*
X116679505Y-44756204D01*
X116679505Y-44756204D01*
G37*
D11*
G04 #@! TD*
G04 #@! TO.P,R1,1*
G04 #@! TO.N,Net-(C2-Pad1)*
X116205000Y-45330000D03*
D10*
G04 #@! TO.N,GND*
G04 #@! TO.C,R1*
G36*
X116679505Y-46806204D02*
X116703773Y-46809804D01*
X116727572Y-46815765D01*
X116750671Y-46824030D01*
X116772850Y-46834520D01*
X116793893Y-46847132D01*
X116813599Y-46861747D01*
X116831777Y-46878223D01*
X116848253Y-46896401D01*
X116862868Y-46916107D01*
X116875480Y-46937150D01*
X116885970Y-46959329D01*
X116894235Y-46982428D01*
X116900196Y-47006227D01*
X116903796Y-47030495D01*
X116905000Y-47054999D01*
X116905000Y-47705001D01*
X116903796Y-47729505D01*
X116900196Y-47753773D01*
X116894235Y-47777572D01*
X116885970Y-47800671D01*
X116875480Y-47822850D01*
X116862868Y-47843893D01*
X116848253Y-47863599D01*
X116831777Y-47881777D01*
X116813599Y-47898253D01*
X116793893Y-47912868D01*
X116772850Y-47925480D01*
X116750671Y-47935970D01*
X116727572Y-47944235D01*
X116703773Y-47950196D01*
X116679505Y-47953796D01*
X116655001Y-47955000D01*
X115754999Y-47955000D01*
X115730495Y-47953796D01*
X115706227Y-47950196D01*
X115682428Y-47944235D01*
X115659329Y-47935970D01*
X115637150Y-47925480D01*
X115616107Y-47912868D01*
X115596401Y-47898253D01*
X115578223Y-47881777D01*
X115561747Y-47863599D01*
X115547132Y-47843893D01*
X115534520Y-47822850D01*
X115524030Y-47800671D01*
X115515765Y-47777572D01*
X115509804Y-47753773D01*
X115506204Y-47729505D01*
X115505000Y-47705001D01*
X115505000Y-47054999D01*
X115506204Y-47030495D01*
X115509804Y-47006227D01*
X115515765Y-46982428D01*
X115524030Y-46959329D01*
X115534520Y-46937150D01*
X115547132Y-46916107D01*
X115561747Y-46896401D01*
X115578223Y-46878223D01*
X115596401Y-46861747D01*
X115616107Y-46847132D01*
X115637150Y-46834520D01*
X115659329Y-46824030D01*
X115682428Y-46815765D01*
X115706227Y-46809804D01*
X115730495Y-46806204D01*
X115754999Y-46805000D01*
X116655001Y-46805000D01*
X116679505Y-46806204D01*
X116679505Y-46806204D01*
G37*
D11*
G04 #@! TD*
G04 #@! TO.P,R1,2*
G04 #@! TO.N,GND*
X116205000Y-47380000D03*
D10*
G04 #@! TO.N,+3V3*
G04 #@! TO.C,R2*
G36*
X122269505Y-55181204D02*
X122293773Y-55184804D01*
X122317572Y-55190765D01*
X122340671Y-55199030D01*
X122362850Y-55209520D01*
X122383893Y-55222132D01*
X122403599Y-55236747D01*
X122421777Y-55253223D01*
X122438253Y-55271401D01*
X122452868Y-55291107D01*
X122465480Y-55312150D01*
X122475970Y-55334329D01*
X122484235Y-55357428D01*
X122490196Y-55381227D01*
X122493796Y-55405495D01*
X122495000Y-55429999D01*
X122495000Y-56330001D01*
X122493796Y-56354505D01*
X122490196Y-56378773D01*
X122484235Y-56402572D01*
X122475970Y-56425671D01*
X122465480Y-56447850D01*
X122452868Y-56468893D01*
X122438253Y-56488599D01*
X122421777Y-56506777D01*
X122403599Y-56523253D01*
X122383893Y-56537868D01*
X122362850Y-56550480D01*
X122340671Y-56560970D01*
X122317572Y-56569235D01*
X122293773Y-56575196D01*
X122269505Y-56578796D01*
X122245001Y-56580000D01*
X121594999Y-56580000D01*
X121570495Y-56578796D01*
X121546227Y-56575196D01*
X121522428Y-56569235D01*
X121499329Y-56560970D01*
X121477150Y-56550480D01*
X121456107Y-56537868D01*
X121436401Y-56523253D01*
X121418223Y-56506777D01*
X121401747Y-56488599D01*
X121387132Y-56468893D01*
X121374520Y-56447850D01*
X121364030Y-56425671D01*
X121355765Y-56402572D01*
X121349804Y-56378773D01*
X121346204Y-56354505D01*
X121345000Y-56330001D01*
X121345000Y-55429999D01*
X121346204Y-55405495D01*
X121349804Y-55381227D01*
X121355765Y-55357428D01*
X121364030Y-55334329D01*
X121374520Y-55312150D01*
X121387132Y-55291107D01*
X121401747Y-55271401D01*
X121418223Y-55253223D01*
X121436401Y-55236747D01*
X121456107Y-55222132D01*
X121477150Y-55209520D01*
X121499329Y-55199030D01*
X121522428Y-55190765D01*
X121546227Y-55184804D01*
X121570495Y-55181204D01*
X121594999Y-55180000D01*
X122245001Y-55180000D01*
X122269505Y-55181204D01*
X122269505Y-55181204D01*
G37*
D11*
G04 #@! TD*
G04 #@! TO.P,R2,1*
G04 #@! TO.N,+3V3*
X121920000Y-55880000D03*
D10*
G04 #@! TO.N,/SWDIO*
G04 #@! TO.C,R2*
G36*
X124319505Y-55181204D02*
X124343773Y-55184804D01*
X124367572Y-55190765D01*
X124390671Y-55199030D01*
X124412850Y-55209520D01*
X124433893Y-55222132D01*
X124453599Y-55236747D01*
X124471777Y-55253223D01*
X124488253Y-55271401D01*
X124502868Y-55291107D01*
X124515480Y-55312150D01*
X124525970Y-55334329D01*
X124534235Y-55357428D01*
X124540196Y-55381227D01*
X124543796Y-55405495D01*
X124545000Y-55429999D01*
X124545000Y-56330001D01*
X124543796Y-56354505D01*
X124540196Y-56378773D01*
X124534235Y-56402572D01*
X124525970Y-56425671D01*
X124515480Y-56447850D01*
X124502868Y-56468893D01*
X124488253Y-56488599D01*
X124471777Y-56506777D01*
X124453599Y-56523253D01*
X124433893Y-56537868D01*
X124412850Y-56550480D01*
X124390671Y-56560970D01*
X124367572Y-56569235D01*
X124343773Y-56575196D01*
X124319505Y-56578796D01*
X124295001Y-56580000D01*
X123644999Y-56580000D01*
X123620495Y-56578796D01*
X123596227Y-56575196D01*
X123572428Y-56569235D01*
X123549329Y-56560970D01*
X123527150Y-56550480D01*
X123506107Y-56537868D01*
X123486401Y-56523253D01*
X123468223Y-56506777D01*
X123451747Y-56488599D01*
X123437132Y-56468893D01*
X123424520Y-56447850D01*
X123414030Y-56425671D01*
X123405765Y-56402572D01*
X123399804Y-56378773D01*
X123396204Y-56354505D01*
X123395000Y-56330001D01*
X123395000Y-55429999D01*
X123396204Y-55405495D01*
X123399804Y-55381227D01*
X123405765Y-55357428D01*
X123414030Y-55334329D01*
X123424520Y-55312150D01*
X123437132Y-55291107D01*
X123451747Y-55271401D01*
X123468223Y-55253223D01*
X123486401Y-55236747D01*
X123506107Y-55222132D01*
X123527150Y-55209520D01*
X123549329Y-55199030D01*
X123572428Y-55190765D01*
X123596227Y-55184804D01*
X123620495Y-55181204D01*
X123644999Y-55180000D01*
X124295001Y-55180000D01*
X124319505Y-55181204D01*
X124319505Y-55181204D01*
G37*
D11*
G04 #@! TD*
G04 #@! TO.P,R2,2*
G04 #@! TO.N,/SWDIO*
X123970000Y-55880000D03*
D12*
G04 #@! TO.P,U2,1*
G04 #@! TO.N,+5V*
X119700000Y-48180000D03*
G04 #@! TO.P,U2,2*
G04 #@! TO.N,GND*
X120650000Y-48180000D03*
G04 #@! TO.P,U2,3*
G04 #@! TO.N,+5V*
X121600000Y-48180000D03*
G04 #@! TO.P,U2,4*
G04 #@! TO.N,Net-(C3-Pad2)*
X121600000Y-50880000D03*
G04 #@! TO.P,U2,5*
G04 #@! TO.N,+3V3*
X119700000Y-50880000D03*
G04 #@! TD*
D13*
G04 #@! TO.P,X1,1*
G04 #@! TO.N,+3V3*
X111760000Y-43180000D03*
D14*
G04 #@! TO.P,X1,2*
G04 #@! TO.N,/PA02*
X111760000Y-45720000D03*
G04 #@! TO.P,X1,3*
G04 #@! TO.N,/PA03*
X111760000Y-48260000D03*
G04 #@! TO.P,X1,4*
G04 #@! TO.N,/PA04*
X111760000Y-50800000D03*
G04 #@! TO.P,X1,5*
G04 #@! TO.N,/PA05*
X111760000Y-53340000D03*
G04 #@! TO.P,X1,6*
G04 #@! TO.N,/PA06*
X111760000Y-55880000D03*
G04 #@! TO.P,X1,7*
G04 #@! TO.N,/PA07*
X111760000Y-58420000D03*
G04 #@! TO.P,X1,8*
G04 #@! TO.N,/PA08*
X111760000Y-60960000D03*
G04 #@! TO.P,X1,9*
G04 #@! TO.N,/PA09*
X111760000Y-63500000D03*
G04 #@! TO.P,X1,10*
G04 #@! TO.N,GND*
X111760000Y-66040000D03*
G04 #@! TD*
G04 #@! TO.P,X2,10*
G04 #@! TO.N,GND*
X129540000Y-43180000D03*
G04 #@! TO.P,X2,9*
G04 #@! TO.N,/PA28_RST*
X129540000Y-45720000D03*
G04 #@! TO.P,X2,8*
G04 #@! TO.N,/PA25_UDP*
X129540000Y-48260000D03*
G04 #@! TO.P,X2,7*
G04 #@! TO.N,/PA24_UDM*
X129540000Y-50800000D03*
G04 #@! TO.P,X2,6*
G04 #@! TO.N,/PA23_LED*
X129540000Y-53340000D03*
G04 #@! TO.P,X2,5*
G04 #@! TO.N,/PA22*
X129540000Y-55880000D03*
G04 #@! TO.P,X2,4*
G04 #@! TO.N,/PA16*
X129540000Y-58420000D03*
G04 #@! TO.P,X2,3*
G04 #@! TO.N,/PA15*
X129540000Y-60960000D03*
G04 #@! TO.P,X2,2*
G04 #@! TO.N,/PA14*
X129540000Y-63500000D03*
D13*
G04 #@! TO.P,X2,1*
G04 #@! TO.N,+5V*
X129540000Y-66040000D03*
G04 #@! TD*
D15*
G04 #@! TO.P,X3,1*
G04 #@! TO.N,/SWDIO*
X120650000Y-64770000D03*
G04 #@! TO.P,X3,2*
G04 #@! TO.N,GND*
X123190000Y-64770000D03*
G04 #@! TO.P,X3,3*
G04 #@! TO.N,/SWCLK*
X125730000Y-64770000D03*
G04 #@! TD*
D16*
G04 #@! TO.P,X4,5*
G04 #@! TO.N,GND*
X118752620Y-45326300D03*
G04 #@! TO.P,X4,1*
G04 #@! TO.N,+5V*
X122549920Y-45328840D03*
G04 #@! TD*
D17*
G04 #@! TO.N,Net-(C2-Pad1)*
X117230000Y-43180000D03*
G04 #@! TO.N,+3V3*
X121285000Y-52705000D03*
G04 #@! TO.N,/SWDIO*
X123609990Y-48260000D03*
G04 #@! TO.N,/PA23_LED*
X127850010Y-56054479D03*
X114935000Y-53975000D03*
X118872000Y-62737986D03*
G04 #@! TO.N,/PA05*
X114187740Y-57849175D03*
G04 #@! TO.N,/SWCLK*
X125514990Y-48110274D03*
G04 #@! TO.N,/PA25_UDP*
X127850010Y-52705000D03*
G04 #@! TD*
D18*
G04 #@! TO.N,GND*
X129050000Y-43670000D02*
X129540000Y-43180000D01*
X127000000Y-43670000D02*
X129050000Y-43670000D01*
X123825000Y-51045000D02*
X122310000Y-49530000D01*
X120650000Y-48180000D02*
X120650000Y-49530000D01*
X122310000Y-49530000D02*
X120650000Y-49530000D01*
X120650000Y-49530000D02*
X118745000Y-49530000D01*
G04 #@! TO.N,+5V*
X121675000Y-48105000D02*
X121600000Y-48180000D01*
X124068840Y-45328840D02*
X124460000Y-45720000D01*
X122549920Y-45328840D02*
X124068840Y-45328840D01*
X121600000Y-46278760D02*
X122549920Y-45328840D01*
X121600000Y-48180000D02*
X121600000Y-46278760D01*
X120321240Y-46278760D02*
X121600000Y-46278760D01*
X119700000Y-46900000D02*
X120321240Y-46278760D01*
X119700000Y-48180000D02*
X119700000Y-46900000D01*
X128190000Y-66040000D02*
X129540000Y-66040000D01*
X127635000Y-65485000D02*
X128190000Y-66040000D01*
X124460000Y-45720000D02*
X126492000Y-47752000D01*
X126492000Y-47752000D02*
X126492000Y-57277000D01*
X126492000Y-57277000D02*
X127635000Y-58420000D01*
X127635000Y-58420000D02*
X127635000Y-65485000D01*
D19*
G04 #@! TO.N,Net-(C2-Pad1)*
X116205000Y-45330000D02*
X116595000Y-45330000D01*
X117230000Y-44695000D02*
X117230000Y-43180000D01*
X116595000Y-45330000D02*
X117230000Y-44695000D01*
G04 #@! TO.N,Net-(C3-Pad2)*
X121600000Y-51335000D02*
X123360000Y-53095000D01*
X123360000Y-53095000D02*
X123825000Y-53095000D01*
X121600000Y-50880000D02*
X121600000Y-51335000D01*
D18*
G04 #@! TO.N,+3V3*
X119700000Y-50880000D02*
X119700000Y-52705000D01*
X121285000Y-52705000D02*
X119700000Y-52705000D01*
X121920000Y-53340000D02*
X121285000Y-52705000D01*
X121920000Y-55880000D02*
X121920000Y-53340000D01*
X119770000Y-55880000D02*
X121920000Y-55880000D01*
D19*
G04 #@! TO.N,/PA28_RST*
X127000000Y-45720000D02*
X129540000Y-45720000D01*
G04 #@! TO.N,/SWDIO*
X123859989Y-61595000D02*
X123859989Y-55845011D01*
X125095000Y-48895000D02*
X124460000Y-48260000D01*
X124460000Y-48260000D02*
X123609990Y-48260000D01*
X123859989Y-55845011D02*
X125095000Y-54610000D01*
X125095000Y-54610000D02*
X125095000Y-48895000D01*
X121446988Y-64008001D02*
X123859989Y-61595000D01*
X121411999Y-64008001D02*
X121446988Y-64008001D01*
X120650000Y-64770000D02*
X121411999Y-64008001D01*
G04 #@! TO.N,/PA23_LED*
X127850010Y-55488794D02*
X127850010Y-56054479D01*
X129540000Y-53340000D02*
X127850010Y-55029990D01*
X127850010Y-55029990D02*
X127850010Y-55488794D01*
X114935000Y-53975000D02*
X114935000Y-57785000D01*
X114935000Y-57785000D02*
X118872000Y-61722000D01*
X118872000Y-62172301D02*
X118872000Y-62737986D01*
X118872000Y-61722000D02*
X118872000Y-62172301D01*
G04 #@! TO.N,/PA05*
X114187740Y-55767740D02*
X114187740Y-57283490D01*
X111760000Y-53340000D02*
X114187740Y-55767740D01*
X114187740Y-57283490D02*
X114187740Y-57849175D01*
G04 #@! TO.N,/SWCLK*
X125730000Y-48325284D02*
X125514990Y-48110274D01*
X125730000Y-48475010D02*
X125730000Y-48325284D01*
X125730000Y-48475010D02*
X125730000Y-64770000D01*
G04 #@! TO.N,/PA25_UDP*
X127850010Y-52139315D02*
X127850010Y-52705000D01*
X127850010Y-49949990D02*
X127850010Y-52139315D01*
X129540000Y-48260000D02*
X127850010Y-49949990D01*
G04 #@! TD*
D20*
G04 #@! TO.N,GND*
G36*
X114066673Y-42120301D02*
X113970000Y-42353690D01*
X113970000Y-42894250D01*
X114128750Y-43053000D01*
X115053000Y-43053000D01*
X115053000Y-43033000D01*
X115307000Y-43033000D01*
X115307000Y-43053000D01*
X115327000Y-43053000D01*
X115327000Y-43307000D01*
X115307000Y-43307000D01*
X115307000Y-43327000D01*
X115053000Y-43327000D01*
X115053000Y-43307000D01*
X114128750Y-43307000D01*
X113970000Y-43465750D01*
X113970000Y-44006310D01*
X114066673Y-44239699D01*
X114245302Y-44418327D01*
X114478691Y-44515000D01*
X114894250Y-44515000D01*
X115052998Y-44356252D01*
X115052998Y-44471309D01*
X114925873Y-44661564D01*
X114857560Y-45004999D01*
X114857560Y-45655001D01*
X114925873Y-45998436D01*
X115120414Y-46289586D01*
X115121597Y-46290377D01*
X114966673Y-46445302D01*
X114870000Y-46678691D01*
X114870000Y-47094250D01*
X115028750Y-47253000D01*
X116078000Y-47253000D01*
X116078000Y-47233000D01*
X116332000Y-47233000D01*
X116332000Y-47253000D01*
X117381250Y-47253000D01*
X117540000Y-47094250D01*
X117540000Y-46678691D01*
X117443327Y-46445302D01*
X117288403Y-46290377D01*
X117289586Y-46289586D01*
X117484127Y-45998436D01*
X117552440Y-45655001D01*
X117552440Y-45482717D01*
X117714903Y-45320254D01*
X117739016Y-45615422D01*
X117831454Y-45838586D01*
X118036159Y-45863156D01*
X118573015Y-45326300D01*
X118558873Y-45312158D01*
X118738478Y-45132553D01*
X118752620Y-45146695D01*
X119289476Y-44609839D01*
X119264906Y-44405134D01*
X118873396Y-44279210D01*
X118463498Y-44312696D01*
X118240334Y-44405134D01*
X118215764Y-44609836D01*
X118098869Y-44492941D01*
X118015000Y-44576810D01*
X118015000Y-44381241D01*
X118189586Y-44264586D01*
X118384127Y-43973436D01*
X118452440Y-43630001D01*
X118452440Y-42968691D01*
X123125000Y-42968691D01*
X123125000Y-43384250D01*
X123283750Y-43543000D01*
X124333000Y-43543000D01*
X124333000Y-42618750D01*
X124587000Y-42618750D01*
X124587000Y-43543000D01*
X125636250Y-43543000D01*
X125730000Y-43449250D01*
X125823750Y-43543000D01*
X126873000Y-43543000D01*
X126873000Y-42618750D01*
X126714250Y-42460000D01*
X126173690Y-42460000D01*
X125940301Y-42556673D01*
X125761673Y-42735302D01*
X125730000Y-42811767D01*
X125698327Y-42735302D01*
X125519699Y-42556673D01*
X125286310Y-42460000D01*
X124745750Y-42460000D01*
X124587000Y-42618750D01*
X124333000Y-42618750D01*
X124174250Y-42460000D01*
X123633690Y-42460000D01*
X123400301Y-42556673D01*
X123221673Y-42735302D01*
X123125000Y-42968691D01*
X118452440Y-42968691D01*
X118452440Y-42729999D01*
X118384127Y-42386564D01*
X118189586Y-42095414D01*
X118061755Y-42010000D01*
X128635692Y-42010000D01*
X128268355Y-42413076D01*
X128165187Y-42662161D01*
X128059699Y-42556673D01*
X127826310Y-42460000D01*
X127285750Y-42460000D01*
X127127000Y-42618750D01*
X127127000Y-43543000D01*
X127147000Y-43543000D01*
X127147000Y-43797000D01*
X127127000Y-43797000D01*
X127127000Y-43817000D01*
X126873000Y-43817000D01*
X126873000Y-43797000D01*
X125823750Y-43797000D01*
X125730000Y-43890750D01*
X125636250Y-43797000D01*
X124587000Y-43797000D01*
X124587000Y-43817000D01*
X124333000Y-43817000D01*
X124333000Y-43797000D01*
X123283750Y-43797000D01*
X123125000Y-43955750D01*
X123125000Y-44371309D01*
X123155043Y-44443840D01*
X123114737Y-44443840D01*
X122755552Y-44295060D01*
X122344288Y-44295060D01*
X121964331Y-44452444D01*
X121673524Y-44743251D01*
X121524743Y-45102438D01*
X121233422Y-45393760D01*
X120408400Y-45393760D01*
X120321239Y-45376423D01*
X120234078Y-45393760D01*
X120234075Y-45393760D01*
X120029492Y-45434454D01*
X119975930Y-45445108D01*
X119757085Y-45591336D01*
X119757084Y-45591337D01*
X119752277Y-45594549D01*
X119799710Y-45447076D01*
X119766224Y-45037178D01*
X119673786Y-44814014D01*
X119469081Y-44789444D01*
X118932225Y-45326300D01*
X118946368Y-45340443D01*
X118766763Y-45520048D01*
X118752620Y-45505905D01*
X118215764Y-46042761D01*
X118240334Y-46247466D01*
X118631844Y-46373390D01*
X119008024Y-46342659D01*
X118866348Y-46554691D01*
X118797663Y-46900000D01*
X118815001Y-46987165D01*
X118815001Y-47095128D01*
X118776843Y-47152235D01*
X118727560Y-47400000D01*
X118727560Y-48960000D01*
X118776843Y-49207765D01*
X118917191Y-49417809D01*
X119085095Y-49530000D01*
X118917191Y-49642191D01*
X118776843Y-49852235D01*
X118727560Y-50100000D01*
X118727560Y-51660000D01*
X118776843Y-51907765D01*
X118815001Y-51964871D01*
X118815001Y-52252349D01*
X118810414Y-52255414D01*
X118809623Y-52256597D01*
X118654698Y-52101673D01*
X118421309Y-52005000D01*
X118005750Y-52005000D01*
X117847000Y-52163750D01*
X117847000Y-53213000D01*
X117867000Y-53213000D01*
X117867000Y-53467000D01*
X117847000Y-53467000D01*
X117847000Y-54516250D01*
X117940750Y-54610000D01*
X117847000Y-54703750D01*
X117847000Y-55753000D01*
X117867000Y-55753000D01*
X117867000Y-56007000D01*
X117847000Y-56007000D01*
X117847000Y-57056250D01*
X118005750Y-57215000D01*
X118421309Y-57215000D01*
X118654698Y-57118327D01*
X118809623Y-56963403D01*
X118810414Y-56964586D01*
X119101564Y-57159127D01*
X119444999Y-57227440D01*
X120095001Y-57227440D01*
X120438436Y-57159127D01*
X120729586Y-56964586D01*
X120845000Y-56791857D01*
X120960414Y-56964586D01*
X121251564Y-57159127D01*
X121594999Y-57227440D01*
X122245001Y-57227440D01*
X122588436Y-57159127D01*
X122879586Y-56964586D01*
X122945000Y-56866687D01*
X123010414Y-56964586D01*
X123074990Y-57007734D01*
X123074989Y-61269843D01*
X121017038Y-63327794D01*
X120941154Y-63378498D01*
X120927881Y-63373000D01*
X120372119Y-63373000D01*
X119858663Y-63585680D01*
X119465680Y-63978663D01*
X119253000Y-64492119D01*
X119253000Y-65047881D01*
X119465680Y-65561337D01*
X119858663Y-65954320D01*
X120372119Y-66167000D01*
X120927881Y-66167000D01*
X121441337Y-65954320D01*
X121645444Y-65750213D01*
X122389392Y-65750213D01*
X122458857Y-65992397D01*
X122982302Y-66179144D01*
X123537368Y-66151362D01*
X123921143Y-65992397D01*
X123990608Y-65750213D01*
X123190000Y-64949605D01*
X122389392Y-65750213D01*
X121645444Y-65750213D01*
X121834320Y-65561337D01*
X121913428Y-65370353D01*
X121967603Y-65501143D01*
X122209787Y-65570608D01*
X123010395Y-64770000D01*
X122996253Y-64755858D01*
X123175858Y-64576253D01*
X123190000Y-64590395D01*
X123990608Y-63789787D01*
X123921143Y-63547603D01*
X123397698Y-63360856D01*
X123194100Y-63371046D01*
X124360397Y-62204749D01*
X124425942Y-62160953D01*
X124599443Y-61901292D01*
X124644989Y-61672316D01*
X124644989Y-61672312D01*
X124660367Y-61595000D01*
X124644989Y-61517688D01*
X124644989Y-57154748D01*
X124929586Y-56964586D01*
X124945001Y-56941517D01*
X124945001Y-63583055D01*
X124938663Y-63585680D01*
X124545680Y-63978663D01*
X124466572Y-64169647D01*
X124412397Y-64038857D01*
X124170213Y-63969392D01*
X123369605Y-64770000D01*
X124170213Y-65570608D01*
X124412397Y-65501143D01*
X124462535Y-65360607D01*
X124545680Y-65561337D01*
X124938663Y-65954320D01*
X125452119Y-66167000D01*
X126007881Y-66167000D01*
X126521337Y-65954320D01*
X126775466Y-65700191D01*
X126801348Y-65830309D01*
X126947576Y-66049154D01*
X126947578Y-66049156D01*
X126996952Y-66123049D01*
X127070845Y-66172423D01*
X127502575Y-66604153D01*
X127551951Y-66678049D01*
X127844690Y-66873652D01*
X128047326Y-66913959D01*
X128091843Y-67137765D01*
X128140109Y-67210000D01*
X112664308Y-67210000D01*
X113031645Y-66806924D01*
X113201476Y-66396890D01*
X113080155Y-66167000D01*
X111887000Y-66167000D01*
X111887000Y-66187000D01*
X111633000Y-66187000D01*
X111633000Y-66167000D01*
X111613000Y-66167000D01*
X111613000Y-65913000D01*
X111633000Y-65913000D01*
X111633000Y-65893000D01*
X111887000Y-65893000D01*
X111887000Y-65913000D01*
X113080155Y-65913000D01*
X113201476Y-65683110D01*
X113031645Y-65273076D01*
X112641358Y-64844817D01*
X112511522Y-64783843D01*
X112830625Y-64570625D01*
X113158839Y-64079418D01*
X113274092Y-63500000D01*
X113158839Y-62920582D01*
X112830625Y-62429375D01*
X112532239Y-62230000D01*
X112830625Y-62030625D01*
X113158839Y-61539418D01*
X113274092Y-60960000D01*
X113158839Y-60380582D01*
X112830625Y-59889375D01*
X112532239Y-59690000D01*
X112830625Y-59490625D01*
X113158839Y-58999418D01*
X113274092Y-58420000D01*
X113246546Y-58281518D01*
X113310309Y-58435455D01*
X113601460Y-58726606D01*
X113981866Y-58884175D01*
X114393614Y-58884175D01*
X114768666Y-58728824D01*
X118087000Y-62047158D01*
X118087000Y-62059275D01*
X117994569Y-62151706D01*
X117837000Y-62532112D01*
X117837000Y-62943860D01*
X117994569Y-63324266D01*
X118285720Y-63615417D01*
X118666126Y-63772986D01*
X119077874Y-63772986D01*
X119458280Y-63615417D01*
X119749431Y-63324266D01*
X119907000Y-62943860D01*
X119907000Y-62532112D01*
X119749431Y-62151706D01*
X119657000Y-62059275D01*
X119657000Y-61799312D01*
X119672378Y-61722000D01*
X119657000Y-61644688D01*
X119657000Y-61644684D01*
X119611454Y-61415708D01*
X119582197Y-61371922D01*
X119481749Y-61221591D01*
X119481747Y-61221589D01*
X119437953Y-61156047D01*
X119372411Y-61112253D01*
X115720000Y-57459843D01*
X115720000Y-56165750D01*
X116510000Y-56165750D01*
X116510000Y-56706310D01*
X116606673Y-56939699D01*
X116785302Y-57118327D01*
X117018691Y-57215000D01*
X117434250Y-57215000D01*
X117593000Y-57056250D01*
X117593000Y-56007000D01*
X116668750Y-56007000D01*
X116510000Y-56165750D01*
X115720000Y-56165750D01*
X115720000Y-54653711D01*
X115812431Y-54561280D01*
X115970000Y-54180874D01*
X115970000Y-53769126D01*
X115910612Y-53625750D01*
X116510000Y-53625750D01*
X116510000Y-54166310D01*
X116606673Y-54399699D01*
X116785302Y-54578327D01*
X116861767Y-54610000D01*
X116785302Y-54641673D01*
X116606673Y-54820301D01*
X116510000Y-55053690D01*
X116510000Y-55594250D01*
X116668750Y-55753000D01*
X117593000Y-55753000D01*
X117593000Y-54703750D01*
X117499250Y-54610000D01*
X117593000Y-54516250D01*
X117593000Y-53467000D01*
X116668750Y-53467000D01*
X116510000Y-53625750D01*
X115910612Y-53625750D01*
X115812431Y-53388720D01*
X115521280Y-53097569D01*
X115140874Y-52940000D01*
X114729126Y-52940000D01*
X114348720Y-53097569D01*
X114057569Y-53388720D01*
X113900000Y-53769126D01*
X113900000Y-54180874D01*
X114033620Y-54503463D01*
X113207075Y-53676918D01*
X113274092Y-53340000D01*
X113158839Y-52760582D01*
X112993872Y-52513690D01*
X116510000Y-52513690D01*
X116510000Y-53054250D01*
X116668750Y-53213000D01*
X117593000Y-53213000D01*
X117593000Y-52163750D01*
X117434250Y-52005000D01*
X117018691Y-52005000D01*
X116785302Y-52101673D01*
X116606673Y-52280301D01*
X116510000Y-52513690D01*
X112993872Y-52513690D01*
X112830625Y-52269375D01*
X112532239Y-52070000D01*
X112830625Y-51870625D01*
X113158839Y-51379418D01*
X113274092Y-50800000D01*
X113158839Y-50220582D01*
X112830625Y-49729375D01*
X112532239Y-49530000D01*
X112830625Y-49330625D01*
X113158839Y-48839418D01*
X113274092Y-48260000D01*
X113158839Y-47680582D01*
X113148929Y-47665750D01*
X114870000Y-47665750D01*
X114870000Y-48081309D01*
X114966673Y-48314698D01*
X115145301Y-48493327D01*
X115378690Y-48590000D01*
X115919250Y-48590000D01*
X116078000Y-48431250D01*
X116078000Y-47507000D01*
X116332000Y-47507000D01*
X116332000Y-48431250D01*
X116490750Y-48590000D01*
X117031310Y-48590000D01*
X117264699Y-48493327D01*
X117443327Y-48314698D01*
X117540000Y-48081309D01*
X117540000Y-47665750D01*
X117381250Y-47507000D01*
X116332000Y-47507000D01*
X116078000Y-47507000D01*
X115028750Y-47507000D01*
X114870000Y-47665750D01*
X113148929Y-47665750D01*
X112830625Y-47189375D01*
X112532239Y-46990000D01*
X112830625Y-46790625D01*
X113158839Y-46299418D01*
X113274092Y-45720000D01*
X113158839Y-45140582D01*
X112830625Y-44649375D01*
X112812381Y-44637184D01*
X112857765Y-44628157D01*
X113067809Y-44487809D01*
X113208157Y-44277765D01*
X113257440Y-44030000D01*
X113257440Y-42330000D01*
X113208157Y-42082235D01*
X113159891Y-42010000D01*
X114176975Y-42010000D01*
X114066673Y-42120301D01*
X114066673Y-42120301D01*
G37*
X114066673Y-42120301D02*
X113970000Y-42353690D01*
X113970000Y-42894250D01*
X114128750Y-43053000D01*
X115053000Y-43053000D01*
X115053000Y-43033000D01*
X115307000Y-43033000D01*
X115307000Y-43053000D01*
X115327000Y-43053000D01*
X115327000Y-43307000D01*
X115307000Y-43307000D01*
X115307000Y-43327000D01*
X115053000Y-43327000D01*
X115053000Y-43307000D01*
X114128750Y-43307000D01*
X113970000Y-43465750D01*
X113970000Y-44006310D01*
X114066673Y-44239699D01*
X114245302Y-44418327D01*
X114478691Y-44515000D01*
X114894250Y-44515000D01*
X115052998Y-44356252D01*
X115052998Y-44471309D01*
X114925873Y-44661564D01*
X114857560Y-45004999D01*
X114857560Y-45655001D01*
X114925873Y-45998436D01*
X115120414Y-46289586D01*
X115121597Y-46290377D01*
X114966673Y-46445302D01*
X114870000Y-46678691D01*
X114870000Y-47094250D01*
X115028750Y-47253000D01*
X116078000Y-47253000D01*
X116078000Y-47233000D01*
X116332000Y-47233000D01*
X116332000Y-47253000D01*
X117381250Y-47253000D01*
X117540000Y-47094250D01*
X117540000Y-46678691D01*
X117443327Y-46445302D01*
X117288403Y-46290377D01*
X117289586Y-46289586D01*
X117484127Y-45998436D01*
X117552440Y-45655001D01*
X117552440Y-45482717D01*
X117714903Y-45320254D01*
X117739016Y-45615422D01*
X117831454Y-45838586D01*
X118036159Y-45863156D01*
X118573015Y-45326300D01*
X118558873Y-45312158D01*
X118738478Y-45132553D01*
X118752620Y-45146695D01*
X119289476Y-44609839D01*
X119264906Y-44405134D01*
X118873396Y-44279210D01*
X118463498Y-44312696D01*
X118240334Y-44405134D01*
X118215764Y-44609836D01*
X118098869Y-44492941D01*
X118015000Y-44576810D01*
X118015000Y-44381241D01*
X118189586Y-44264586D01*
X118384127Y-43973436D01*
X118452440Y-43630001D01*
X118452440Y-42968691D01*
X123125000Y-42968691D01*
X123125000Y-43384250D01*
X123283750Y-43543000D01*
X124333000Y-43543000D01*
X124333000Y-42618750D01*
X124587000Y-42618750D01*
X124587000Y-43543000D01*
X125636250Y-43543000D01*
X125730000Y-43449250D01*
X125823750Y-43543000D01*
X126873000Y-43543000D01*
X126873000Y-42618750D01*
X126714250Y-42460000D01*
X126173690Y-42460000D01*
X125940301Y-42556673D01*
X125761673Y-42735302D01*
X125730000Y-42811767D01*
X125698327Y-42735302D01*
X125519699Y-42556673D01*
X125286310Y-42460000D01*
X124745750Y-42460000D01*
X124587000Y-42618750D01*
X124333000Y-42618750D01*
X124174250Y-42460000D01*
X123633690Y-42460000D01*
X123400301Y-42556673D01*
X123221673Y-42735302D01*
X123125000Y-42968691D01*
X118452440Y-42968691D01*
X118452440Y-42729999D01*
X118384127Y-42386564D01*
X118189586Y-42095414D01*
X118061755Y-42010000D01*
X128635692Y-42010000D01*
X128268355Y-42413076D01*
X128165187Y-42662161D01*
X128059699Y-42556673D01*
X127826310Y-42460000D01*
X127285750Y-42460000D01*
X127127000Y-42618750D01*
X127127000Y-43543000D01*
X127147000Y-43543000D01*
X127147000Y-43797000D01*
X127127000Y-43797000D01*
X127127000Y-43817000D01*
X126873000Y-43817000D01*
X126873000Y-43797000D01*
X125823750Y-43797000D01*
X125730000Y-43890750D01*
X125636250Y-43797000D01*
X124587000Y-43797000D01*
X124587000Y-43817000D01*
X124333000Y-43817000D01*
X124333000Y-43797000D01*
X123283750Y-43797000D01*
X123125000Y-43955750D01*
X123125000Y-44371309D01*
X123155043Y-44443840D01*
X123114737Y-44443840D01*
X122755552Y-44295060D01*
X122344288Y-44295060D01*
X121964331Y-44452444D01*
X121673524Y-44743251D01*
X121524743Y-45102438D01*
X121233422Y-45393760D01*
X120408400Y-45393760D01*
X120321239Y-45376423D01*
X120234078Y-45393760D01*
X120234075Y-45393760D01*
X120029492Y-45434454D01*
X119975930Y-45445108D01*
X119757085Y-45591336D01*
X119757084Y-45591337D01*
X119752277Y-45594549D01*
X119799710Y-45447076D01*
X119766224Y-45037178D01*
X119673786Y-44814014D01*
X119469081Y-44789444D01*
X118932225Y-45326300D01*
X118946368Y-45340443D01*
X118766763Y-45520048D01*
X118752620Y-45505905D01*
X118215764Y-46042761D01*
X118240334Y-46247466D01*
X118631844Y-46373390D01*
X119008024Y-46342659D01*
X118866348Y-46554691D01*
X118797663Y-46900000D01*
X118815001Y-46987165D01*
X118815001Y-47095128D01*
X118776843Y-47152235D01*
X118727560Y-47400000D01*
X118727560Y-48960000D01*
X118776843Y-49207765D01*
X118917191Y-49417809D01*
X119085095Y-49530000D01*
X118917191Y-49642191D01*
X118776843Y-49852235D01*
X118727560Y-50100000D01*
X118727560Y-51660000D01*
X118776843Y-51907765D01*
X118815001Y-51964871D01*
X118815001Y-52252349D01*
X118810414Y-52255414D01*
X118809623Y-52256597D01*
X118654698Y-52101673D01*
X118421309Y-52005000D01*
X118005750Y-52005000D01*
X117847000Y-52163750D01*
X117847000Y-53213000D01*
X117867000Y-53213000D01*
X117867000Y-53467000D01*
X117847000Y-53467000D01*
X117847000Y-54516250D01*
X117940750Y-54610000D01*
X117847000Y-54703750D01*
X117847000Y-55753000D01*
X117867000Y-55753000D01*
X117867000Y-56007000D01*
X117847000Y-56007000D01*
X117847000Y-57056250D01*
X118005750Y-57215000D01*
X118421309Y-57215000D01*
X118654698Y-57118327D01*
X118809623Y-56963403D01*
X118810414Y-56964586D01*
X119101564Y-57159127D01*
X119444999Y-57227440D01*
X120095001Y-57227440D01*
X120438436Y-57159127D01*
X120729586Y-56964586D01*
X120845000Y-56791857D01*
X120960414Y-56964586D01*
X121251564Y-57159127D01*
X121594999Y-57227440D01*
X122245001Y-57227440D01*
X122588436Y-57159127D01*
X122879586Y-56964586D01*
X122945000Y-56866687D01*
X123010414Y-56964586D01*
X123074990Y-57007734D01*
X123074989Y-61269843D01*
X121017038Y-63327794D01*
X120941154Y-63378498D01*
X120927881Y-63373000D01*
X120372119Y-63373000D01*
X119858663Y-63585680D01*
X119465680Y-63978663D01*
X119253000Y-64492119D01*
X119253000Y-65047881D01*
X119465680Y-65561337D01*
X119858663Y-65954320D01*
X120372119Y-66167000D01*
X120927881Y-66167000D01*
X121441337Y-65954320D01*
X121645444Y-65750213D01*
X122389392Y-65750213D01*
X122458857Y-65992397D01*
X122982302Y-66179144D01*
X123537368Y-66151362D01*
X123921143Y-65992397D01*
X123990608Y-65750213D01*
X123190000Y-64949605D01*
X122389392Y-65750213D01*
X121645444Y-65750213D01*
X121834320Y-65561337D01*
X121913428Y-65370353D01*
X121967603Y-65501143D01*
X122209787Y-65570608D01*
X123010395Y-64770000D01*
X122996253Y-64755858D01*
X123175858Y-64576253D01*
X123190000Y-64590395D01*
X123990608Y-63789787D01*
X123921143Y-63547603D01*
X123397698Y-63360856D01*
X123194100Y-63371046D01*
X124360397Y-62204749D01*
X124425942Y-62160953D01*
X124599443Y-61901292D01*
X124644989Y-61672316D01*
X124644989Y-61672312D01*
X124660367Y-61595000D01*
X124644989Y-61517688D01*
X124644989Y-57154748D01*
X124929586Y-56964586D01*
X124945001Y-56941517D01*
X124945001Y-63583055D01*
X124938663Y-63585680D01*
X124545680Y-63978663D01*
X124466572Y-64169647D01*
X124412397Y-64038857D01*
X124170213Y-63969392D01*
X123369605Y-64770000D01*
X124170213Y-65570608D01*
X124412397Y-65501143D01*
X124462535Y-65360607D01*
X124545680Y-65561337D01*
X124938663Y-65954320D01*
X125452119Y-66167000D01*
X126007881Y-66167000D01*
X126521337Y-65954320D01*
X126775466Y-65700191D01*
X126801348Y-65830309D01*
X126947576Y-66049154D01*
X126947578Y-66049156D01*
X126996952Y-66123049D01*
X127070845Y-66172423D01*
X127502575Y-66604153D01*
X127551951Y-66678049D01*
X127844690Y-66873652D01*
X128047326Y-66913959D01*
X128091843Y-67137765D01*
X128140109Y-67210000D01*
X112664308Y-67210000D01*
X113031645Y-66806924D01*
X113201476Y-66396890D01*
X113080155Y-66167000D01*
X111887000Y-66167000D01*
X111887000Y-66187000D01*
X111633000Y-66187000D01*
X111633000Y-66167000D01*
X111613000Y-66167000D01*
X111613000Y-65913000D01*
X111633000Y-65913000D01*
X111633000Y-65893000D01*
X111887000Y-65893000D01*
X111887000Y-65913000D01*
X113080155Y-65913000D01*
X113201476Y-65683110D01*
X113031645Y-65273076D01*
X112641358Y-64844817D01*
X112511522Y-64783843D01*
X112830625Y-64570625D01*
X113158839Y-64079418D01*
X113274092Y-63500000D01*
X113158839Y-62920582D01*
X112830625Y-62429375D01*
X112532239Y-62230000D01*
X112830625Y-62030625D01*
X113158839Y-61539418D01*
X113274092Y-60960000D01*
X113158839Y-60380582D01*
X112830625Y-59889375D01*
X112532239Y-59690000D01*
X112830625Y-59490625D01*
X113158839Y-58999418D01*
X113274092Y-58420000D01*
X113246546Y-58281518D01*
X113310309Y-58435455D01*
X113601460Y-58726606D01*
X113981866Y-58884175D01*
X114393614Y-58884175D01*
X114768666Y-58728824D01*
X118087000Y-62047158D01*
X118087000Y-62059275D01*
X117994569Y-62151706D01*
X117837000Y-62532112D01*
X117837000Y-62943860D01*
X117994569Y-63324266D01*
X118285720Y-63615417D01*
X118666126Y-63772986D01*
X119077874Y-63772986D01*
X119458280Y-63615417D01*
X119749431Y-63324266D01*
X119907000Y-62943860D01*
X119907000Y-62532112D01*
X119749431Y-62151706D01*
X119657000Y-62059275D01*
X119657000Y-61799312D01*
X119672378Y-61722000D01*
X119657000Y-61644688D01*
X119657000Y-61644684D01*
X119611454Y-61415708D01*
X119582197Y-61371922D01*
X119481749Y-61221591D01*
X119481747Y-61221589D01*
X119437953Y-61156047D01*
X119372411Y-61112253D01*
X115720000Y-57459843D01*
X115720000Y-56165750D01*
X116510000Y-56165750D01*
X116510000Y-56706310D01*
X116606673Y-56939699D01*
X116785302Y-57118327D01*
X117018691Y-57215000D01*
X117434250Y-57215000D01*
X117593000Y-57056250D01*
X117593000Y-56007000D01*
X116668750Y-56007000D01*
X116510000Y-56165750D01*
X115720000Y-56165750D01*
X115720000Y-54653711D01*
X115812431Y-54561280D01*
X115970000Y-54180874D01*
X115970000Y-53769126D01*
X115910612Y-53625750D01*
X116510000Y-53625750D01*
X116510000Y-54166310D01*
X116606673Y-54399699D01*
X116785302Y-54578327D01*
X116861767Y-54610000D01*
X116785302Y-54641673D01*
X116606673Y-54820301D01*
X116510000Y-55053690D01*
X116510000Y-55594250D01*
X116668750Y-55753000D01*
X117593000Y-55753000D01*
X117593000Y-54703750D01*
X117499250Y-54610000D01*
X117593000Y-54516250D01*
X117593000Y-53467000D01*
X116668750Y-53467000D01*
X116510000Y-53625750D01*
X115910612Y-53625750D01*
X115812431Y-53388720D01*
X115521280Y-53097569D01*
X115140874Y-52940000D01*
X114729126Y-52940000D01*
X114348720Y-53097569D01*
X114057569Y-53388720D01*
X113900000Y-53769126D01*
X113900000Y-54180874D01*
X114033620Y-54503463D01*
X113207075Y-53676918D01*
X113274092Y-53340000D01*
X113158839Y-52760582D01*
X112993872Y-52513690D01*
X116510000Y-52513690D01*
X116510000Y-53054250D01*
X116668750Y-53213000D01*
X117593000Y-53213000D01*
X117593000Y-52163750D01*
X117434250Y-52005000D01*
X117018691Y-52005000D01*
X116785302Y-52101673D01*
X116606673Y-52280301D01*
X116510000Y-52513690D01*
X112993872Y-52513690D01*
X112830625Y-52269375D01*
X112532239Y-52070000D01*
X112830625Y-51870625D01*
X113158839Y-51379418D01*
X113274092Y-50800000D01*
X113158839Y-50220582D01*
X112830625Y-49729375D01*
X112532239Y-49530000D01*
X112830625Y-49330625D01*
X113158839Y-48839418D01*
X113274092Y-48260000D01*
X113158839Y-47680582D01*
X113148929Y-47665750D01*
X114870000Y-47665750D01*
X114870000Y-48081309D01*
X114966673Y-48314698D01*
X115145301Y-48493327D01*
X115378690Y-48590000D01*
X115919250Y-48590000D01*
X116078000Y-48431250D01*
X116078000Y-47507000D01*
X116332000Y-47507000D01*
X116332000Y-48431250D01*
X116490750Y-48590000D01*
X117031310Y-48590000D01*
X117264699Y-48493327D01*
X117443327Y-48314698D01*
X117540000Y-48081309D01*
X117540000Y-47665750D01*
X117381250Y-47507000D01*
X116332000Y-47507000D01*
X116078000Y-47507000D01*
X115028750Y-47507000D01*
X114870000Y-47665750D01*
X113148929Y-47665750D01*
X112830625Y-47189375D01*
X112532239Y-46990000D01*
X112830625Y-46790625D01*
X113158839Y-46299418D01*
X113274092Y-45720000D01*
X113158839Y-45140582D01*
X112830625Y-44649375D01*
X112812381Y-44637184D01*
X112857765Y-44628157D01*
X113067809Y-44487809D01*
X113208157Y-44277765D01*
X113257440Y-44030000D01*
X113257440Y-42330000D01*
X113208157Y-42082235D01*
X113159891Y-42010000D01*
X114176975Y-42010000D01*
X114066673Y-42120301D01*
G36*
X122574990Y-48465874D02*
X122732559Y-48846280D01*
X123023710Y-49137431D01*
X123404116Y-49295000D01*
X123815864Y-49295000D01*
X124196270Y-49137431D01*
X124211772Y-49121929D01*
X124310001Y-49220158D01*
X124310001Y-49835000D01*
X124110750Y-49835000D01*
X123952000Y-49993750D01*
X123952000Y-50918000D01*
X123972000Y-50918000D01*
X123972000Y-51172000D01*
X123952000Y-51172000D01*
X123952000Y-51192000D01*
X123698000Y-51192000D01*
X123698000Y-51172000D01*
X123678000Y-51172000D01*
X123678000Y-50918000D01*
X123698000Y-50918000D01*
X123698000Y-49993750D01*
X123539250Y-49835000D01*
X122998690Y-49835000D01*
X122765301Y-49931673D01*
X122586673Y-50110302D01*
X122572440Y-50144663D01*
X122572440Y-50100000D01*
X122523157Y-49852235D01*
X122382809Y-49642191D01*
X122214905Y-49530000D01*
X122382809Y-49417809D01*
X122523157Y-49207765D01*
X122572440Y-48960000D01*
X122572440Y-48129620D01*
X122574990Y-48116800D01*
X122574990Y-48465874D01*
X122574990Y-48465874D01*
G37*
X122574990Y-48465874D02*
X122732559Y-48846280D01*
X123023710Y-49137431D01*
X123404116Y-49295000D01*
X123815864Y-49295000D01*
X124196270Y-49137431D01*
X124211772Y-49121929D01*
X124310001Y-49220158D01*
X124310001Y-49835000D01*
X124110750Y-49835000D01*
X123952000Y-49993750D01*
X123952000Y-50918000D01*
X123972000Y-50918000D01*
X123972000Y-51172000D01*
X123952000Y-51172000D01*
X123952000Y-51192000D01*
X123698000Y-51192000D01*
X123698000Y-51172000D01*
X123678000Y-51172000D01*
X123678000Y-50918000D01*
X123698000Y-50918000D01*
X123698000Y-49993750D01*
X123539250Y-49835000D01*
X122998690Y-49835000D01*
X122765301Y-49931673D01*
X122586673Y-50110302D01*
X122572440Y-50144663D01*
X122572440Y-50100000D01*
X122523157Y-49852235D01*
X122382809Y-49642191D01*
X122214905Y-49530000D01*
X122382809Y-49417809D01*
X122523157Y-49207765D01*
X122572440Y-48960000D01*
X122572440Y-48129620D01*
X122574990Y-48116800D01*
X122574990Y-48465874D01*
G36*
X120676843Y-49207765D02*
X120777000Y-49357659D01*
X120777000Y-49436250D01*
X120916551Y-49575801D01*
X120817191Y-49642191D01*
X120676843Y-49852235D01*
X120650000Y-49987185D01*
X120623157Y-49852235D01*
X120482809Y-49642191D01*
X120383449Y-49575801D01*
X120523000Y-49436250D01*
X120523000Y-49357659D01*
X120623157Y-49207765D01*
X120650000Y-49072815D01*
X120676843Y-49207765D01*
X120676843Y-49207765D01*
G37*
X120676843Y-49207765D02*
X120777000Y-49357659D01*
X120777000Y-49436250D01*
X120916551Y-49575801D01*
X120817191Y-49642191D01*
X120676843Y-49852235D01*
X120650000Y-49987185D01*
X120623157Y-49852235D01*
X120482809Y-49642191D01*
X120383449Y-49575801D01*
X120523000Y-49436250D01*
X120523000Y-49357659D01*
X120623157Y-49207765D01*
X120650000Y-49072815D01*
X120676843Y-49207765D01*
G36*
X129667000Y-43053000D02*
X129687000Y-43053000D01*
X129687000Y-43307000D01*
X129667000Y-43307000D01*
X129667000Y-43327000D01*
X129413000Y-43327000D01*
X129413000Y-43307000D01*
X129393000Y-43307000D01*
X129393000Y-43053000D01*
X129413000Y-43053000D01*
X129413000Y-43033000D01*
X129667000Y-43033000D01*
X129667000Y-43053000D01*
X129667000Y-43053000D01*
G37*
X129667000Y-43053000D02*
X129687000Y-43053000D01*
X129687000Y-43307000D01*
X129667000Y-43307000D01*
X129667000Y-43327000D01*
X129413000Y-43327000D01*
X129413000Y-43307000D01*
X129393000Y-43307000D01*
X129393000Y-43053000D01*
X129413000Y-43053000D01*
X129413000Y-43033000D01*
X129667000Y-43033000D01*
X129667000Y-43053000D01*
G04 #@! TD*
M02*
