G04 #@! TF.GenerationSoftware,KiCad,Pcbnew,5.0.2-bee76a0~70~ubuntu16.04.1*
G04 #@! TF.CreationDate,2019-07-30T14:23:51+02:00*
G04 #@! TF.ProjectId,hw-BOB-ATSAMD11D,68772d42-4f42-42d4-9154-53414d443131,rev?*
G04 #@! TF.SameCoordinates,Original*
G04 #@! TF.FileFunction,Copper,L1,Top*
G04 #@! TF.FilePolarity,Positive*
%FSLAX46Y46*%
G04 Gerber Fmt 4.6, Leading zero omitted, Abs format (unit mm)*
G04 Created by KiCad (PCBNEW 5.0.2-bee76a0~70~ubuntu16.04.1) date Tue 30 Jul 2019 02:23:51 PM CEST*
%MOMM*%
%LPD*%
G01*
G04 APERTURE LIST*
G04 #@! TA.AperFunction,Conductor*
%ADD10C,0.100000*%
G04 #@! TD*
G04 #@! TA.AperFunction,SMDPad,CuDef*
%ADD11C,1.150000*%
G04 #@! TD*
G04 #@! TA.AperFunction,SMDPad,CuDef*
%ADD12R,0.600000X1.950000*%
G04 #@! TD*
G04 #@! TA.AperFunction,ComponentPad*
%ADD13R,1.700000X1.700000*%
G04 #@! TD*
G04 #@! TA.AperFunction,ComponentPad*
%ADD14O,1.700000X1.700000*%
G04 #@! TD*
G04 #@! TA.AperFunction,ComponentPad*
%ADD15C,1.524000*%
G04 #@! TD*
G04 #@! TA.AperFunction,SMDPad,CuDef*
%ADD16R,1.897380X1.897380*%
G04 #@! TD*
G04 #@! TA.AperFunction,SMDPad,CuDef*
%ADD17R,0.398780X2.000000*%
G04 #@! TD*
G04 #@! TA.AperFunction,ComponentPad*
%ADD18C,0.797560*%
G04 #@! TD*
G04 #@! TA.AperFunction,ViaPad*
%ADD19C,0.800000*%
G04 #@! TD*
G04 #@! TA.AperFunction,Conductor*
%ADD20C,0.400000*%
G04 #@! TD*
G04 #@! TA.AperFunction,Conductor*
%ADD21C,0.500000*%
G04 #@! TD*
G04 #@! TA.AperFunction,Conductor*
%ADD22C,0.300000*%
G04 #@! TD*
G04 #@! TA.AperFunction,Conductor*
%ADD23C,0.250000*%
G04 #@! TD*
G04 APERTURE END LIST*
D10*
G04 #@! TO.N,GND*
G04 #@! TO.C,D1*
G36*
X116044505Y-63806204D02*
X116068773Y-63809804D01*
X116092572Y-63815765D01*
X116115671Y-63824030D01*
X116137850Y-63834520D01*
X116158893Y-63847132D01*
X116178599Y-63861747D01*
X116196777Y-63878223D01*
X116213253Y-63896401D01*
X116227868Y-63916107D01*
X116240480Y-63937150D01*
X116250970Y-63959329D01*
X116259235Y-63982428D01*
X116265196Y-64006227D01*
X116268796Y-64030495D01*
X116270000Y-64054999D01*
X116270000Y-64705001D01*
X116268796Y-64729505D01*
X116265196Y-64753773D01*
X116259235Y-64777572D01*
X116250970Y-64800671D01*
X116240480Y-64822850D01*
X116227868Y-64843893D01*
X116213253Y-64863599D01*
X116196777Y-64881777D01*
X116178599Y-64898253D01*
X116158893Y-64912868D01*
X116137850Y-64925480D01*
X116115671Y-64935970D01*
X116092572Y-64944235D01*
X116068773Y-64950196D01*
X116044505Y-64953796D01*
X116020001Y-64955000D01*
X115119999Y-64955000D01*
X115095495Y-64953796D01*
X115071227Y-64950196D01*
X115047428Y-64944235D01*
X115024329Y-64935970D01*
X115002150Y-64925480D01*
X114981107Y-64912868D01*
X114961401Y-64898253D01*
X114943223Y-64881777D01*
X114926747Y-64863599D01*
X114912132Y-64843893D01*
X114899520Y-64822850D01*
X114889030Y-64800671D01*
X114880765Y-64777572D01*
X114874804Y-64753773D01*
X114871204Y-64729505D01*
X114870000Y-64705001D01*
X114870000Y-64054999D01*
X114871204Y-64030495D01*
X114874804Y-64006227D01*
X114880765Y-63982428D01*
X114889030Y-63959329D01*
X114899520Y-63937150D01*
X114912132Y-63916107D01*
X114926747Y-63896401D01*
X114943223Y-63878223D01*
X114961401Y-63861747D01*
X114981107Y-63847132D01*
X115002150Y-63834520D01*
X115024329Y-63824030D01*
X115047428Y-63815765D01*
X115071227Y-63809804D01*
X115095495Y-63806204D01*
X115119999Y-63805000D01*
X116020001Y-63805000D01*
X116044505Y-63806204D01*
X116044505Y-63806204D01*
G37*
D11*
G04 #@! TD*
G04 #@! TO.P,D1,1*
G04 #@! TO.N,GND*
X115570000Y-64380000D03*
D10*
G04 #@! TO.N,Net-(D1-Pad2)*
G04 #@! TO.C,D1*
G36*
X116044505Y-65856204D02*
X116068773Y-65859804D01*
X116092572Y-65865765D01*
X116115671Y-65874030D01*
X116137850Y-65884520D01*
X116158893Y-65897132D01*
X116178599Y-65911747D01*
X116196777Y-65928223D01*
X116213253Y-65946401D01*
X116227868Y-65966107D01*
X116240480Y-65987150D01*
X116250970Y-66009329D01*
X116259235Y-66032428D01*
X116265196Y-66056227D01*
X116268796Y-66080495D01*
X116270000Y-66104999D01*
X116270000Y-66755001D01*
X116268796Y-66779505D01*
X116265196Y-66803773D01*
X116259235Y-66827572D01*
X116250970Y-66850671D01*
X116240480Y-66872850D01*
X116227868Y-66893893D01*
X116213253Y-66913599D01*
X116196777Y-66931777D01*
X116178599Y-66948253D01*
X116158893Y-66962868D01*
X116137850Y-66975480D01*
X116115671Y-66985970D01*
X116092572Y-66994235D01*
X116068773Y-67000196D01*
X116044505Y-67003796D01*
X116020001Y-67005000D01*
X115119999Y-67005000D01*
X115095495Y-67003796D01*
X115071227Y-67000196D01*
X115047428Y-66994235D01*
X115024329Y-66985970D01*
X115002150Y-66975480D01*
X114981107Y-66962868D01*
X114961401Y-66948253D01*
X114943223Y-66931777D01*
X114926747Y-66913599D01*
X114912132Y-66893893D01*
X114899520Y-66872850D01*
X114889030Y-66850671D01*
X114880765Y-66827572D01*
X114874804Y-66803773D01*
X114871204Y-66779505D01*
X114870000Y-66755001D01*
X114870000Y-66104999D01*
X114871204Y-66080495D01*
X114874804Y-66056227D01*
X114880765Y-66032428D01*
X114889030Y-66009329D01*
X114899520Y-65987150D01*
X114912132Y-65966107D01*
X114926747Y-65946401D01*
X114943223Y-65928223D01*
X114961401Y-65911747D01*
X114981107Y-65897132D01*
X115002150Y-65884520D01*
X115024329Y-65874030D01*
X115047428Y-65865765D01*
X115071227Y-65859804D01*
X115095495Y-65856204D01*
X115119999Y-65855000D01*
X116020001Y-65855000D01*
X116044505Y-65856204D01*
X116044505Y-65856204D01*
G37*
D11*
G04 #@! TD*
G04 #@! TO.P,D1,2*
G04 #@! TO.N,Net-(D1-Pad2)*
X115570000Y-66430000D03*
D10*
G04 #@! TO.N,/PA23_LED*
G04 #@! TO.C,R3*
G36*
X118330505Y-63806204D02*
X118354773Y-63809804D01*
X118378572Y-63815765D01*
X118401671Y-63824030D01*
X118423850Y-63834520D01*
X118444893Y-63847132D01*
X118464599Y-63861747D01*
X118482777Y-63878223D01*
X118499253Y-63896401D01*
X118513868Y-63916107D01*
X118526480Y-63937150D01*
X118536970Y-63959329D01*
X118545235Y-63982428D01*
X118551196Y-64006227D01*
X118554796Y-64030495D01*
X118556000Y-64054999D01*
X118556000Y-64705001D01*
X118554796Y-64729505D01*
X118551196Y-64753773D01*
X118545235Y-64777572D01*
X118536970Y-64800671D01*
X118526480Y-64822850D01*
X118513868Y-64843893D01*
X118499253Y-64863599D01*
X118482777Y-64881777D01*
X118464599Y-64898253D01*
X118444893Y-64912868D01*
X118423850Y-64925480D01*
X118401671Y-64935970D01*
X118378572Y-64944235D01*
X118354773Y-64950196D01*
X118330505Y-64953796D01*
X118306001Y-64955000D01*
X117405999Y-64955000D01*
X117381495Y-64953796D01*
X117357227Y-64950196D01*
X117333428Y-64944235D01*
X117310329Y-64935970D01*
X117288150Y-64925480D01*
X117267107Y-64912868D01*
X117247401Y-64898253D01*
X117229223Y-64881777D01*
X117212747Y-64863599D01*
X117198132Y-64843893D01*
X117185520Y-64822850D01*
X117175030Y-64800671D01*
X117166765Y-64777572D01*
X117160804Y-64753773D01*
X117157204Y-64729505D01*
X117156000Y-64705001D01*
X117156000Y-64054999D01*
X117157204Y-64030495D01*
X117160804Y-64006227D01*
X117166765Y-63982428D01*
X117175030Y-63959329D01*
X117185520Y-63937150D01*
X117198132Y-63916107D01*
X117212747Y-63896401D01*
X117229223Y-63878223D01*
X117247401Y-63861747D01*
X117267107Y-63847132D01*
X117288150Y-63834520D01*
X117310329Y-63824030D01*
X117333428Y-63815765D01*
X117357227Y-63809804D01*
X117381495Y-63806204D01*
X117405999Y-63805000D01*
X118306001Y-63805000D01*
X118330505Y-63806204D01*
X118330505Y-63806204D01*
G37*
D11*
G04 #@! TD*
G04 #@! TO.P,R3,2*
G04 #@! TO.N,/PA23_LED*
X117856000Y-64380000D03*
D10*
G04 #@! TO.N,Net-(D1-Pad2)*
G04 #@! TO.C,R3*
G36*
X118330505Y-65856204D02*
X118354773Y-65859804D01*
X118378572Y-65865765D01*
X118401671Y-65874030D01*
X118423850Y-65884520D01*
X118444893Y-65897132D01*
X118464599Y-65911747D01*
X118482777Y-65928223D01*
X118499253Y-65946401D01*
X118513868Y-65966107D01*
X118526480Y-65987150D01*
X118536970Y-66009329D01*
X118545235Y-66032428D01*
X118551196Y-66056227D01*
X118554796Y-66080495D01*
X118556000Y-66104999D01*
X118556000Y-66755001D01*
X118554796Y-66779505D01*
X118551196Y-66803773D01*
X118545235Y-66827572D01*
X118536970Y-66850671D01*
X118526480Y-66872850D01*
X118513868Y-66893893D01*
X118499253Y-66913599D01*
X118482777Y-66931777D01*
X118464599Y-66948253D01*
X118444893Y-66962868D01*
X118423850Y-66975480D01*
X118401671Y-66985970D01*
X118378572Y-66994235D01*
X118354773Y-67000196D01*
X118330505Y-67003796D01*
X118306001Y-67005000D01*
X117405999Y-67005000D01*
X117381495Y-67003796D01*
X117357227Y-67000196D01*
X117333428Y-66994235D01*
X117310329Y-66985970D01*
X117288150Y-66975480D01*
X117267107Y-66962868D01*
X117247401Y-66948253D01*
X117229223Y-66931777D01*
X117212747Y-66913599D01*
X117198132Y-66893893D01*
X117185520Y-66872850D01*
X117175030Y-66850671D01*
X117166765Y-66827572D01*
X117160804Y-66803773D01*
X117157204Y-66779505D01*
X117156000Y-66755001D01*
X117156000Y-66104999D01*
X117157204Y-66080495D01*
X117160804Y-66056227D01*
X117166765Y-66032428D01*
X117175030Y-66009329D01*
X117185520Y-65987150D01*
X117198132Y-65966107D01*
X117212747Y-65946401D01*
X117229223Y-65928223D01*
X117247401Y-65911747D01*
X117267107Y-65897132D01*
X117288150Y-65884520D01*
X117310329Y-65874030D01*
X117333428Y-65865765D01*
X117357227Y-65859804D01*
X117381495Y-65856204D01*
X117405999Y-65855000D01*
X118306001Y-65855000D01*
X118330505Y-65856204D01*
X118330505Y-65856204D01*
G37*
D11*
G04 #@! TD*
G04 #@! TO.P,R3,1*
G04 #@! TO.N,Net-(D1-Pad2)*
X117856000Y-66430000D03*
D12*
G04 #@! TO.P,U1,1*
G04 #@! TO.N,/PA05*
X114935000Y-59310000D03*
G04 #@! TO.P,U1,2*
G04 #@! TO.N,/PA06*
X116205000Y-59310000D03*
G04 #@! TO.P,U1,3*
G04 #@! TO.N,/PA07*
X117475000Y-59310000D03*
G04 #@! TO.P,U1,4*
G04 #@! TO.N,/PA08*
X118745000Y-59310000D03*
G04 #@! TO.P,U1,5*
G04 #@! TO.N,/PA09*
X120015000Y-59310000D03*
G04 #@! TO.P,U1,6*
G04 #@! TO.N,/PA14*
X121285000Y-59310000D03*
G04 #@! TO.P,U1,7*
G04 #@! TO.N,/PA15*
X122555000Y-59310000D03*
G04 #@! TO.P,U1,8*
G04 #@! TO.N,/PA16*
X123825000Y-59310000D03*
G04 #@! TO.P,U1,9*
G04 #@! TO.N,/PA22*
X125095000Y-59310000D03*
G04 #@! TO.P,U1,10*
G04 #@! TO.N,/PA23_LED*
X126365000Y-59310000D03*
G04 #@! TO.P,U1,11*
G04 #@! TO.N,/PA28_RST*
X126365000Y-49910000D03*
G04 #@! TO.P,U1,12*
G04 #@! TO.N,/SWCLK*
X125095000Y-49910000D03*
G04 #@! TO.P,U1,13*
G04 #@! TO.N,/SWDIO*
X123825000Y-49910000D03*
G04 #@! TO.P,U1,14*
G04 #@! TO.N,/PA24_UDM*
X122555000Y-49910000D03*
G04 #@! TO.P,U1,15*
G04 #@! TO.N,/PA25_UDP*
X121285000Y-49910000D03*
G04 #@! TO.P,U1,16*
G04 #@! TO.N,GND*
X120015000Y-49910000D03*
G04 #@! TO.P,U1,17*
G04 #@! TO.N,+3V3*
X118745000Y-49910000D03*
G04 #@! TO.P,U1,18*
G04 #@! TO.N,/PA02*
X117475000Y-49910000D03*
G04 #@! TO.P,U1,19*
G04 #@! TO.N,/PA03*
X116205000Y-49910000D03*
G04 #@! TO.P,U1,20*
G04 #@! TO.N,/PA04*
X114935000Y-49910000D03*
G04 #@! TD*
D13*
G04 #@! TO.P,X1,1*
G04 #@! TO.N,+3V3*
X111760000Y-43180000D03*
D14*
G04 #@! TO.P,X1,2*
G04 #@! TO.N,/PA02*
X111760000Y-45720000D03*
G04 #@! TO.P,X1,3*
G04 #@! TO.N,/PA03*
X111760000Y-48260000D03*
G04 #@! TO.P,X1,4*
G04 #@! TO.N,/PA04*
X111760000Y-50800000D03*
G04 #@! TO.P,X1,5*
G04 #@! TO.N,/PA05*
X111760000Y-53340000D03*
G04 #@! TO.P,X1,6*
G04 #@! TO.N,/PA06*
X111760000Y-55880000D03*
G04 #@! TO.P,X1,7*
G04 #@! TO.N,/PA07*
X111760000Y-58420000D03*
G04 #@! TO.P,X1,8*
G04 #@! TO.N,/PA08*
X111760000Y-60960000D03*
G04 #@! TO.P,X1,9*
G04 #@! TO.N,/PA09*
X111760000Y-63500000D03*
G04 #@! TO.P,X1,10*
G04 #@! TO.N,GND*
X111760000Y-66040000D03*
G04 #@! TD*
G04 #@! TO.P,X2,10*
G04 #@! TO.N,GND*
X129540000Y-43180000D03*
G04 #@! TO.P,X2,9*
G04 #@! TO.N,/PA28_RST*
X129540000Y-45720000D03*
G04 #@! TO.P,X2,8*
G04 #@! TO.N,/PA25_UDP*
X129540000Y-48260000D03*
G04 #@! TO.P,X2,7*
G04 #@! TO.N,/PA24_UDM*
X129540000Y-50800000D03*
G04 #@! TO.P,X2,6*
G04 #@! TO.N,/PA23_LED*
X129540000Y-53340000D03*
G04 #@! TO.P,X2,5*
G04 #@! TO.N,/PA22*
X129540000Y-55880000D03*
G04 #@! TO.P,X2,4*
G04 #@! TO.N,/PA16*
X129540000Y-58420000D03*
G04 #@! TO.P,X2,3*
G04 #@! TO.N,/PA15*
X129540000Y-60960000D03*
G04 #@! TO.P,X2,2*
G04 #@! TO.N,/PA14*
X129540000Y-63500000D03*
D13*
G04 #@! TO.P,X2,1*
G04 #@! TO.N,+5V*
X129540000Y-66040000D03*
G04 #@! TD*
D15*
G04 #@! TO.P,X3,1*
G04 #@! TO.N,/SWDIO*
X120650000Y-64770000D03*
G04 #@! TO.P,X3,2*
G04 #@! TO.N,GND*
X123190000Y-64770000D03*
G04 #@! TO.P,X3,3*
G04 #@! TO.N,/SWCLK*
X125730000Y-64770000D03*
G04 #@! TD*
D16*
G04 #@! TO.P,X4,6*
G04 #@! TO.N,Net-(C2-Pad1)*
X121848880Y-43180000D03*
X119451120Y-43180000D03*
X116700300Y-43180000D03*
X124599700Y-43180000D03*
D17*
G04 #@! TO.P,X4,1*
G04 #@! TO.N,+5V*
X121950480Y-46180000D03*
G04 #@! TO.P,X4,2*
G04 #@! TO.N,/PA24_UDM*
X121297700Y-46180000D03*
G04 #@! TO.P,X4,3*
G04 #@! TO.N,/PA25_UDP*
X120650000Y-46180000D03*
G04 #@! TO.P,X4,4*
G04 #@! TO.N,N/C*
X120002300Y-46180000D03*
G04 #@! TO.P,X4,5*
G04 #@! TO.N,GND*
X119349520Y-46180000D03*
D18*
X118752620Y-45326300D03*
G04 #@! TO.P,X4,1*
G04 #@! TO.N,+5V*
X122549920Y-45328840D03*
G04 #@! TD*
D19*
G04 #@! TO.N,Net-(C2-Pad1)*
X117230000Y-43180000D03*
G04 #@! TO.N,+3V3*
X121285000Y-52705000D03*
G04 #@! TO.N,/SWDIO*
X123609990Y-48260000D03*
G04 #@! TO.N,/PA23_LED*
X127850010Y-56054479D03*
X114935000Y-53975000D03*
X118872000Y-62737986D03*
G04 #@! TO.N,/PA05*
X114187740Y-57849175D03*
G04 #@! TO.N,/SWCLK*
X125514990Y-48110274D03*
G04 #@! TO.N,/PA25_UDP*
X127850010Y-52705000D03*
G04 #@! TD*
D20*
G04 #@! TO.N,GND*
X118752620Y-45583100D02*
X119349520Y-46180000D01*
D21*
X118752620Y-45326300D02*
X118752620Y-45583100D01*
X118752620Y-45890260D02*
X118752620Y-45326300D01*
X120015000Y-48435000D02*
X118752620Y-47172620D01*
X118752620Y-47172620D02*
X118752620Y-45890260D01*
X120015000Y-49910000D02*
X120015000Y-48435000D01*
X111760000Y-66040000D02*
X113030000Y-66040000D01*
X114690000Y-64380000D02*
X115570000Y-64380000D01*
X113030000Y-66040000D02*
X114690000Y-64380000D01*
D20*
G04 #@! TO.N,+5V*
X122549920Y-45580560D02*
X121950480Y-46180000D01*
D21*
X122549920Y-45328840D02*
X122549920Y-45580560D01*
D22*
G04 #@! TO.N,Net-(C2-Pad1)*
X124599700Y-43180000D02*
X121848880Y-43180000D01*
X121848880Y-43180000D02*
X119451120Y-43180000D01*
X119451120Y-43180000D02*
X116700300Y-43180000D01*
D21*
G04 #@! TO.N,+3V3*
X118745000Y-48435000D02*
X118110000Y-47800000D01*
X118745000Y-49910000D02*
X118745000Y-48435000D01*
X118110000Y-47800000D02*
X113490000Y-43180000D01*
X113490000Y-43180000D02*
X111760000Y-43180000D01*
X118745000Y-50585000D02*
X120865000Y-52705000D01*
X118745000Y-49910000D02*
X118745000Y-50585000D01*
X120865000Y-52705000D02*
X121285000Y-52705000D01*
D23*
G04 #@! TO.N,/PA28_RST*
X128690001Y-46569999D02*
X129540000Y-45720000D01*
X126365000Y-48895000D02*
X128690001Y-46569999D01*
X126365000Y-49910000D02*
X126365000Y-48895000D01*
D22*
G04 #@! TO.N,Net-(D1-Pad2)*
X117856000Y-66430000D02*
X115570000Y-66430000D01*
G04 #@! TO.N,/SWDIO*
X123825000Y-48475010D02*
X123609990Y-48260000D01*
X123825000Y-49910000D02*
X123825000Y-48475010D01*
G04 #@! TO.N,/PA23_LED*
X126365000Y-57539489D02*
X127450011Y-56454478D01*
X127450011Y-56454478D02*
X127850010Y-56054479D01*
X126365000Y-59310000D02*
X126365000Y-57539489D01*
X128337919Y-53340000D02*
X127702919Y-53975000D01*
X129540000Y-53340000D02*
X128337919Y-53340000D01*
X127702919Y-53975000D02*
X123825000Y-53975000D01*
X123825000Y-53975000D02*
X114935000Y-53975000D01*
X117865000Y-64380000D02*
X117475000Y-64380000D01*
X118872000Y-63303671D02*
X118872000Y-62737986D01*
X118872000Y-63364000D02*
X118872000Y-63303671D01*
X117856000Y-64380000D02*
X118872000Y-63364000D01*
G04 #@! TO.N,/PA05*
X114935000Y-59310000D02*
X114935000Y-58635000D01*
X114187740Y-57887740D02*
X114187740Y-57849175D01*
X114935000Y-58635000D02*
X114187740Y-57887740D01*
G04 #@! TO.N,/PA06*
X112962081Y-55880000D02*
X111760000Y-55880000D01*
X116205000Y-57161998D02*
X114923002Y-55880000D01*
X116205000Y-59310000D02*
X116205000Y-57161998D01*
X114923002Y-55880000D02*
X112962081Y-55880000D01*
G04 #@! TO.N,/PA07*
X112609999Y-59269999D02*
X111760000Y-58420000D01*
X114075001Y-60735001D02*
X112609999Y-59269999D01*
X117475000Y-59985000D02*
X116724999Y-60735001D01*
X116724999Y-60735001D02*
X114075001Y-60735001D01*
X117475000Y-59310000D02*
X117475000Y-59985000D01*
G04 #@! TO.N,/PA08*
X112609999Y-61809999D02*
X111760000Y-60960000D01*
X118745000Y-59985000D02*
X116920001Y-61809999D01*
X118745000Y-59310000D02*
X118745000Y-59985000D01*
X116920001Y-61809999D02*
X112609999Y-61809999D01*
G04 #@! TO.N,/PA09*
X111760000Y-63500000D02*
X112609999Y-62650001D01*
X117349999Y-62650001D02*
X120015000Y-59985000D01*
X112609999Y-62650001D02*
X117349999Y-62650001D01*
X120015000Y-59985000D02*
X120015000Y-59310000D01*
G04 #@! TO.N,/PA14*
X128337919Y-63500000D02*
X129540000Y-63500000D01*
X124800000Y-63500000D02*
X128337919Y-63500000D01*
X121285000Y-59985000D02*
X124800000Y-63500000D01*
X121285000Y-59310000D02*
X121285000Y-59985000D01*
G04 #@! TO.N,/PA15*
X122555000Y-59985000D02*
X124379999Y-61809999D01*
X128690001Y-61809999D02*
X129540000Y-60960000D01*
X124379999Y-61809999D02*
X128690001Y-61809999D01*
X122555000Y-59310000D02*
X122555000Y-59985000D01*
G04 #@! TO.N,/PA16*
X128690001Y-59269999D02*
X129540000Y-58420000D01*
X124575001Y-60735001D02*
X127224999Y-60735001D01*
X123825000Y-59985000D02*
X124575001Y-60735001D01*
X123825000Y-59310000D02*
X123825000Y-59985000D01*
X127224999Y-60735001D02*
X128690001Y-59269999D01*
G04 #@! TO.N,/PA22*
X125095000Y-56793622D02*
X126858621Y-55030001D01*
X128690001Y-55030001D02*
X129540000Y-55880000D01*
X126858621Y-55030001D02*
X128690001Y-55030001D01*
X125095000Y-59310000D02*
X125095000Y-56793622D01*
G04 #@! TO.N,/SWCLK*
X125095000Y-48530264D02*
X125114991Y-48510273D01*
X125095000Y-49910000D02*
X125095000Y-48530264D01*
X125114991Y-48510273D02*
X125514990Y-48110274D01*
G04 #@! TO.N,/PA24_UDM*
X123619999Y-51649999D02*
X128690001Y-51649999D01*
X128690001Y-51649999D02*
X129540000Y-50800000D01*
X122555000Y-50585000D02*
X123619999Y-51649999D01*
X122555000Y-49910000D02*
X122555000Y-50585000D01*
D23*
X122555000Y-49235000D02*
X122555000Y-49910000D01*
X121297700Y-47977700D02*
X122555000Y-49235000D01*
X121297700Y-46180000D02*
X121297700Y-47977700D01*
G04 #@! TO.N,/PA25_UDP*
X121285000Y-49235000D02*
X121285000Y-49910000D01*
X120650000Y-48600000D02*
X121285000Y-49235000D01*
X120650000Y-46180000D02*
X120650000Y-48600000D01*
D22*
X127284325Y-52705000D02*
X127850010Y-52705000D01*
X121285000Y-50585000D02*
X123405000Y-52705000D01*
X123405000Y-52705000D02*
X127284325Y-52705000D01*
X121285000Y-49910000D02*
X121285000Y-50585000D01*
G04 #@! TO.N,/PA02*
X117475000Y-49910000D02*
X117475000Y-49235000D01*
X113824998Y-45720000D02*
X112962081Y-45720000D01*
X112962081Y-45720000D02*
X111760000Y-45720000D01*
X116739998Y-48635000D02*
X113824998Y-45720000D01*
X117475000Y-49235000D02*
X116875000Y-48635000D01*
X116875000Y-48635000D02*
X116739998Y-48635000D01*
G04 #@! TO.N,/PA03*
X115230000Y-48260000D02*
X112962081Y-48260000D01*
X112962081Y-48260000D02*
X111760000Y-48260000D01*
X116205000Y-49235000D02*
X115230000Y-48260000D01*
X116205000Y-49910000D02*
X116205000Y-49235000D01*
G04 #@! TO.N,/PA04*
X112650000Y-49910000D02*
X111760000Y-50800000D01*
X114935000Y-49910000D02*
X112650000Y-49910000D01*
G04 #@! TD*
M02*
