G04 #@! TF.GenerationSoftware,KiCad,Pcbnew,5.0.2-bee76a0~70~ubuntu16.04.1*
G04 #@! TF.CreationDate,2019-07-30T14:23:51+02:00*
G04 #@! TF.ProjectId,hw-BOB-ATSAMD11D,68772d42-4f42-42d4-9154-53414d443131,rev?*
G04 #@! TF.SameCoordinates,Original*
G04 #@! TF.FileFunction,Soldermask,Top*
G04 #@! TF.FilePolarity,Negative*
%FSLAX46Y46*%
G04 Gerber Fmt 4.6, Leading zero omitted, Abs format (unit mm)*
G04 Created by KiCad (PCBNEW 5.0.2-bee76a0~70~ubuntu16.04.1) date Tue 30 Jul 2019 02:23:51 PM CEST*
%MOMM*%
%LPD*%
G01*
G04 APERTURE LIST*
%ADD10C,0.100000*%
G04 APERTURE END LIST*
D10*
G36*
X118444677Y-65808465D02*
X118482364Y-65819898D01*
X118517103Y-65838466D01*
X118547548Y-65863452D01*
X118572534Y-65893897D01*
X118591102Y-65928636D01*
X118602535Y-65966323D01*
X118607000Y-66011661D01*
X118607000Y-66848339D01*
X118602535Y-66893677D01*
X118591102Y-66931364D01*
X118572534Y-66966103D01*
X118547548Y-66996548D01*
X118517103Y-67021534D01*
X118482364Y-67040102D01*
X118444677Y-67051535D01*
X118399339Y-67056000D01*
X117312661Y-67056000D01*
X117267323Y-67051535D01*
X117229636Y-67040102D01*
X117194897Y-67021534D01*
X117164452Y-66996548D01*
X117139466Y-66966103D01*
X117120898Y-66931364D01*
X117109465Y-66893677D01*
X117105000Y-66848339D01*
X117105000Y-66011661D01*
X117109465Y-65966323D01*
X117120898Y-65928636D01*
X117139466Y-65893897D01*
X117164452Y-65863452D01*
X117194897Y-65838466D01*
X117229636Y-65819898D01*
X117267323Y-65808465D01*
X117312661Y-65804000D01*
X118399339Y-65804000D01*
X118444677Y-65808465D01*
X118444677Y-65808465D01*
G37*
G36*
X116158677Y-65808465D02*
X116196364Y-65819898D01*
X116231103Y-65838466D01*
X116261548Y-65863452D01*
X116286534Y-65893897D01*
X116305102Y-65928636D01*
X116316535Y-65966323D01*
X116321000Y-66011661D01*
X116321000Y-66848339D01*
X116316535Y-66893677D01*
X116305102Y-66931364D01*
X116286534Y-66966103D01*
X116261548Y-66996548D01*
X116231103Y-67021534D01*
X116196364Y-67040102D01*
X116158677Y-67051535D01*
X116113339Y-67056000D01*
X115026661Y-67056000D01*
X114981323Y-67051535D01*
X114943636Y-67040102D01*
X114908897Y-67021534D01*
X114878452Y-66996548D01*
X114853466Y-66966103D01*
X114834898Y-66931364D01*
X114823465Y-66893677D01*
X114819000Y-66848339D01*
X114819000Y-66011661D01*
X114823465Y-65966323D01*
X114834898Y-65928636D01*
X114853466Y-65893897D01*
X114878452Y-65863452D01*
X114908897Y-65838466D01*
X114943636Y-65819898D01*
X114981323Y-65808465D01*
X115026661Y-65804000D01*
X116113339Y-65804000D01*
X116158677Y-65808465D01*
X116158677Y-65808465D01*
G37*
G36*
X130441000Y-66941000D02*
X128639000Y-66941000D01*
X128639000Y-65139000D01*
X130441000Y-65139000D01*
X130441000Y-66941000D01*
X130441000Y-66941000D01*
G37*
G36*
X111870442Y-65145518D02*
X111936627Y-65152037D01*
X112049853Y-65186384D01*
X112106467Y-65203557D01*
X112245087Y-65277652D01*
X112262991Y-65287222D01*
X112264253Y-65288258D01*
X112400186Y-65399814D01*
X112474584Y-65490470D01*
X112512778Y-65537009D01*
X112512779Y-65537011D01*
X112596443Y-65693533D01*
X112596443Y-65693534D01*
X112647963Y-65863373D01*
X112665359Y-66040000D01*
X112647963Y-66216627D01*
X112613616Y-66329853D01*
X112596443Y-66386467D01*
X112522348Y-66525087D01*
X112512778Y-66542991D01*
X112483448Y-66578729D01*
X112400186Y-66680186D01*
X112298729Y-66763448D01*
X112262991Y-66792778D01*
X112262989Y-66792779D01*
X112106467Y-66876443D01*
X112068424Y-66887983D01*
X111936627Y-66927963D01*
X111870442Y-66934482D01*
X111804260Y-66941000D01*
X111715740Y-66941000D01*
X111649558Y-66934482D01*
X111583373Y-66927963D01*
X111451576Y-66887983D01*
X111413533Y-66876443D01*
X111257011Y-66792779D01*
X111257009Y-66792778D01*
X111221271Y-66763448D01*
X111119814Y-66680186D01*
X111036552Y-66578729D01*
X111007222Y-66542991D01*
X110997652Y-66525087D01*
X110923557Y-66386467D01*
X110906384Y-66329853D01*
X110872037Y-66216627D01*
X110854641Y-66040000D01*
X110872037Y-65863373D01*
X110923557Y-65693534D01*
X110923557Y-65693533D01*
X111007221Y-65537011D01*
X111007222Y-65537009D01*
X111045416Y-65490470D01*
X111119814Y-65399814D01*
X111255747Y-65288258D01*
X111257009Y-65287222D01*
X111274913Y-65277652D01*
X111413533Y-65203557D01*
X111470147Y-65186384D01*
X111583373Y-65152037D01*
X111649558Y-65145518D01*
X111715740Y-65139000D01*
X111804260Y-65139000D01*
X111870442Y-65145518D01*
X111870442Y-65145518D01*
G37*
G36*
X125967142Y-63988242D02*
X126115102Y-64049530D01*
X126182130Y-64094317D01*
X126248257Y-64138501D01*
X126361499Y-64251743D01*
X126362191Y-64252779D01*
X126450470Y-64384898D01*
X126511758Y-64532858D01*
X126543000Y-64689925D01*
X126543000Y-64850075D01*
X126511758Y-65007142D01*
X126464354Y-65121583D01*
X126450471Y-65155100D01*
X126362191Y-65287222D01*
X126361498Y-65288258D01*
X126248258Y-65401498D01*
X126115102Y-65490470D01*
X125967142Y-65551758D01*
X125810075Y-65583000D01*
X125649925Y-65583000D01*
X125492858Y-65551758D01*
X125344898Y-65490470D01*
X125211742Y-65401498D01*
X125098502Y-65288258D01*
X125097810Y-65287222D01*
X125009529Y-65155100D01*
X124995646Y-65121583D01*
X124948242Y-65007142D01*
X124917000Y-64850075D01*
X124917000Y-64689925D01*
X124948242Y-64532858D01*
X125009530Y-64384898D01*
X125097809Y-64252779D01*
X125098501Y-64251743D01*
X125211743Y-64138501D01*
X125277870Y-64094317D01*
X125344898Y-64049530D01*
X125492858Y-63988242D01*
X125649925Y-63957000D01*
X125810075Y-63957000D01*
X125967142Y-63988242D01*
X125967142Y-63988242D01*
G37*
G36*
X123427142Y-63988242D02*
X123575102Y-64049530D01*
X123642130Y-64094317D01*
X123708257Y-64138501D01*
X123821499Y-64251743D01*
X123822191Y-64252779D01*
X123910470Y-64384898D01*
X123971758Y-64532858D01*
X124003000Y-64689925D01*
X124003000Y-64850075D01*
X123971758Y-65007142D01*
X123924354Y-65121583D01*
X123910471Y-65155100D01*
X123822191Y-65287222D01*
X123821498Y-65288258D01*
X123708258Y-65401498D01*
X123575102Y-65490470D01*
X123427142Y-65551758D01*
X123270075Y-65583000D01*
X123109925Y-65583000D01*
X122952858Y-65551758D01*
X122804898Y-65490470D01*
X122671742Y-65401498D01*
X122558502Y-65288258D01*
X122557810Y-65287222D01*
X122469529Y-65155100D01*
X122455646Y-65121583D01*
X122408242Y-65007142D01*
X122377000Y-64850075D01*
X122377000Y-64689925D01*
X122408242Y-64532858D01*
X122469530Y-64384898D01*
X122557809Y-64252779D01*
X122558501Y-64251743D01*
X122671743Y-64138501D01*
X122737870Y-64094317D01*
X122804898Y-64049530D01*
X122952858Y-63988242D01*
X123109925Y-63957000D01*
X123270075Y-63957000D01*
X123427142Y-63988242D01*
X123427142Y-63988242D01*
G37*
G36*
X120887142Y-63988242D02*
X121035102Y-64049530D01*
X121102130Y-64094317D01*
X121168257Y-64138501D01*
X121281499Y-64251743D01*
X121282191Y-64252779D01*
X121370470Y-64384898D01*
X121431758Y-64532858D01*
X121463000Y-64689925D01*
X121463000Y-64850075D01*
X121431758Y-65007142D01*
X121384354Y-65121583D01*
X121370471Y-65155100D01*
X121282191Y-65287222D01*
X121281498Y-65288258D01*
X121168258Y-65401498D01*
X121035102Y-65490470D01*
X120887142Y-65551758D01*
X120730075Y-65583000D01*
X120569925Y-65583000D01*
X120412858Y-65551758D01*
X120264898Y-65490470D01*
X120131742Y-65401498D01*
X120018502Y-65288258D01*
X120017810Y-65287222D01*
X119929529Y-65155100D01*
X119915646Y-65121583D01*
X119868242Y-65007142D01*
X119837000Y-64850075D01*
X119837000Y-64689925D01*
X119868242Y-64532858D01*
X119929530Y-64384898D01*
X120017809Y-64252779D01*
X120018501Y-64251743D01*
X120131743Y-64138501D01*
X120197870Y-64094317D01*
X120264898Y-64049530D01*
X120412858Y-63988242D01*
X120569925Y-63957000D01*
X120730075Y-63957000D01*
X120887142Y-63988242D01*
X120887142Y-63988242D01*
G37*
G36*
X116158677Y-63758465D02*
X116196364Y-63769898D01*
X116231103Y-63788466D01*
X116261548Y-63813452D01*
X116286534Y-63843897D01*
X116305102Y-63878636D01*
X116316535Y-63916323D01*
X116321000Y-63961661D01*
X116321000Y-64798339D01*
X116316535Y-64843677D01*
X116305102Y-64881364D01*
X116286534Y-64916103D01*
X116261548Y-64946548D01*
X116231103Y-64971534D01*
X116196364Y-64990102D01*
X116158677Y-65001535D01*
X116113339Y-65006000D01*
X115026661Y-65006000D01*
X114981323Y-65001535D01*
X114943636Y-64990102D01*
X114908897Y-64971534D01*
X114878452Y-64946548D01*
X114853466Y-64916103D01*
X114834898Y-64881364D01*
X114823465Y-64843677D01*
X114819000Y-64798339D01*
X114819000Y-63961661D01*
X114823465Y-63916323D01*
X114834898Y-63878636D01*
X114853466Y-63843897D01*
X114878452Y-63813452D01*
X114908897Y-63788466D01*
X114943636Y-63769898D01*
X114981323Y-63758465D01*
X115026661Y-63754000D01*
X116113339Y-63754000D01*
X116158677Y-63758465D01*
X116158677Y-63758465D01*
G37*
G36*
X118444677Y-63758465D02*
X118482364Y-63769898D01*
X118517103Y-63788466D01*
X118547548Y-63813452D01*
X118572534Y-63843897D01*
X118591102Y-63878636D01*
X118602535Y-63916323D01*
X118607000Y-63961661D01*
X118607000Y-64798339D01*
X118602535Y-64843677D01*
X118591102Y-64881364D01*
X118572534Y-64916103D01*
X118547548Y-64946548D01*
X118517103Y-64971534D01*
X118482364Y-64990102D01*
X118444677Y-65001535D01*
X118399339Y-65006000D01*
X117312661Y-65006000D01*
X117267323Y-65001535D01*
X117229636Y-64990102D01*
X117194897Y-64971534D01*
X117164452Y-64946548D01*
X117139466Y-64916103D01*
X117120898Y-64881364D01*
X117109465Y-64843677D01*
X117105000Y-64798339D01*
X117105000Y-63961661D01*
X117109465Y-63916323D01*
X117120898Y-63878636D01*
X117139466Y-63843897D01*
X117164452Y-63813452D01*
X117194897Y-63788466D01*
X117229636Y-63769898D01*
X117267323Y-63758465D01*
X117312661Y-63754000D01*
X118399339Y-63754000D01*
X118444677Y-63758465D01*
X118444677Y-63758465D01*
G37*
G36*
X129650442Y-62605518D02*
X129716627Y-62612037D01*
X129829853Y-62646384D01*
X129886467Y-62663557D01*
X130025087Y-62737652D01*
X130042991Y-62747222D01*
X130078729Y-62776552D01*
X130180186Y-62859814D01*
X130263448Y-62961271D01*
X130292778Y-62997009D01*
X130292779Y-62997011D01*
X130376443Y-63153533D01*
X130376443Y-63153534D01*
X130427963Y-63323373D01*
X130445359Y-63500000D01*
X130427963Y-63676627D01*
X130398207Y-63774718D01*
X130376443Y-63846467D01*
X130336060Y-63922017D01*
X130292778Y-64002991D01*
X130273753Y-64026173D01*
X130180186Y-64140186D01*
X130078729Y-64223448D01*
X130042991Y-64252778D01*
X130042989Y-64252779D01*
X129886467Y-64336443D01*
X129829853Y-64353616D01*
X129716627Y-64387963D01*
X129650442Y-64394482D01*
X129584260Y-64401000D01*
X129495740Y-64401000D01*
X129429558Y-64394482D01*
X129363373Y-64387963D01*
X129250147Y-64353616D01*
X129193533Y-64336443D01*
X129037011Y-64252779D01*
X129037009Y-64252778D01*
X129001271Y-64223448D01*
X128899814Y-64140186D01*
X128806247Y-64026173D01*
X128787222Y-64002991D01*
X128743940Y-63922017D01*
X128703557Y-63846467D01*
X128681793Y-63774718D01*
X128652037Y-63676627D01*
X128634641Y-63500000D01*
X128652037Y-63323373D01*
X128703557Y-63153534D01*
X128703557Y-63153533D01*
X128787221Y-62997011D01*
X128787222Y-62997009D01*
X128816552Y-62961271D01*
X128899814Y-62859814D01*
X129001271Y-62776552D01*
X129037009Y-62747222D01*
X129054913Y-62737652D01*
X129193533Y-62663557D01*
X129250147Y-62646384D01*
X129363373Y-62612037D01*
X129429558Y-62605518D01*
X129495740Y-62599000D01*
X129584260Y-62599000D01*
X129650442Y-62605518D01*
X129650442Y-62605518D01*
G37*
G36*
X111870442Y-62605518D02*
X111936627Y-62612037D01*
X112049853Y-62646384D01*
X112106467Y-62663557D01*
X112245087Y-62737652D01*
X112262991Y-62747222D01*
X112298729Y-62776552D01*
X112400186Y-62859814D01*
X112483448Y-62961271D01*
X112512778Y-62997009D01*
X112512779Y-62997011D01*
X112596443Y-63153533D01*
X112596443Y-63153534D01*
X112647963Y-63323373D01*
X112665359Y-63500000D01*
X112647963Y-63676627D01*
X112618207Y-63774718D01*
X112596443Y-63846467D01*
X112556060Y-63922017D01*
X112512778Y-64002991D01*
X112493753Y-64026173D01*
X112400186Y-64140186D01*
X112298729Y-64223448D01*
X112262991Y-64252778D01*
X112262989Y-64252779D01*
X112106467Y-64336443D01*
X112049853Y-64353616D01*
X111936627Y-64387963D01*
X111870442Y-64394482D01*
X111804260Y-64401000D01*
X111715740Y-64401000D01*
X111649558Y-64394482D01*
X111583373Y-64387963D01*
X111470147Y-64353616D01*
X111413533Y-64336443D01*
X111257011Y-64252779D01*
X111257009Y-64252778D01*
X111221271Y-64223448D01*
X111119814Y-64140186D01*
X111026247Y-64026173D01*
X111007222Y-64002991D01*
X110963940Y-63922017D01*
X110923557Y-63846467D01*
X110901793Y-63774718D01*
X110872037Y-63676627D01*
X110854641Y-63500000D01*
X110872037Y-63323373D01*
X110923557Y-63153534D01*
X110923557Y-63153533D01*
X111007221Y-62997011D01*
X111007222Y-62997009D01*
X111036552Y-62961271D01*
X111119814Y-62859814D01*
X111221271Y-62776552D01*
X111257009Y-62747222D01*
X111274913Y-62737652D01*
X111413533Y-62663557D01*
X111470147Y-62646384D01*
X111583373Y-62612037D01*
X111649558Y-62605518D01*
X111715740Y-62599000D01*
X111804260Y-62599000D01*
X111870442Y-62605518D01*
X111870442Y-62605518D01*
G37*
G36*
X111870442Y-60065518D02*
X111936627Y-60072037D01*
X112049853Y-60106384D01*
X112106467Y-60123557D01*
X112245087Y-60197652D01*
X112262991Y-60207222D01*
X112298729Y-60236552D01*
X112400186Y-60319814D01*
X112483448Y-60421271D01*
X112512778Y-60457009D01*
X112512779Y-60457011D01*
X112596443Y-60613533D01*
X112596443Y-60613534D01*
X112647963Y-60783373D01*
X112665359Y-60960000D01*
X112647963Y-61136627D01*
X112613616Y-61249853D01*
X112596443Y-61306467D01*
X112522348Y-61445087D01*
X112512778Y-61462991D01*
X112483448Y-61498729D01*
X112400186Y-61600186D01*
X112298729Y-61683448D01*
X112262991Y-61712778D01*
X112262989Y-61712779D01*
X112106467Y-61796443D01*
X112049853Y-61813616D01*
X111936627Y-61847963D01*
X111870443Y-61854481D01*
X111804260Y-61861000D01*
X111715740Y-61861000D01*
X111649557Y-61854481D01*
X111583373Y-61847963D01*
X111470147Y-61813616D01*
X111413533Y-61796443D01*
X111257011Y-61712779D01*
X111257009Y-61712778D01*
X111221271Y-61683448D01*
X111119814Y-61600186D01*
X111036552Y-61498729D01*
X111007222Y-61462991D01*
X110997652Y-61445087D01*
X110923557Y-61306467D01*
X110906384Y-61249853D01*
X110872037Y-61136627D01*
X110854641Y-60960000D01*
X110872037Y-60783373D01*
X110923557Y-60613534D01*
X110923557Y-60613533D01*
X111007221Y-60457011D01*
X111007222Y-60457009D01*
X111036552Y-60421271D01*
X111119814Y-60319814D01*
X111221271Y-60236552D01*
X111257009Y-60207222D01*
X111274913Y-60197652D01*
X111413533Y-60123557D01*
X111470147Y-60106384D01*
X111583373Y-60072037D01*
X111649558Y-60065518D01*
X111715740Y-60059000D01*
X111804260Y-60059000D01*
X111870442Y-60065518D01*
X111870442Y-60065518D01*
G37*
G36*
X129650442Y-60065518D02*
X129716627Y-60072037D01*
X129829853Y-60106384D01*
X129886467Y-60123557D01*
X130025087Y-60197652D01*
X130042991Y-60207222D01*
X130078729Y-60236552D01*
X130180186Y-60319814D01*
X130263448Y-60421271D01*
X130292778Y-60457009D01*
X130292779Y-60457011D01*
X130376443Y-60613533D01*
X130376443Y-60613534D01*
X130427963Y-60783373D01*
X130445359Y-60960000D01*
X130427963Y-61136627D01*
X130393616Y-61249853D01*
X130376443Y-61306467D01*
X130302348Y-61445087D01*
X130292778Y-61462991D01*
X130263448Y-61498729D01*
X130180186Y-61600186D01*
X130078729Y-61683448D01*
X130042991Y-61712778D01*
X130042989Y-61712779D01*
X129886467Y-61796443D01*
X129829853Y-61813616D01*
X129716627Y-61847963D01*
X129650443Y-61854481D01*
X129584260Y-61861000D01*
X129495740Y-61861000D01*
X129429557Y-61854481D01*
X129363373Y-61847963D01*
X129250147Y-61813616D01*
X129193533Y-61796443D01*
X129037011Y-61712779D01*
X129037009Y-61712778D01*
X129001271Y-61683448D01*
X128899814Y-61600186D01*
X128816552Y-61498729D01*
X128787222Y-61462991D01*
X128777652Y-61445087D01*
X128703557Y-61306467D01*
X128686384Y-61249853D01*
X128652037Y-61136627D01*
X128634641Y-60960000D01*
X128652037Y-60783373D01*
X128703557Y-60613534D01*
X128703557Y-60613533D01*
X128787221Y-60457011D01*
X128787222Y-60457009D01*
X128816552Y-60421271D01*
X128899814Y-60319814D01*
X129001271Y-60236552D01*
X129037009Y-60207222D01*
X129054913Y-60197652D01*
X129193533Y-60123557D01*
X129250147Y-60106384D01*
X129363373Y-60072037D01*
X129429558Y-60065518D01*
X129495740Y-60059000D01*
X129584260Y-60059000D01*
X129650442Y-60065518D01*
X129650442Y-60065518D01*
G37*
G36*
X122906000Y-60336000D02*
X122204000Y-60336000D01*
X122204000Y-58284000D01*
X122906000Y-58284000D01*
X122906000Y-60336000D01*
X122906000Y-60336000D01*
G37*
G36*
X126716000Y-60336000D02*
X126014000Y-60336000D01*
X126014000Y-58284000D01*
X126716000Y-58284000D01*
X126716000Y-60336000D01*
X126716000Y-60336000D01*
G37*
G36*
X115286000Y-60336000D02*
X114584000Y-60336000D01*
X114584000Y-58284000D01*
X115286000Y-58284000D01*
X115286000Y-60336000D01*
X115286000Y-60336000D01*
G37*
G36*
X116556000Y-60336000D02*
X115854000Y-60336000D01*
X115854000Y-58284000D01*
X116556000Y-58284000D01*
X116556000Y-60336000D01*
X116556000Y-60336000D01*
G37*
G36*
X117826000Y-60336000D02*
X117124000Y-60336000D01*
X117124000Y-58284000D01*
X117826000Y-58284000D01*
X117826000Y-60336000D01*
X117826000Y-60336000D01*
G37*
G36*
X119096000Y-60336000D02*
X118394000Y-60336000D01*
X118394000Y-58284000D01*
X119096000Y-58284000D01*
X119096000Y-60336000D01*
X119096000Y-60336000D01*
G37*
G36*
X120366000Y-60336000D02*
X119664000Y-60336000D01*
X119664000Y-58284000D01*
X120366000Y-58284000D01*
X120366000Y-60336000D01*
X120366000Y-60336000D01*
G37*
G36*
X121636000Y-60336000D02*
X120934000Y-60336000D01*
X120934000Y-58284000D01*
X121636000Y-58284000D01*
X121636000Y-60336000D01*
X121636000Y-60336000D01*
G37*
G36*
X124176000Y-60336000D02*
X123474000Y-60336000D01*
X123474000Y-58284000D01*
X124176000Y-58284000D01*
X124176000Y-60336000D01*
X124176000Y-60336000D01*
G37*
G36*
X125446000Y-60336000D02*
X124744000Y-60336000D01*
X124744000Y-58284000D01*
X125446000Y-58284000D01*
X125446000Y-60336000D01*
X125446000Y-60336000D01*
G37*
G36*
X111870443Y-57525519D02*
X111936627Y-57532037D01*
X112049853Y-57566384D01*
X112106467Y-57583557D01*
X112245087Y-57657652D01*
X112262991Y-57667222D01*
X112298729Y-57696552D01*
X112400186Y-57779814D01*
X112483448Y-57881271D01*
X112512778Y-57917009D01*
X112512779Y-57917011D01*
X112596443Y-58073533D01*
X112596443Y-58073534D01*
X112647963Y-58243373D01*
X112665359Y-58420000D01*
X112647963Y-58596627D01*
X112613616Y-58709853D01*
X112596443Y-58766467D01*
X112522348Y-58905087D01*
X112512778Y-58922991D01*
X112483448Y-58958729D01*
X112400186Y-59060186D01*
X112298729Y-59143448D01*
X112262991Y-59172778D01*
X112262989Y-59172779D01*
X112106467Y-59256443D01*
X112049853Y-59273616D01*
X111936627Y-59307963D01*
X111870442Y-59314482D01*
X111804260Y-59321000D01*
X111715740Y-59321000D01*
X111649558Y-59314482D01*
X111583373Y-59307963D01*
X111470147Y-59273616D01*
X111413533Y-59256443D01*
X111257011Y-59172779D01*
X111257009Y-59172778D01*
X111221271Y-59143448D01*
X111119814Y-59060186D01*
X111036552Y-58958729D01*
X111007222Y-58922991D01*
X110997652Y-58905087D01*
X110923557Y-58766467D01*
X110906384Y-58709853D01*
X110872037Y-58596627D01*
X110854641Y-58420000D01*
X110872037Y-58243373D01*
X110923557Y-58073534D01*
X110923557Y-58073533D01*
X111007221Y-57917011D01*
X111007222Y-57917009D01*
X111036552Y-57881271D01*
X111119814Y-57779814D01*
X111221271Y-57696552D01*
X111257009Y-57667222D01*
X111274913Y-57657652D01*
X111413533Y-57583557D01*
X111470147Y-57566384D01*
X111583373Y-57532037D01*
X111649557Y-57525519D01*
X111715740Y-57519000D01*
X111804260Y-57519000D01*
X111870443Y-57525519D01*
X111870443Y-57525519D01*
G37*
G36*
X129650443Y-57525519D02*
X129716627Y-57532037D01*
X129829853Y-57566384D01*
X129886467Y-57583557D01*
X130025087Y-57657652D01*
X130042991Y-57667222D01*
X130078729Y-57696552D01*
X130180186Y-57779814D01*
X130263448Y-57881271D01*
X130292778Y-57917009D01*
X130292779Y-57917011D01*
X130376443Y-58073533D01*
X130376443Y-58073534D01*
X130427963Y-58243373D01*
X130445359Y-58420000D01*
X130427963Y-58596627D01*
X130393616Y-58709853D01*
X130376443Y-58766467D01*
X130302348Y-58905087D01*
X130292778Y-58922991D01*
X130263448Y-58958729D01*
X130180186Y-59060186D01*
X130078729Y-59143448D01*
X130042991Y-59172778D01*
X130042989Y-59172779D01*
X129886467Y-59256443D01*
X129829853Y-59273616D01*
X129716627Y-59307963D01*
X129650442Y-59314482D01*
X129584260Y-59321000D01*
X129495740Y-59321000D01*
X129429558Y-59314482D01*
X129363373Y-59307963D01*
X129250147Y-59273616D01*
X129193533Y-59256443D01*
X129037011Y-59172779D01*
X129037009Y-59172778D01*
X129001271Y-59143448D01*
X128899814Y-59060186D01*
X128816552Y-58958729D01*
X128787222Y-58922991D01*
X128777652Y-58905087D01*
X128703557Y-58766467D01*
X128686384Y-58709853D01*
X128652037Y-58596627D01*
X128634641Y-58420000D01*
X128652037Y-58243373D01*
X128703557Y-58073534D01*
X128703557Y-58073533D01*
X128787221Y-57917011D01*
X128787222Y-57917009D01*
X128816552Y-57881271D01*
X128899814Y-57779814D01*
X129001271Y-57696552D01*
X129037009Y-57667222D01*
X129054913Y-57657652D01*
X129193533Y-57583557D01*
X129250147Y-57566384D01*
X129363373Y-57532037D01*
X129429557Y-57525519D01*
X129495740Y-57519000D01*
X129584260Y-57519000D01*
X129650443Y-57525519D01*
X129650443Y-57525519D01*
G37*
G36*
X129650443Y-54985519D02*
X129716627Y-54992037D01*
X129829853Y-55026384D01*
X129886467Y-55043557D01*
X130025087Y-55117652D01*
X130042991Y-55127222D01*
X130078729Y-55156552D01*
X130180186Y-55239814D01*
X130263448Y-55341271D01*
X130292778Y-55377009D01*
X130292779Y-55377011D01*
X130376443Y-55533533D01*
X130376443Y-55533534D01*
X130427963Y-55703373D01*
X130445359Y-55880000D01*
X130427963Y-56056627D01*
X130393616Y-56169853D01*
X130376443Y-56226467D01*
X130302348Y-56365087D01*
X130292778Y-56382991D01*
X130263448Y-56418729D01*
X130180186Y-56520186D01*
X130078729Y-56603448D01*
X130042991Y-56632778D01*
X130042989Y-56632779D01*
X129886467Y-56716443D01*
X129829853Y-56733616D01*
X129716627Y-56767963D01*
X129650443Y-56774481D01*
X129584260Y-56781000D01*
X129495740Y-56781000D01*
X129429557Y-56774481D01*
X129363373Y-56767963D01*
X129250147Y-56733616D01*
X129193533Y-56716443D01*
X129037011Y-56632779D01*
X129037009Y-56632778D01*
X129001271Y-56603448D01*
X128899814Y-56520186D01*
X128816552Y-56418729D01*
X128787222Y-56382991D01*
X128777652Y-56365087D01*
X128703557Y-56226467D01*
X128686384Y-56169853D01*
X128652037Y-56056627D01*
X128634641Y-55880000D01*
X128652037Y-55703373D01*
X128703557Y-55533534D01*
X128703557Y-55533533D01*
X128787221Y-55377011D01*
X128787222Y-55377009D01*
X128816552Y-55341271D01*
X128899814Y-55239814D01*
X129001271Y-55156552D01*
X129037009Y-55127222D01*
X129054913Y-55117652D01*
X129193533Y-55043557D01*
X129250147Y-55026384D01*
X129363373Y-54992037D01*
X129429557Y-54985519D01*
X129495740Y-54979000D01*
X129584260Y-54979000D01*
X129650443Y-54985519D01*
X129650443Y-54985519D01*
G37*
G36*
X111870443Y-54985519D02*
X111936627Y-54992037D01*
X112049853Y-55026384D01*
X112106467Y-55043557D01*
X112245087Y-55117652D01*
X112262991Y-55127222D01*
X112298729Y-55156552D01*
X112400186Y-55239814D01*
X112483448Y-55341271D01*
X112512778Y-55377009D01*
X112512779Y-55377011D01*
X112596443Y-55533533D01*
X112596443Y-55533534D01*
X112647963Y-55703373D01*
X112665359Y-55880000D01*
X112647963Y-56056627D01*
X112613616Y-56169853D01*
X112596443Y-56226467D01*
X112522348Y-56365087D01*
X112512778Y-56382991D01*
X112483448Y-56418729D01*
X112400186Y-56520186D01*
X112298729Y-56603448D01*
X112262991Y-56632778D01*
X112262989Y-56632779D01*
X112106467Y-56716443D01*
X112049853Y-56733616D01*
X111936627Y-56767963D01*
X111870443Y-56774481D01*
X111804260Y-56781000D01*
X111715740Y-56781000D01*
X111649557Y-56774481D01*
X111583373Y-56767963D01*
X111470147Y-56733616D01*
X111413533Y-56716443D01*
X111257011Y-56632779D01*
X111257009Y-56632778D01*
X111221271Y-56603448D01*
X111119814Y-56520186D01*
X111036552Y-56418729D01*
X111007222Y-56382991D01*
X110997652Y-56365087D01*
X110923557Y-56226467D01*
X110906384Y-56169853D01*
X110872037Y-56056627D01*
X110854641Y-55880000D01*
X110872037Y-55703373D01*
X110923557Y-55533534D01*
X110923557Y-55533533D01*
X111007221Y-55377011D01*
X111007222Y-55377009D01*
X111036552Y-55341271D01*
X111119814Y-55239814D01*
X111221271Y-55156552D01*
X111257009Y-55127222D01*
X111274913Y-55117652D01*
X111413533Y-55043557D01*
X111470147Y-55026384D01*
X111583373Y-54992037D01*
X111649557Y-54985519D01*
X111715740Y-54979000D01*
X111804260Y-54979000D01*
X111870443Y-54985519D01*
X111870443Y-54985519D01*
G37*
G36*
X129650443Y-52445519D02*
X129716627Y-52452037D01*
X129829853Y-52486384D01*
X129886467Y-52503557D01*
X130025087Y-52577652D01*
X130042991Y-52587222D01*
X130078729Y-52616552D01*
X130180186Y-52699814D01*
X130263448Y-52801271D01*
X130292778Y-52837009D01*
X130292779Y-52837011D01*
X130376443Y-52993533D01*
X130376443Y-52993534D01*
X130427963Y-53163373D01*
X130445359Y-53340000D01*
X130427963Y-53516627D01*
X130393616Y-53629853D01*
X130376443Y-53686467D01*
X130302348Y-53825087D01*
X130292778Y-53842991D01*
X130263448Y-53878729D01*
X130180186Y-53980186D01*
X130078729Y-54063448D01*
X130042991Y-54092778D01*
X130042989Y-54092779D01*
X129886467Y-54176443D01*
X129829853Y-54193616D01*
X129716627Y-54227963D01*
X129650442Y-54234482D01*
X129584260Y-54241000D01*
X129495740Y-54241000D01*
X129429558Y-54234482D01*
X129363373Y-54227963D01*
X129250147Y-54193616D01*
X129193533Y-54176443D01*
X129037011Y-54092779D01*
X129037009Y-54092778D01*
X129001271Y-54063448D01*
X128899814Y-53980186D01*
X128816552Y-53878729D01*
X128787222Y-53842991D01*
X128777652Y-53825087D01*
X128703557Y-53686467D01*
X128686384Y-53629853D01*
X128652037Y-53516627D01*
X128634641Y-53340000D01*
X128652037Y-53163373D01*
X128703557Y-52993534D01*
X128703557Y-52993533D01*
X128787221Y-52837011D01*
X128787222Y-52837009D01*
X128816552Y-52801271D01*
X128899814Y-52699814D01*
X129001271Y-52616552D01*
X129037009Y-52587222D01*
X129054913Y-52577652D01*
X129193533Y-52503557D01*
X129250147Y-52486384D01*
X129363373Y-52452037D01*
X129429558Y-52445518D01*
X129495740Y-52439000D01*
X129584260Y-52439000D01*
X129650443Y-52445519D01*
X129650443Y-52445519D01*
G37*
G36*
X111870443Y-52445519D02*
X111936627Y-52452037D01*
X112049853Y-52486384D01*
X112106467Y-52503557D01*
X112245087Y-52577652D01*
X112262991Y-52587222D01*
X112298729Y-52616552D01*
X112400186Y-52699814D01*
X112483448Y-52801271D01*
X112512778Y-52837009D01*
X112512779Y-52837011D01*
X112596443Y-52993533D01*
X112596443Y-52993534D01*
X112647963Y-53163373D01*
X112665359Y-53340000D01*
X112647963Y-53516627D01*
X112613616Y-53629853D01*
X112596443Y-53686467D01*
X112522348Y-53825087D01*
X112512778Y-53842991D01*
X112483448Y-53878729D01*
X112400186Y-53980186D01*
X112298729Y-54063448D01*
X112262991Y-54092778D01*
X112262989Y-54092779D01*
X112106467Y-54176443D01*
X112049853Y-54193616D01*
X111936627Y-54227963D01*
X111870442Y-54234482D01*
X111804260Y-54241000D01*
X111715740Y-54241000D01*
X111649558Y-54234482D01*
X111583373Y-54227963D01*
X111470147Y-54193616D01*
X111413533Y-54176443D01*
X111257011Y-54092779D01*
X111257009Y-54092778D01*
X111221271Y-54063448D01*
X111119814Y-53980186D01*
X111036552Y-53878729D01*
X111007222Y-53842991D01*
X110997652Y-53825087D01*
X110923557Y-53686467D01*
X110906384Y-53629853D01*
X110872037Y-53516627D01*
X110854641Y-53340000D01*
X110872037Y-53163373D01*
X110923557Y-52993534D01*
X110923557Y-52993533D01*
X111007221Y-52837011D01*
X111007222Y-52837009D01*
X111036552Y-52801271D01*
X111119814Y-52699814D01*
X111221271Y-52616552D01*
X111257009Y-52587222D01*
X111274913Y-52577652D01*
X111413533Y-52503557D01*
X111470147Y-52486384D01*
X111583373Y-52452037D01*
X111649558Y-52445518D01*
X111715740Y-52439000D01*
X111804260Y-52439000D01*
X111870443Y-52445519D01*
X111870443Y-52445519D01*
G37*
G36*
X111870442Y-49905518D02*
X111936627Y-49912037D01*
X112049853Y-49946384D01*
X112106467Y-49963557D01*
X112245087Y-50037652D01*
X112262991Y-50047222D01*
X112298729Y-50076552D01*
X112400186Y-50159814D01*
X112483448Y-50261271D01*
X112512778Y-50297009D01*
X112512779Y-50297011D01*
X112596443Y-50453533D01*
X112596443Y-50453534D01*
X112647963Y-50623373D01*
X112665359Y-50800000D01*
X112647963Y-50976627D01*
X112613616Y-51089853D01*
X112596443Y-51146467D01*
X112522348Y-51285087D01*
X112512778Y-51302991D01*
X112483448Y-51338729D01*
X112400186Y-51440186D01*
X112298729Y-51523448D01*
X112262991Y-51552778D01*
X112262989Y-51552779D01*
X112106467Y-51636443D01*
X112049853Y-51653616D01*
X111936627Y-51687963D01*
X111870442Y-51694482D01*
X111804260Y-51701000D01*
X111715740Y-51701000D01*
X111649558Y-51694482D01*
X111583373Y-51687963D01*
X111470147Y-51653616D01*
X111413533Y-51636443D01*
X111257011Y-51552779D01*
X111257009Y-51552778D01*
X111221271Y-51523448D01*
X111119814Y-51440186D01*
X111036552Y-51338729D01*
X111007222Y-51302991D01*
X110997652Y-51285087D01*
X110923557Y-51146467D01*
X110906384Y-51089853D01*
X110872037Y-50976627D01*
X110854641Y-50800000D01*
X110872037Y-50623373D01*
X110923557Y-50453534D01*
X110923557Y-50453533D01*
X111007221Y-50297011D01*
X111007222Y-50297009D01*
X111036552Y-50261271D01*
X111119814Y-50159814D01*
X111221271Y-50076552D01*
X111257009Y-50047222D01*
X111274913Y-50037652D01*
X111413533Y-49963557D01*
X111470147Y-49946384D01*
X111583373Y-49912037D01*
X111649557Y-49905519D01*
X111715740Y-49899000D01*
X111804260Y-49899000D01*
X111870442Y-49905518D01*
X111870442Y-49905518D01*
G37*
G36*
X129650442Y-49905518D02*
X129716627Y-49912037D01*
X129829853Y-49946384D01*
X129886467Y-49963557D01*
X130025087Y-50037652D01*
X130042991Y-50047222D01*
X130078729Y-50076552D01*
X130180186Y-50159814D01*
X130263448Y-50261271D01*
X130292778Y-50297009D01*
X130292779Y-50297011D01*
X130376443Y-50453533D01*
X130376443Y-50453534D01*
X130427963Y-50623373D01*
X130445359Y-50800000D01*
X130427963Y-50976627D01*
X130393616Y-51089853D01*
X130376443Y-51146467D01*
X130302348Y-51285087D01*
X130292778Y-51302991D01*
X130263448Y-51338729D01*
X130180186Y-51440186D01*
X130078729Y-51523448D01*
X130042991Y-51552778D01*
X130042989Y-51552779D01*
X129886467Y-51636443D01*
X129829853Y-51653616D01*
X129716627Y-51687963D01*
X129650442Y-51694482D01*
X129584260Y-51701000D01*
X129495740Y-51701000D01*
X129429558Y-51694482D01*
X129363373Y-51687963D01*
X129250147Y-51653616D01*
X129193533Y-51636443D01*
X129037011Y-51552779D01*
X129037009Y-51552778D01*
X129001271Y-51523448D01*
X128899814Y-51440186D01*
X128816552Y-51338729D01*
X128787222Y-51302991D01*
X128777652Y-51285087D01*
X128703557Y-51146467D01*
X128686384Y-51089853D01*
X128652037Y-50976627D01*
X128634641Y-50800000D01*
X128652037Y-50623373D01*
X128703557Y-50453534D01*
X128703557Y-50453533D01*
X128787221Y-50297011D01*
X128787222Y-50297009D01*
X128816552Y-50261271D01*
X128899814Y-50159814D01*
X129001271Y-50076552D01*
X129037009Y-50047222D01*
X129054913Y-50037652D01*
X129193533Y-49963557D01*
X129250147Y-49946384D01*
X129363373Y-49912037D01*
X129429557Y-49905519D01*
X129495740Y-49899000D01*
X129584260Y-49899000D01*
X129650442Y-49905518D01*
X129650442Y-49905518D01*
G37*
G36*
X121636000Y-50936000D02*
X120934000Y-50936000D01*
X120934000Y-48884000D01*
X121636000Y-48884000D01*
X121636000Y-50936000D01*
X121636000Y-50936000D01*
G37*
G36*
X120366000Y-50936000D02*
X119664000Y-50936000D01*
X119664000Y-48884000D01*
X120366000Y-48884000D01*
X120366000Y-50936000D01*
X120366000Y-50936000D01*
G37*
G36*
X119096000Y-50936000D02*
X118394000Y-50936000D01*
X118394000Y-48884000D01*
X119096000Y-48884000D01*
X119096000Y-50936000D01*
X119096000Y-50936000D01*
G37*
G36*
X117826000Y-50936000D02*
X117124000Y-50936000D01*
X117124000Y-48884000D01*
X117826000Y-48884000D01*
X117826000Y-50936000D01*
X117826000Y-50936000D01*
G37*
G36*
X116556000Y-50936000D02*
X115854000Y-50936000D01*
X115854000Y-48884000D01*
X116556000Y-48884000D01*
X116556000Y-50936000D01*
X116556000Y-50936000D01*
G37*
G36*
X115286000Y-50936000D02*
X114584000Y-50936000D01*
X114584000Y-48884000D01*
X115286000Y-48884000D01*
X115286000Y-50936000D01*
X115286000Y-50936000D01*
G37*
G36*
X122906000Y-50936000D02*
X122204000Y-50936000D01*
X122204000Y-48884000D01*
X122906000Y-48884000D01*
X122906000Y-50936000D01*
X122906000Y-50936000D01*
G37*
G36*
X124176000Y-50936000D02*
X123474000Y-50936000D01*
X123474000Y-48884000D01*
X124176000Y-48884000D01*
X124176000Y-50936000D01*
X124176000Y-50936000D01*
G37*
G36*
X126716000Y-50936000D02*
X126014000Y-50936000D01*
X126014000Y-48884000D01*
X126716000Y-48884000D01*
X126716000Y-50936000D01*
X126716000Y-50936000D01*
G37*
G36*
X125446000Y-50936000D02*
X124744000Y-50936000D01*
X124744000Y-48884000D01*
X125446000Y-48884000D01*
X125446000Y-50936000D01*
X125446000Y-50936000D01*
G37*
G36*
X111870443Y-47365519D02*
X111936627Y-47372037D01*
X112049853Y-47406384D01*
X112106467Y-47423557D01*
X112245087Y-47497652D01*
X112262991Y-47507222D01*
X112298729Y-47536552D01*
X112400186Y-47619814D01*
X112483448Y-47721271D01*
X112512778Y-47757009D01*
X112512779Y-47757011D01*
X112596443Y-47913533D01*
X112596443Y-47913534D01*
X112647963Y-48083373D01*
X112665359Y-48260000D01*
X112647963Y-48436627D01*
X112613616Y-48549853D01*
X112596443Y-48606467D01*
X112522348Y-48745087D01*
X112512778Y-48762991D01*
X112483448Y-48798729D01*
X112400186Y-48900186D01*
X112298729Y-48983448D01*
X112262991Y-49012778D01*
X112262989Y-49012779D01*
X112106467Y-49096443D01*
X112049853Y-49113616D01*
X111936627Y-49147963D01*
X111870443Y-49154481D01*
X111804260Y-49161000D01*
X111715740Y-49161000D01*
X111649557Y-49154481D01*
X111583373Y-49147963D01*
X111470147Y-49113616D01*
X111413533Y-49096443D01*
X111257011Y-49012779D01*
X111257009Y-49012778D01*
X111221271Y-48983448D01*
X111119814Y-48900186D01*
X111036552Y-48798729D01*
X111007222Y-48762991D01*
X110997652Y-48745087D01*
X110923557Y-48606467D01*
X110906384Y-48549853D01*
X110872037Y-48436627D01*
X110854641Y-48260000D01*
X110872037Y-48083373D01*
X110923557Y-47913534D01*
X110923557Y-47913533D01*
X111007221Y-47757011D01*
X111007222Y-47757009D01*
X111036552Y-47721271D01*
X111119814Y-47619814D01*
X111221271Y-47536552D01*
X111257009Y-47507222D01*
X111274913Y-47497652D01*
X111413533Y-47423557D01*
X111470147Y-47406384D01*
X111583373Y-47372037D01*
X111649557Y-47365519D01*
X111715740Y-47359000D01*
X111804260Y-47359000D01*
X111870443Y-47365519D01*
X111870443Y-47365519D01*
G37*
G36*
X129650443Y-47365519D02*
X129716627Y-47372037D01*
X129829853Y-47406384D01*
X129886467Y-47423557D01*
X130025087Y-47497652D01*
X130042991Y-47507222D01*
X130078729Y-47536552D01*
X130180186Y-47619814D01*
X130263448Y-47721271D01*
X130292778Y-47757009D01*
X130292779Y-47757011D01*
X130376443Y-47913533D01*
X130376443Y-47913534D01*
X130427963Y-48083373D01*
X130445359Y-48260000D01*
X130427963Y-48436627D01*
X130393616Y-48549853D01*
X130376443Y-48606467D01*
X130302348Y-48745087D01*
X130292778Y-48762991D01*
X130263448Y-48798729D01*
X130180186Y-48900186D01*
X130078729Y-48983448D01*
X130042991Y-49012778D01*
X130042989Y-49012779D01*
X129886467Y-49096443D01*
X129829853Y-49113616D01*
X129716627Y-49147963D01*
X129650443Y-49154481D01*
X129584260Y-49161000D01*
X129495740Y-49161000D01*
X129429557Y-49154481D01*
X129363373Y-49147963D01*
X129250147Y-49113616D01*
X129193533Y-49096443D01*
X129037011Y-49012779D01*
X129037009Y-49012778D01*
X129001271Y-48983448D01*
X128899814Y-48900186D01*
X128816552Y-48798729D01*
X128787222Y-48762991D01*
X128777652Y-48745087D01*
X128703557Y-48606467D01*
X128686384Y-48549853D01*
X128652037Y-48436627D01*
X128634641Y-48260000D01*
X128652037Y-48083373D01*
X128703557Y-47913534D01*
X128703557Y-47913533D01*
X128787221Y-47757011D01*
X128787222Y-47757009D01*
X128816552Y-47721271D01*
X128899814Y-47619814D01*
X129001271Y-47536552D01*
X129037009Y-47507222D01*
X129054913Y-47497652D01*
X129193533Y-47423557D01*
X129250147Y-47406384D01*
X129363373Y-47372037D01*
X129429557Y-47365519D01*
X129495740Y-47359000D01*
X129584260Y-47359000D01*
X129650443Y-47365519D01*
X129650443Y-47365519D01*
G37*
G36*
X118883816Y-44893805D02*
X118965671Y-44927710D01*
X119038843Y-44976602D01*
X119039341Y-44976935D01*
X119101985Y-45039579D01*
X119124614Y-45073446D01*
X119140159Y-45092388D01*
X119159101Y-45107933D01*
X119180712Y-45119485D01*
X119204161Y-45126598D01*
X119228548Y-45129000D01*
X122075689Y-45129000D01*
X122100075Y-45126598D01*
X122123524Y-45119485D01*
X122145135Y-45107934D01*
X122164077Y-45092388D01*
X122179623Y-45073446D01*
X122200555Y-45042119D01*
X122263199Y-44979475D01*
X122281537Y-44967222D01*
X122336869Y-44930250D01*
X122418724Y-44896345D01*
X122505621Y-44879060D01*
X122594219Y-44879060D01*
X122681116Y-44896345D01*
X122762971Y-44930250D01*
X122818303Y-44967222D01*
X122836641Y-44979475D01*
X122899285Y-45042119D01*
X122899287Y-45042122D01*
X122948510Y-45115789D01*
X122982415Y-45197644D01*
X122999700Y-45284541D01*
X122999700Y-45373139D01*
X122982415Y-45460036D01*
X122948510Y-45541891D01*
X122947518Y-45543375D01*
X122899285Y-45615561D01*
X122836641Y-45678205D01*
X122836638Y-45678207D01*
X122762971Y-45727430D01*
X122681116Y-45761335D01*
X122594219Y-45778620D01*
X122505621Y-45778620D01*
X122418724Y-45761335D01*
X122373695Y-45742684D01*
X122350257Y-45735574D01*
X122325870Y-45733172D01*
X122301484Y-45735574D01*
X122278035Y-45742687D01*
X122256424Y-45754238D01*
X122237482Y-45769783D01*
X122221937Y-45788725D01*
X122210385Y-45810336D01*
X122203272Y-45833785D01*
X122200870Y-45858172D01*
X122200870Y-47231000D01*
X119099130Y-47231000D01*
X119099130Y-45856684D01*
X119096728Y-45832298D01*
X119089615Y-45808849D01*
X119078064Y-45787238D01*
X119062518Y-45768296D01*
X119043576Y-45752750D01*
X119021965Y-45741199D01*
X118998516Y-45734086D01*
X118974130Y-45731684D01*
X118949744Y-45734086D01*
X118926305Y-45741196D01*
X118883816Y-45758795D01*
X118796919Y-45776080D01*
X118708321Y-45776080D01*
X118621424Y-45758795D01*
X118539569Y-45724890D01*
X118465902Y-45675667D01*
X118465899Y-45675665D01*
X118403255Y-45613021D01*
X118356719Y-45543375D01*
X118354030Y-45539351D01*
X118320125Y-45457496D01*
X118302840Y-45370599D01*
X118302840Y-45282001D01*
X118320125Y-45195104D01*
X118354030Y-45113249D01*
X118403253Y-45039582D01*
X118403255Y-45039579D01*
X118465899Y-44976935D01*
X118466397Y-44976602D01*
X118539569Y-44927710D01*
X118621424Y-44893805D01*
X118708321Y-44876520D01*
X118796919Y-44876520D01*
X118883816Y-44893805D01*
X118883816Y-44893805D01*
G37*
G36*
X129650442Y-44825518D02*
X129716627Y-44832037D01*
X129829853Y-44866384D01*
X129886467Y-44883557D01*
X129969070Y-44927710D01*
X130042991Y-44967222D01*
X130057921Y-44979475D01*
X130180186Y-45079814D01*
X130263448Y-45181271D01*
X130292778Y-45217009D01*
X130292779Y-45217011D01*
X130376443Y-45373533D01*
X130376443Y-45373534D01*
X130427963Y-45543373D01*
X130445359Y-45720000D01*
X130427963Y-45896627D01*
X130393616Y-46009853D01*
X130376443Y-46066467D01*
X130302348Y-46205087D01*
X130292778Y-46222991D01*
X130263448Y-46258729D01*
X130180186Y-46360186D01*
X130078729Y-46443448D01*
X130042991Y-46472778D01*
X130042989Y-46472779D01*
X129886467Y-46556443D01*
X129829853Y-46573616D01*
X129716627Y-46607963D01*
X129650443Y-46614481D01*
X129584260Y-46621000D01*
X129495740Y-46621000D01*
X129429558Y-46614482D01*
X129363373Y-46607963D01*
X129250147Y-46573616D01*
X129193533Y-46556443D01*
X129037011Y-46472779D01*
X129037009Y-46472778D01*
X129001271Y-46443448D01*
X128899814Y-46360186D01*
X128816552Y-46258729D01*
X128787222Y-46222991D01*
X128777652Y-46205087D01*
X128703557Y-46066467D01*
X128686384Y-46009853D01*
X128652037Y-45896627D01*
X128634641Y-45720000D01*
X128652037Y-45543373D01*
X128703557Y-45373534D01*
X128703557Y-45373533D01*
X128787221Y-45217011D01*
X128787222Y-45217009D01*
X128816552Y-45181271D01*
X128899814Y-45079814D01*
X129022079Y-44979475D01*
X129037009Y-44967222D01*
X129110930Y-44927710D01*
X129193533Y-44883557D01*
X129250147Y-44866384D01*
X129363373Y-44832037D01*
X129429558Y-44825518D01*
X129495740Y-44819000D01*
X129584260Y-44819000D01*
X129650442Y-44825518D01*
X129650442Y-44825518D01*
G37*
G36*
X111870442Y-44825518D02*
X111936627Y-44832037D01*
X112049853Y-44866384D01*
X112106467Y-44883557D01*
X112189070Y-44927710D01*
X112262991Y-44967222D01*
X112277921Y-44979475D01*
X112400186Y-45079814D01*
X112483448Y-45181271D01*
X112512778Y-45217009D01*
X112512779Y-45217011D01*
X112596443Y-45373533D01*
X112596443Y-45373534D01*
X112647963Y-45543373D01*
X112665359Y-45720000D01*
X112647963Y-45896627D01*
X112613616Y-46009853D01*
X112596443Y-46066467D01*
X112522348Y-46205087D01*
X112512778Y-46222991D01*
X112483448Y-46258729D01*
X112400186Y-46360186D01*
X112298729Y-46443448D01*
X112262991Y-46472778D01*
X112262989Y-46472779D01*
X112106467Y-46556443D01*
X112049853Y-46573616D01*
X111936627Y-46607963D01*
X111870443Y-46614481D01*
X111804260Y-46621000D01*
X111715740Y-46621000D01*
X111649558Y-46614482D01*
X111583373Y-46607963D01*
X111470147Y-46573616D01*
X111413533Y-46556443D01*
X111257011Y-46472779D01*
X111257009Y-46472778D01*
X111221271Y-46443448D01*
X111119814Y-46360186D01*
X111036552Y-46258729D01*
X111007222Y-46222991D01*
X110997652Y-46205087D01*
X110923557Y-46066467D01*
X110906384Y-46009853D01*
X110872037Y-45896627D01*
X110854641Y-45720000D01*
X110872037Y-45543373D01*
X110923557Y-45373534D01*
X110923557Y-45373533D01*
X111007221Y-45217011D01*
X111007222Y-45217009D01*
X111036552Y-45181271D01*
X111119814Y-45079814D01*
X111242079Y-44979475D01*
X111257009Y-44967222D01*
X111330930Y-44927710D01*
X111413533Y-44883557D01*
X111470147Y-44866384D01*
X111583373Y-44832037D01*
X111649558Y-44825518D01*
X111715740Y-44819000D01*
X111804260Y-44819000D01*
X111870442Y-44825518D01*
X111870442Y-44825518D01*
G37*
G36*
X125599390Y-44179690D02*
X123600010Y-44179690D01*
X123600010Y-42180310D01*
X125599390Y-42180310D01*
X125599390Y-44179690D01*
X125599390Y-44179690D01*
G37*
G36*
X122848570Y-44179690D02*
X120849190Y-44179690D01*
X120849190Y-42180310D01*
X122848570Y-42180310D01*
X122848570Y-44179690D01*
X122848570Y-44179690D01*
G37*
G36*
X120450810Y-44179690D02*
X118451430Y-44179690D01*
X118451430Y-42180310D01*
X120450810Y-42180310D01*
X120450810Y-44179690D01*
X120450810Y-44179690D01*
G37*
G36*
X117699990Y-44179690D02*
X115700610Y-44179690D01*
X115700610Y-42180310D01*
X117699990Y-42180310D01*
X117699990Y-44179690D01*
X117699990Y-44179690D01*
G37*
G36*
X129650442Y-42285518D02*
X129716627Y-42292037D01*
X129829853Y-42326384D01*
X129886467Y-42343557D01*
X130025087Y-42417652D01*
X130042991Y-42427222D01*
X130078729Y-42456552D01*
X130180186Y-42539814D01*
X130263448Y-42641271D01*
X130292778Y-42677009D01*
X130292779Y-42677011D01*
X130376443Y-42833533D01*
X130376443Y-42833534D01*
X130427963Y-43003373D01*
X130445359Y-43180000D01*
X130427963Y-43356627D01*
X130393616Y-43469853D01*
X130376443Y-43526467D01*
X130302348Y-43665087D01*
X130292778Y-43682991D01*
X130263448Y-43718729D01*
X130180186Y-43820186D01*
X130078729Y-43903448D01*
X130042991Y-43932778D01*
X130042989Y-43932779D01*
X129886467Y-44016443D01*
X129829853Y-44033616D01*
X129716627Y-44067963D01*
X129650443Y-44074481D01*
X129584260Y-44081000D01*
X129495740Y-44081000D01*
X129429557Y-44074481D01*
X129363373Y-44067963D01*
X129250147Y-44033616D01*
X129193533Y-44016443D01*
X129037011Y-43932779D01*
X129037009Y-43932778D01*
X129001271Y-43903448D01*
X128899814Y-43820186D01*
X128816552Y-43718729D01*
X128787222Y-43682991D01*
X128777652Y-43665087D01*
X128703557Y-43526467D01*
X128686384Y-43469853D01*
X128652037Y-43356627D01*
X128634641Y-43180000D01*
X128652037Y-43003373D01*
X128703557Y-42833534D01*
X128703557Y-42833533D01*
X128787221Y-42677011D01*
X128787222Y-42677009D01*
X128816552Y-42641271D01*
X128899814Y-42539814D01*
X129001271Y-42456552D01*
X129037009Y-42427222D01*
X129054913Y-42417652D01*
X129193533Y-42343557D01*
X129250147Y-42326384D01*
X129363373Y-42292037D01*
X129429557Y-42285519D01*
X129495740Y-42279000D01*
X129584260Y-42279000D01*
X129650442Y-42285518D01*
X129650442Y-42285518D01*
G37*
G36*
X112661000Y-44081000D02*
X110859000Y-44081000D01*
X110859000Y-42279000D01*
X112661000Y-42279000D01*
X112661000Y-44081000D01*
X112661000Y-44081000D01*
G37*
M02*
